<svg viewBox="0 0 115 12" fill="none" xmlns="http://www.w3.org/2000/svg">
<path d="M34.739 10.0441C35.1383 9.41884 35.3565 8.70007 35.3938 7.88778H32.607C32.5858 8.55043 32.4048 9.03407 32.0641 9.33868C31.7234 9.64329 31.231 9.79559 30.5869 9.79559C29.8256 9.79559 29.288 9.52839 28.9739 8.99399C28.6652 8.45959 28.5108 7.56981 28.5108 6.32465V5.499C28.5268 4.35003 28.6971 3.51369 29.0218 2.98998C29.3466 2.46627 29.8576 2.20441 30.5549 2.20441C31.2416 2.20441 31.7527 2.35939 32.088 2.66934C32.4234 2.97929 32.6017 3.48965 32.623 4.2004H35.4177C35.3006 2.89112 34.8135 1.86506 33.9565 1.12224C33.0995 0.374081 31.9656 0 30.5549 0C29.5755 0 28.7131 0.235137 27.9678 0.705411C27.2226 1.17034 26.6503 1.833 26.2511 2.69339C25.8572 3.54843 25.6602 4.54776 25.6602 5.69138V6.26854C25.6602 8.09085 26.0994 9.50167 26.9777 10.501C27.856 11.5003 29.0591 12 30.5869 12C31.5131 12 32.3356 11.829 33.0542 11.487C33.7782 11.145 34.3398 10.664 34.739 10.0441Z" fill="currentColor"/>
<path d="M45.2855 11.8397H48.0722V0.168337H45.2855V4.8016H41.1573V0.168337H38.3546V11.8397H41.1573V6.96593H45.2855V11.8397Z" fill="currentColor"/>
<path d="M53.0292 9.21844C53.4551 9.21844 53.8091 9.34669 54.0912 9.60321C54.3733 9.85438 54.5144 10.1777 54.5144 10.5731C54.5144 10.9686 54.3733 11.2946 54.0912 11.5511C53.8091 11.8023 53.4551 11.9279 53.0292 11.9279C52.598 11.9279 52.2414 11.7996 51.9592 11.5431C51.6824 11.2866 51.544 10.9633 51.544 10.5731C51.544 10.183 51.6824 9.85972 51.9592 9.60321C52.2414 9.34669 52.598 9.21844 53.0292 9.21844Z" fill="currentColor"/>
<path d="M66.8255 10.0441C67.2248 9.41884 67.443 8.70007 67.4803 7.88778H64.6936C64.6723 8.55043 64.4913 9.03407 64.1506 9.33868C63.8099 9.64329 63.3175 9.79559 62.6734 9.79559C61.9122 9.79559 61.3745 9.52839 61.0604 8.99399C60.7517 8.45959 60.5973 7.56981 60.5973 6.32465V5.499C60.6133 4.35003 60.7836 3.51369 61.1083 2.98998C61.4331 2.46627 61.9441 2.20441 62.6414 2.20441C63.3281 2.20441 63.8392 2.35939 64.1745 2.66934C64.5099 2.97929 64.6882 3.48965 64.7095 4.2004H67.5042C67.3871 2.89112 66.9001 1.86506 66.043 1.12224C65.186 0.374081 64.0521 0 62.6414 0C61.662 0 60.7996 0.235137 60.0543 0.705411C59.3091 1.17034 58.7368 1.833 58.3376 2.69339C57.9437 3.54843 57.7467 4.54776 57.7467 5.69138V6.26854C57.7467 8.09085 58.1859 9.50167 59.0642 10.501C59.9425 11.5003 61.1456 12 62.6734 12C63.5996 12 64.4221 11.829 65.1407 11.487C65.8647 11.145 66.4263 10.664 66.8255 10.0441Z" fill="currentColor"/>
<path d="M73.2438 9.67535H78.1226V11.8397H70.4411V0.168337H73.2438V9.67535Z" fill="currentColor"/>
<path fill-rule="evenodd" clip-rule="evenodd" d="M89.6432 9.26653C90.0637 8.39011 90.274 7.38277 90.274 6.24449V5.70742C90.2687 4.58517 90.0504 3.59118 89.6192 2.72545C89.1933 1.85438 88.5945 1.1837 87.8226 0.713427C87.0507 0.243153 86.1724 0.00801603 85.1876 0.00801603C84.1921 0.00801603 83.3032 0.245825 82.5206 0.721443C81.7434 1.19706 81.1446 1.87308 80.724 2.7495C80.3088 3.62057 80.1012 4.62792 80.1012 5.77154V6.42886C80.1225 7.52973 80.3461 8.50501 80.7719 9.35471C81.2031 10.2044 81.802 10.8591 82.5685 11.3186C83.3351 11.7729 84.2134 12 85.2036 12C86.1937 12 87.0747 11.7649 87.8466 11.2946C88.6238 10.819 89.2226 10.143 89.6432 9.26653ZM86.8405 3.11824C87.2291 3.71677 87.4234 4.59586 87.4234 5.75551V6.29259C87.418 7.42552 87.2237 8.29392 86.8405 8.8978C86.4572 9.50167 85.9116 9.80361 85.2036 9.80361C84.4583 9.80361 83.8967 9.49633 83.5188 8.88176C83.1408 8.2672 82.9518 7.38811 82.9518 6.24449L82.9598 5.38677C83.0397 3.27054 83.7822 2.21242 85.1876 2.21242C85.9062 2.21242 86.4572 2.51436 86.8405 3.11824Z" fill="currentColor"/>
<path d="M102.473 0.168337V7.80762C102.473 8.67335 102.29 9.42418 101.922 10.0601C101.555 10.6907 101.028 11.1717 100.341 11.503C99.6546 11.8343 98.8428 12 97.9059 12C96.4899 12 95.3747 11.6313 94.5603 10.8938C93.7458 10.1563 93.3306 9.14629 93.3146 7.86373V0.168337H96.1333V7.91984C96.1652 9.19706 96.7561 9.83567 97.9059 9.83567C98.4862 9.83567 98.9253 9.67535 99.2234 9.35471C99.5215 9.03407 99.6706 8.51303 99.6706 7.79158V0.168337H102.473Z" fill="currentColor"/>
<path fill-rule="evenodd" clip-rule="evenodd" d="M105.865 0.168337V11.8397H109.69C110.696 11.8343 111.606 11.5939 112.421 11.1182C113.241 10.6373 113.874 9.97462 114.321 9.13026C114.774 8.28056 115 7.32131 115 6.25251V5.71543C114.995 4.65731 114.76 3.70341 114.297 2.85371C113.84 1.99866 113.201 1.33868 112.381 0.873748C111.561 0.403474 110.638 0.168337 109.61 0.168337H105.865ZM108.668 9.67535V2.34068H109.61C110.435 2.34068 111.063 2.62659 111.495 3.1984C111.926 3.77021 112.141 4.61991 112.141 5.7475V6.25251C112.141 7.38544 111.926 8.24048 111.495 8.81764C111.063 9.38945 110.446 9.67535 109.642 9.67535H108.668Z" fill="currentColor"/>
<path fill-rule="evenodd" clip-rule="evenodd" d="M0 11.8397L3.01156 11.8397C3.34917 10.9047 4.05083 10.0126 5.10546 9.2581C5.6733 8.85184 6.33093 8.49683 7.06003 8.21065C7.25124 8.13559 7.44737 8.06527 7.64809 7.99999C8.75409 7.64033 9.99927 7.434 11.3282 7.434C12.1501 7.434 12.9399 7.51291 13.6846 7.65819V11.8397H16.4873V8.61215C16.8692 8.80834 17.2249 9.02477 17.551 9.2581C18.6057 10.0126 19.3073 10.9047 19.6449 11.8397H22.5371C22.139 9.86966 20.8645 8.1904 19.1698 6.97792C18.6038 6.57296 17.9839 6.21373 17.3203 5.90561C16.8779 5.70022 16.4161 5.51754 15.9379 5.35919C15.4595 5.20081 14.9648 5.06677 14.4565 4.95866C14.2025 4.90461 13.945 4.85705 13.6846 4.81616C12.9216 4.69641 12.133 4.634 11.3282 4.634C10.4029 4.634 9.49902 4.7165 8.6309 4.87381L6.89895 0.168335H4.26393L0 11.8397ZM6.22989 5.5316L5.58144 3.43888L4.72848 6.20858C5.20409 5.95446 5.70597 5.72804 6.22989 5.5316Z" fill="currentColor"/>
<path d="M11.1948 11.8397L9.97051 8.51338C9.01553 8.62656 8.13513 8.8557 7.35675 9.16824L8.18452 11.8397H11.1948Z" fill="currentColor"/>
<path d="M13.6846 3.80484V0.168335H18.2599C19.6386 0.168335 20.7166 0.475616 21.4938 1.09018C22.271 1.70474 22.6596 2.57314 22.6596 3.69539C22.6596 4.50768 22.4946 5.18103 22.1645 5.71543C21.8566 6.22216 21.3812 6.6376 20.7382 6.96175C20.4243 6.67682 20.0928 6.41036 19.7479 6.16356C19.4208 5.92958 19.0782 5.71016 18.7218 5.50602C19.0297 5.44618 19.275 5.32092 19.4576 5.13025C19.7291 4.84701 19.8648 4.45423 19.8648 3.95189C19.8648 3.44955 19.7291 3.05677 19.4576 2.77353C19.1861 2.48496 18.7869 2.34067 18.2599 2.34067H16.4872V4.49037C15.5988 4.17896 14.6588 3.94795 13.6846 3.80484Z" fill="currentColor"/>
</svg>
