<svg width="264" height="160" viewBox="0 0 264 160" fill="none" xmlns="http://www.w3.org/2000/svg">
<rect width="264" height="160" fill="#090E11"/>
<path fill-rule="evenodd" clip-rule="evenodd" d="M183.723 86.8848C183.408 87.6972 182.944 88.4433 182.354 89.0845C181.782 89.7007 181.083 90.1853 180.306 90.505C179.487 90.8428 178.609 91.0112 177.723 91.0001C176.86 91.0086 176.005 90.8401 175.21 90.505C174.442 90.1815 173.752 89.6971 173.187 89.0845C172.597 88.4469 172.138 87.6995 171.836 86.8848C171.193 85.0143 171.193 82.9828 171.836 81.1123C172.139 80.2968 172.598 79.5482 173.187 78.9083C174.355 77.6444 176.003 76.9343 177.723 76.954C178.61 76.9443 179.489 77.1187 180.306 77.4663C181.076 77.7984 181.773 78.2814 182.354 78.8868C182.95 79.527 183.414 80.277 183.723 81.0951C184.071 82.0222 184.243 83.0061 184.231 83.9964C184.245 84.9826 184.072 85.9626 183.723 86.8848ZM193.002 69.3994V65H184.231V76.657H184.106C183.652 75.9596 183.088 75.3404 182.436 74.8232C181.738 74.3251 180.981 73.9172 180.181 73.6093C179.131 73.2052 178.013 73.0107 176.888 73.0368C175.556 73.0279 174.237 73.2977 173.015 73.8288C171.807 74.3543 170.716 75.1169 169.808 76.0716C168.86 77.0715 168.121 78.2511 167.635 79.5411C167.104 80.9465 166.838 82.4382 166.852 83.9405C166.833 85.4722 167.097 86.9943 167.631 88.4302C168.113 89.7141 168.853 90.8859 169.804 91.8739C170.719 92.8217 171.807 93.5846 173.011 94.1209C174.23 94.6617 175.55 94.9375 176.884 94.9302C178.871 94.9732 180.818 94.3689 182.432 93.2084C183.084 92.6912 183.647 92.0719 184.102 91.3746H184.226V94.4954H192.998V90.1047H188.616V69.3994H193.002ZM160.438 75.3656C159.701 74.5802 158.79 73.9787 157.778 73.6093C156.674 73.2099 155.508 73.0116 154.335 73.0239C153.242 72.9943 152.154 73.174 151.128 73.5534C150.361 73.8475 149.637 74.2442 148.976 74.7328C148.342 75.2464 147.788 75.8513 147.332 76.5279H147.246V73.4501H142.805V94.5428H147.233V83.3163C147.217 82.4236 147.363 81.5355 147.664 80.6948C147.941 79.9524 148.363 79.2732 148.908 78.6974C149.441 78.1446 150.081 77.7053 150.788 77.406C151.528 77.0961 152.323 76.9408 153.125 76.9497C154.515 76.8797 155.874 77.3661 156.904 78.3014C157.842 79.2025 158.313 80.5958 158.316 82.4812V94.5342H162.766V81.9948C162.789 80.6974 162.582 79.4061 162.155 78.1809C161.776 77.1363 161.19 76.1788 160.433 75.3656H160.438ZM103.6 77.4835C102.831 77.8212 102.135 78.3051 101.551 78.9083L101.538 78.9514C100.935 79.5962 100.463 80.352 100.148 81.1769C99.8019 82.0911 99.6297 83.062 99.64 84.0394C99.6238 85.0264 99.8037 86.0067 100.169 86.9236C100.496 87.7359 100.975 88.4782 101.581 89.1103C102.168 89.7091 102.863 90.1911 103.63 90.5309C104.406 90.8751 105.247 91.0497 106.096 91.0431C107.124 91.0854 108.147 90.8678 109.07 90.4103C109.766 90.0503 110.399 89.5809 110.946 89.0199C111.228 88.6936 111.478 88.3404 111.691 87.9653L114.703 90.9785C114.33 91.5201 113.897 92.0183 113.412 92.4636C112.849 92.9699 112.224 93.4038 111.553 93.755C110.785 94.1537 109.971 94.4572 109.13 94.659C108.135 94.8973 107.114 95.0115 106.091 94.9991C104.616 95.0061 103.154 94.7238 101.788 94.1683C100.479 93.6411 99.2888 92.8565 98.2885 91.861C97.2928 90.8616 96.5044 89.6752 95.9688 88.3699C94.8442 85.585 94.8442 82.4723 95.9688 79.6874C96.5033 78.3816 97.2918 77.1949 98.2885 76.1964C99.2888 75.2009 100.479 74.4163 101.788 73.8891C103.154 73.3336 104.616 73.0513 106.091 73.0583C107.106 73.0427 108.118 73.157 109.104 73.3984C109.921 73.5974 110.713 73.8861 111.467 74.2593C112.126 74.5979 112.742 75.0157 113.3 75.5033C113.793 75.9393 114.25 76.4128 114.669 76.9196C114.69 76.9461 114.708 76.9743 114.726 77.0021C114.737 77.0194 114.748 77.0365 114.759 77.053L111.695 80.1222C111.454 79.688 111.166 79.2823 110.834 78.9126C110.305 78.374 109.691 77.9248 109.018 77.5825C107.303 76.8025 105.342 76.7667 103.6 77.4835ZM122.201 81.9259C122.847 79.0805 125.085 76.954 128.124 76.954C131.162 76.954 133.099 79.0805 133.744 81.9259H122.201ZM128.227 73.0282C121.905 73.0282 117.441 77.8279 117.441 83.7898V84.0007C117.441 84.3494 117.441 84.6895 117.484 85.0296V85.1415C117.506 85.3911 117.54 85.6408 117.579 85.8862C117.579 85.925 117.588 85.9637 117.597 86.0014C117.601 86.0222 117.606 86.0427 117.609 86.0627C117.696 86.5462 117.814 87.0236 117.962 87.4918C117.984 87.5478 118.001 87.6037 118.018 87.664L118.018 87.664L118.018 87.6641C118.1 87.8922 118.182 88.1203 118.276 88.3441C119.35 90.9861 121.45 93.0788 124.095 94.1425C125.462 94.698 126.924 94.9803 128.399 94.9733C129.422 94.9857 130.443 94.8715 131.438 94.6332C132.279 94.4315 133.093 94.1279 133.861 93.7293C134.533 93.3795 135.157 92.9455 135.72 92.4379C136.203 91.9912 136.636 91.4932 137.011 90.9528L133.998 87.9395C133.786 88.3136 133.536 88.6654 133.254 88.9898C132.706 89.5496 132.072 90.0189 131.377 90.3802C130.454 90.8356 129.432 91.0531 128.403 91.013C127.554 91.0196 126.713 90.845 125.937 90.5008C125.171 90.161 124.476 89.679 123.889 89.0802C123.284 88.449 122.805 87.7083 122.477 86.8978C122.404 86.7213 122.343 86.5405 122.288 86.3554C122.262 86.2736 122.236 86.1875 122.214 86.1014L122.163 85.8905C122.111 85.6494 122.064 85.4041 122.029 85.1501H138.513V83.9017C138.513 77.3974 134.209 73.0411 128.227 73.0411V73.0282ZM79.2804 90.9871C82.263 90.9871 85.5253 88.4387 85.5253 84.1986V83.5917C80.0121 83.5917 75.7771 85.2274 75.7771 87.9738C75.7771 89.9152 77.3222 90.9871 79.2804 90.9871ZM89.954 73.437V90.1563L93.2421 90.1649V94.5556H85.5468V91.4304H85.4091C83.8253 93.9271 80.9632 94.9689 78.3206 94.9689C74.2191 94.9689 70.8664 92.3645 71.0041 88.1029C71.1633 83.0407 75.196 80.0662 85.5253 80.0662V77.8277H72.4028V73.437H89.954Z" fill="white"/>
<path d="M0 28L264 28" stroke="url(#paint0_linear)"/>
<path d="M0 132L264 132" stroke="url(#paint1_linear)"/>
<path d="M28 0L28 160" stroke="url(#paint2_linear)"/>
<path d="M236 0L236 160" stroke="url(#paint3_linear)"/>
<g filter="url(#filter0_df)">
<circle cx="236" cy="132" r="3" fill="#FFFF00"/>
</g>
<g filter="url(#filter1_d)">
<circle cx="28" cy="28" r="3" fill="#00D5FF"/>
</g>
<defs>
<filter id="filter0_df" x="229" y="125" width="14" height="14" filterUnits="userSpaceOnUse" color-interpolation-filters="sRGB">
<feFlood flood-opacity="0" result="BackgroundImageFix"/>
<feColorMatrix in="SourceAlpha" type="matrix" values="0 0 0 0 0 0 0 0 0 0 0 0 0 0 0 0 0 0 127 0" result="hardAlpha"/>
<feOffset/>
<feGaussianBlur stdDeviation="2"/>
<feComposite in2="hardAlpha" operator="out"/>
<feColorMatrix type="matrix" values="0 0 0 0 1 0 0 0 0 1 0 0 0 0 0 0 0 0 0.5 0"/>
<feBlend mode="normal" in2="BackgroundImageFix" result="effect1_dropShadow"/>
<feBlend mode="normal" in="SourceGraphic" in2="effect1_dropShadow" result="shape"/>
<feGaussianBlur stdDeviation="2" result="effect2_foregroundBlur"/>
</filter>
<filter id="filter1_d" x="21" y="21" width="14" height="14" filterUnits="userSpaceOnUse" color-interpolation-filters="sRGB">
<feFlood flood-opacity="0" result="BackgroundImageFix"/>
<feColorMatrix in="SourceAlpha" type="matrix" values="0 0 0 0 0 0 0 0 0 0 0 0 0 0 0 0 0 0 127 0" result="hardAlpha"/>
<feOffset/>
<feGaussianBlur stdDeviation="2"/>
<feComposite in2="hardAlpha" operator="out"/>
<feColorMatrix type="matrix" values="0 0 0 0 0 0 0 0 0 0.833333 0 0 0 0 1 0 0 0 0.5 0"/>
<feBlend mode="normal" in2="BackgroundImageFix" result="effect1_dropShadow"/>
<feBlend mode="normal" in="SourceGraphic" in2="effect1_dropShadow" result="shape"/>
</filter>
<linearGradient id="paint0_linear" x1="0" y1="27.5" x2="264" y2="27.5" gradientUnits="userSpaceOnUse">
<stop stop-color="#2B383B" stop-opacity="0"/>
<stop offset="0.119792" stop-color="#2B383B"/>
<stop offset="0.90625" stop-color="#2B383B"/>
<stop offset="1" stop-color="#2B383B" stop-opacity="0"/>
</linearGradient>
<linearGradient id="paint1_linear" x1="0" y1="131.5" x2="264" y2="131.5" gradientUnits="userSpaceOnUse">
<stop stop-color="#2B383B" stop-opacity="0"/>
<stop offset="0.119792" stop-color="#2B383B"/>
<stop offset="0.90625" stop-color="#2B383B"/>
<stop offset="1" stop-color="#2B383B" stop-opacity="0"/>
</linearGradient>
<linearGradient id="paint2_linear" x1="28.5" y1="-2.18557e-08" x2="28.5" y2="160" gradientUnits="userSpaceOnUse">
<stop stop-color="#2B383B" stop-opacity="0"/>
<stop offset="0.119792" stop-color="#2B383B"/>
<stop offset="0.90625" stop-color="#2B383B"/>
<stop offset="1" stop-color="#2B383B" stop-opacity="0"/>
</linearGradient>
<linearGradient id="paint3_linear" x1="236.5" y1="-2.18557e-08" x2="236.5" y2="160" gradientUnits="userSpaceOnUse">
<stop stop-color="#2B383B" stop-opacity="0"/>
<stop offset="0.119792" stop-color="#2B383B"/>
<stop offset="0.90625" stop-color="#2B383B"/>
<stop offset="1" stop-color="#2B383B" stop-opacity="0"/>
</linearGradient>
</defs>
</svg>
