<svg width="264" height="160" viewBox="0 0 264 160" fill="none" xmlns="http://www.w3.org/2000/svg">
<rect width="264" height="160" fill="#090E11"/>
<path d="M101.682 54.9911C102.509 54.9911 103.18 54.3214 103.18 53.4955C103.18 52.6696 102.509 52 101.682 52C100.855 52 100.184 52.6696 100.184 53.4955C100.184 54.3214 100.855 54.9911 101.682 54.9911Z" fill="white"/>
<path d="M99.1827 56.9241C99.1827 57.75 98.512 58.4196 97.6848 58.4196C96.8575 58.4196 96.1867 57.75 96.1867 56.9241C96.1867 56.0982 96.8575 55.4286 97.6848 55.4286C98.512 55.4286 99.1827 56.0982 99.1827 56.9241Z" fill="white"/>
<path d="M105.706 57.1247C105.706 57.9506 105.036 58.6203 104.208 58.6203C103.381 58.6203 102.71 57.9506 102.71 57.1247C102.71 56.2988 103.381 55.6292 104.208 55.6292C105.036 55.6292 105.706 56.2988 105.706 57.1247Z" fill="white"/>
<path d="M101.263 61.5165C102.09 61.5165 102.761 60.8468 102.761 60.0209C102.761 59.195 102.09 58.5254 101.263 58.5254C100.436 58.5254 99.7649 59.195 99.7649 60.0209C99.7649 60.8468 100.436 61.5165 101.263 61.5165Z" fill="white"/>
<path d="M102.239 63.192C102.239 64.0179 101.569 64.6875 100.742 64.6875C99.9142 64.6875 99.2435 64.0179 99.2435 63.192C99.2435 62.3661 99.9142 61.6964 100.742 61.6964C101.569 61.6964 102.239 62.3661 102.239 63.192Z" fill="white"/>
<path d="M175.982 88.2118C177.031 89.2154 178.629 89.3733 180.007 89.3945L180.504 86.4849C179.929 86.4422 179.28 86.3172 178.895 85.8463C178.59 85.428 178.563 84.8538 178.563 84.3558V70.8013L175.035 71.3689V85.0656C175.035 86.1872 175.172 87.3664 175.982 88.2118Z" fill="white"/>
<path fill-rule="evenodd" clip-rule="evenodd" d="M155.617 88.9252C158.091 87.8951 159.215 85.3666 159.215 82.822C159.215 80.2673 157.995 77.7762 155.569 76.7662C154.828 76.4509 154.007 76.2932 153.107 76.2932C152.224 76.2932 151.403 76.4509 150.645 76.7662C148.23 77.7935 146.976 80.2564 146.976 82.822C146.976 85.3742 148.178 87.8962 150.598 88.9252C151.356 89.2405 152.192 89.3982 153.107 89.3982C154.039 89.3982 154.875 89.2405 155.617 88.9252ZM153.107 79.3211C154.988 79.3211 155.617 81.2386 155.617 82.822C155.617 84.4135 155.007 86.3703 153.107 86.3703C151.197 86.3703 150.574 84.4286 150.574 82.822C150.574 81.2238 151.216 79.3211 153.107 79.3211Z" fill="white"/>
<path d="M137.447 78.2352C136.275 79.4738 135.743 81.1646 135.743 82.8479C135.743 85.4604 136.815 87.8563 139.293 88.9037C140.114 89.2349 141.093 89.4004 142.229 89.4004C143.432 89.4004 144.687 89.2338 145.804 88.762L145.306 85.8758C144.458 86.2347 143.502 86.3725 142.584 86.3725C141.385 86.3725 140.54 86.065 140.051 85.4501C139.578 84.8351 139.341 83.9676 139.341 82.8479C139.341 81.7913 139.593 80.9397 140.098 80.2932C140.619 79.6465 141.4 79.3234 142.442 79.3234C143.274 79.3234 144.081 79.5011 144.857 79.7963L145.591 76.9813C144.508 76.5229 143.332 76.2955 142.158 76.2955C140.389 76.2955 138.661 76.918 137.447 78.2352Z" fill="white"/>
<path fill-rule="evenodd" clip-rule="evenodd" d="M169.017 76.7148C171.126 77.4336 171.835 79.4007 171.835 81.4462V88.7793C170.065 89.1657 168.273 89.3943 166.461 89.3943C164.626 89.3943 162.382 89.0566 161.489 87.2179C161.237 86.6975 161.11 86.0589 161.11 85.3019C161.11 84.0483 161.631 82.9174 162.72 82.2503C164.113 81.397 165.994 81.2545 167.573 81.4696C167.936 81.5014 168.228 81.5485 168.449 81.6116C168.449 80.9618 168.393 80.3251 167.905 79.8376C166.775 78.709 163.996 79.3181 162.72 79.7902L162.27 76.9515C164.328 76.3186 166.929 76.0033 169.017 76.7148ZM166.697 86.6738H166.717C167.074 86.6738 167.436 86.6738 167.795 86.6512C168.015 86.6376 168.234 86.6152 168.449 86.5792V83.9063C167.989 83.8041 167.499 83.7642 167.029 83.7642C166.048 83.7642 164.614 83.9294 164.614 85.2073C164.614 86.4127 165.677 86.6738 166.697 86.6738Z" fill="white"/>
<path d="M186.047 89.3943H182.52V76.5469H186.047V89.3943Z" fill="white"/>
<path d="M186.379 72.9512C186.379 74.1417 185.459 75.0326 184.272 75.0326C183.067 75.0326 182.165 74.156 182.165 72.9512C182.165 71.764 183.082 70.8694 184.272 70.8694C185.445 70.8694 186.379 71.7782 186.379 72.9512Z" fill="white"/>
<path d="M192.979 86.5321H192.953C191.672 86.5321 190.425 86.2439 189.236 85.7751L188.644 88.6376C189.972 89.2271 191.495 89.3945 192.929 89.3945C194.618 89.3945 195.92 89.0792 196.836 88.4484C198.173 87.5421 198.517 85.7653 198.043 84.2849C197.793 83.3926 197.035 82.7416 196.244 82.3214C195.654 81.9897 195.027 81.7467 194.399 81.5036C194.057 81.3711 193.716 81.2386 193.379 81.0915C192.942 80.8588 192.455 80.6183 192.455 80.0505C192.455 79.4355 193.009 79.1281 194.113 79.1281C195.129 79.1281 196.115 79.341 197.072 79.6722L197.688 76.928C197.544 76.8728 197.383 76.8195 197.205 76.7681C197.137 76.7486 197.068 76.7296 196.995 76.7107L196.872 76.6797C196.62 76.6175 196.339 76.5583 196.03 76.5022C194.164 76.1208 191.845 76.0818 190.278 77.3066C189.41 77.9847 188.976 78.9071 188.976 80.0742C188.976 82.3225 190.66 83.4152 192.622 84.1429L192.725 84.1805L192.885 84.2369C193.57 84.4752 194.729 84.8783 194.729 85.6097C194.729 86.5324 193.674 86.5324 192.979 86.5321Z" fill="white"/>
<path d="M200.738 73.5689L204.265 73.0011V76.6677H208.503V79.601H204.265V83.9771C204.265 84.7185 204.391 85.3097 204.645 85.7514C205.354 86.9205 207.434 86.4188 208.503 86.0117L209 88.7556C207.929 89.1917 206.818 89.3943 205.662 89.3943C204.699 89.3943 203.902 89.2681 203.271 89.0159C202.051 88.4978 201.257 87.5078 200.951 86.2246C200.809 85.5622 200.738 84.8287 200.738 84.0246V73.5689Z" fill="white"/>
<path d="M99.45 60.1473C99.45 60.9732 98.7794 61.6429 97.952 61.6429C97.1247 61.6429 96.4541 60.9732 96.4541 60.1473C96.4541 59.3214 97.1247 58.6518 97.952 58.6518C98.7794 58.6518 99.45 59.3214 99.45 60.1473Z" fill="white"/>
<path d="M104.453 61.8884C105.281 61.8884 105.951 61.2188 105.951 60.3929C105.951 59.567 105.281 58.8973 104.453 58.8973C103.626 58.8973 102.955 59.567 102.955 60.3929C102.955 61.2188 103.626 61.8884 104.453 61.8884Z" fill="white"/>
<path d="M105.452 63.512C105.452 64.3379 104.782 65.0075 103.954 65.0075C103.127 65.0075 102.456 64.3379 102.456 63.512C102.456 62.6861 103.127 62.0165 103.954 62.0165C104.782 62.0165 105.452 62.6861 105.452 63.512Z" fill="white"/>
<path d="M107.59 62.7723C108.418 62.7723 109.088 62.1027 109.088 61.2768C109.088 60.4509 108.418 59.7813 107.59 59.7813C106.763 59.7813 106.092 60.4509 106.092 61.2768C106.092 62.1027 106.763 62.7723 107.59 62.7723Z" fill="white"/>
<path d="M107.368 59.3616C108.195 59.3616 108.866 58.692 108.866 57.8661C108.866 57.0402 108.195 56.3705 107.368 56.3705C106.54 56.3705 105.87 57.0402 105.87 57.8661C105.87 58.692 106.54 59.3616 107.368 59.3616Z" fill="white"/>
<path d="M111.931 59.024C111.931 59.8499 111.261 60.5195 110.433 60.5195C109.606 60.5195 108.935 59.8499 108.935 59.024C108.935 58.1981 109.606 57.5285 110.433 57.5285C111.261 57.5285 111.931 58.1981 111.931 59.024Z" fill="white"/>
<path d="M110.567 64.0982C111.394 64.0982 112.065 63.4286 112.065 62.6027C112.065 61.7768 111.394 61.1071 110.567 61.1071C109.74 61.1071 109.069 61.7768 109.069 62.6027C109.069 63.4286 109.74 64.0982 110.567 64.0982Z" fill="white"/>
<path d="M108.576 64.4643C108.576 65.2902 107.905 65.9598 107.078 65.9598C106.251 65.9598 105.58 65.2902 105.58 64.4643C105.58 63.6384 106.251 62.9688 107.078 62.9688C107.905 62.9688 108.576 63.6384 108.576 64.4643Z" fill="white"/>
<path d="M105.545 68.7483C106.372 68.7483 107.043 68.0787 107.043 67.2528C107.043 66.4269 106.372 65.7573 105.545 65.7573C104.718 65.7573 104.047 66.4269 104.047 67.2528C104.047 68.0787 104.718 68.7483 105.545 68.7483Z" fill="white"/>
<path d="M109.895 68.7651C109.895 69.591 109.224 70.2606 108.397 70.2606C107.57 70.2606 106.899 69.591 106.899 68.7651C106.899 67.9392 107.57 67.2695 108.397 67.2695C109.224 67.2695 109.895 67.9392 109.895 68.7651Z" fill="white"/>
<path d="M110.928 72.3571C111.755 72.3571 112.426 71.6875 112.426 70.8616C112.426 70.0357 111.755 69.3661 110.928 69.3661C110.101 69.3661 109.43 70.0357 109.43 70.8616C109.43 71.6875 110.101 72.3571 110.928 72.3571Z" fill="white"/>
<path d="M111.459 65.9674C111.459 66.7932 110.788 67.4629 109.961 67.4629C109.134 67.4629 108.463 66.7932 108.463 65.9674C108.463 65.1415 109.134 64.4718 109.961 64.4718C110.788 64.4718 111.459 65.1415 111.459 65.9674Z" fill="white"/>
<path d="M112.568 69.5625C113.395 69.5625 114.066 68.8929 114.066 68.067C114.066 67.2411 113.395 66.5714 112.568 66.5714C111.74 66.5714 111.07 67.2411 111.07 68.067C111.07 68.8929 111.74 69.5625 112.568 69.5625Z" fill="white"/>
<path d="M117.207 66.6487C117.207 67.4746 116.537 68.1443 115.709 68.1443C114.882 68.1443 114.211 67.4746 114.211 66.6487C114.211 65.8228 114.882 65.1532 115.709 65.1532C116.537 65.1532 117.207 65.8228 117.207 66.6487Z" fill="white"/>
<path d="M117.755 70.726C118.582 70.726 119.252 70.0564 119.252 69.2305C119.252 68.4043 118.582 67.7349 117.755 67.7349C116.927 67.7349 116.256 68.4043 116.256 69.2305C116.256 70.0564 116.927 70.726 117.755 70.726Z" fill="white"/>
<path d="M120.701 65.8809C120.701 66.7068 120.03 67.3764 119.203 67.3764C118.375 67.3764 117.705 66.7068 117.705 65.8809C117.705 65.0547 118.375 64.3853 119.203 64.3853C120.03 64.3853 120.701 65.0547 120.701 65.8809Z" fill="white"/>
<path d="M118.726 61.9688C119.553 61.9688 120.224 61.2991 120.224 60.4732C120.224 59.6473 119.553 58.9777 118.726 58.9777C117.899 58.9777 117.228 59.6473 117.228 60.4732C117.228 61.2991 117.899 61.9688 118.726 61.9688Z" fill="white"/>
<path d="M122.586 68.5162C122.586 69.3421 121.915 70.0117 121.088 70.0117C120.26 70.0117 119.59 69.3421 119.59 68.5162C119.59 67.69 120.26 67.0206 121.088 67.0206C121.915 67.0206 122.586 67.69 122.586 68.5162Z" fill="white"/>
<path d="M119.354 73.5357C120.182 73.5357 120.852 72.8661 120.852 72.0402C120.852 71.214 120.182 70.5446 119.354 70.5446C118.527 70.5446 117.856 71.214 117.856 72.0402C117.856 72.8661 118.527 73.5357 119.354 73.5357Z" fill="white"/>
<path d="M124.083 71.4434C124.083 72.2695 123.412 72.9389 122.585 72.9389C121.758 72.9389 121.087 72.2695 121.087 71.4434C121.087 70.6175 121.758 69.9478 122.585 69.9478C123.412 69.9478 124.083 70.6175 124.083 71.4434Z" fill="white"/>
<path d="M120.513 76.5818C121.34 76.5818 122.011 75.9124 122.011 75.0862C122.011 74.2603 121.34 73.5907 120.513 73.5907C119.685 73.5907 119.015 74.2603 119.015 75.0862C119.015 75.9124 119.685 76.5818 120.513 76.5818Z" fill="white"/>
<path d="M125.148 74.5326C125.148 75.3585 124.477 76.0282 123.65 76.0282C122.822 76.0282 122.152 75.3585 122.152 74.5326C122.152 73.7065 122.822 73.0371 123.65 73.0371C124.477 73.0371 125.148 73.7065 125.148 74.5326Z" fill="white"/>
<path d="M127.161 76.2425C127.988 76.2425 128.659 75.5728 128.659 74.7469C128.659 73.9208 127.988 73.2514 127.161 73.2514C126.334 73.2514 125.663 73.9208 125.663 74.7469C125.663 75.5728 126.334 76.2425 127.161 76.2425Z" fill="white"/>
<path d="M125.772 77.7366C125.772 78.5625 125.101 79.2321 124.274 79.2321C123.446 79.2321 122.776 78.5625 122.776 77.7366C122.776 76.9107 123.446 76.2411 124.274 76.2411C125.101 76.2411 125.772 76.9107 125.772 77.7366Z" fill="white"/>
<path d="M124.487 82.466C125.315 82.466 125.985 81.7963 125.985 80.9704C125.985 80.1445 125.315 79.4749 124.487 79.4749C123.66 79.4749 122.989 80.1445 122.989 80.9704C122.989 81.7963 123.66 82.466 124.487 82.466Z" fill="white"/>
<path d="M119.596 79.5594C119.596 80.3853 118.925 81.055 118.098 81.055C117.27 81.055 116.6 80.3853 116.6 79.5594C116.6 78.7335 117.27 78.0639 118.098 78.0639C118.925 78.0639 119.596 78.7335 119.596 79.5594Z" fill="white"/>
<path d="M114.898 81.0684C115.726 81.0684 116.396 80.3987 116.396 79.5728C116.396 78.7469 115.726 78.0773 114.898 78.0773C114.071 78.0773 113.4 78.7469 113.4 79.5728C113.4 80.3987 114.071 81.0684 114.898 81.0684Z" fill="white"/>
<path d="M116.329 82.8496C116.329 83.6755 115.659 84.3451 114.831 84.3451C114.004 84.3451 113.333 83.6755 113.333 82.8496C113.333 82.0237 114.004 81.3541 114.831 81.3541C115.659 81.3541 116.329 82.0237 116.329 82.8496Z" fill="white"/>
<path d="M118.053 84.2902C118.88 84.2902 119.551 83.6205 119.551 82.7946C119.551 81.9688 118.88 81.2991 118.053 81.2991C117.226 81.2991 116.555 81.9688 116.555 82.7946C116.555 83.6205 117.226 84.2902 118.053 84.2902Z" fill="white"/>
<path d="M122.323 85.5237C122.323 86.3496 121.652 87.0193 120.825 87.0193C119.997 87.0193 119.327 86.3496 119.327 85.5237C119.327 84.6975 119.997 84.0282 120.825 84.0282C121.652 84.0282 122.323 84.6975 122.323 85.5237Z" fill="white"/>
<path d="M124.287 85.75C125.114 85.75 125.785 85.0804 125.785 84.2545C125.785 83.4283 125.114 82.7589 124.287 82.7589C123.46 82.7589 122.789 83.4283 122.789 84.2545C122.789 85.0804 123.46 85.75 124.287 85.75Z" fill="white"/>
<path d="M125.108 87.4062C125.108 88.2321 124.437 88.9018 123.61 88.9018C122.782 88.9018 122.112 88.2321 122.112 87.4062C122.112 86.5804 122.782 85.9107 123.61 85.9107C124.437 85.9107 125.108 86.5804 125.108 87.4062Z" fill="white"/>
<path d="M119.853 90.1233C120.681 90.1233 121.351 89.4537 121.351 88.6278C121.351 87.8019 120.681 87.1323 119.853 87.1323C119.026 87.1323 118.355 87.8019 118.355 88.6278C118.355 89.4537 119.026 90.1233 119.853 90.1233Z" fill="white"/>
<path d="M115.55 86.0162C115.55 86.8421 114.879 87.5117 114.052 87.5117C113.224 87.5117 112.554 86.8421 112.554 86.0162C112.554 85.19 113.224 84.5206 114.052 84.5206C114.879 84.5206 115.55 85.19 115.55 86.0162Z" fill="white"/>
<path d="M112.59 90.4152C113.417 90.4152 114.088 89.7455 114.088 88.9196C114.088 88.0938 113.417 87.4241 112.59 87.4241C111.763 87.4241 111.092 88.0938 111.092 88.9196C111.092 89.7455 111.763 90.4152 112.59 90.4152Z" fill="white"/>
<path d="M112.011 91.4227C112.011 92.2486 111.341 92.9183 110.514 92.9183C109.686 92.9183 109.016 92.2486 109.016 91.4227C109.016 90.5968 109.686 89.9272 110.514 89.9272C111.341 89.9272 112.011 90.5968 112.011 91.4227Z" fill="white"/>
<path d="M107.938 94.899C108.765 94.899 109.436 94.2294 109.436 93.4035C109.436 92.5776 108.765 91.9079 107.938 91.9079C107.111 91.9079 106.44 92.5776 106.44 93.4035C106.44 94.2294 107.111 94.899 107.938 94.899Z" fill="white"/>
<path d="M106.473 94.7799C106.473 95.6058 105.802 96.2754 104.975 96.2754C104.147 96.2754 103.477 95.6058 103.477 94.7799C103.477 93.954 104.147 93.2843 104.975 93.2843C105.802 93.2843 106.473 93.954 106.473 94.7799Z" fill="white"/>
<path d="M88.2915 90.6738C89.1188 90.6738 89.7894 90.0042 89.7894 89.1783C89.7894 88.3524 89.1188 87.6828 88.2915 87.6828C87.4641 87.6828 86.7935 88.3524 86.7935 89.1783C86.7935 90.0042 87.4641 90.6738 88.2915 90.6738Z" fill="white"/>
<path d="M87.1203 90.9302C87.1203 91.7561 86.4497 92.4258 85.6224 92.4258C84.7951 92.4258 84.1244 91.7561 84.1244 90.9302C84.1244 90.1041 84.7951 89.4347 85.6224 89.4347C86.4497 89.4347 87.1203 90.1041 87.1203 90.9302Z" fill="white"/>
<path d="M84.045 89.5625C84.8723 89.5625 85.5429 88.8929 85.5429 88.067C85.5429 87.2411 84.8723 86.5714 84.045 86.5714C83.2176 86.5714 82.5469 87.2411 82.5469 88.067C82.5469 88.8929 83.2176 89.5625 84.045 89.5625Z" fill="white"/>
<path d="M84.3442 92.4852C84.3442 93.3111 83.6736 93.9808 82.8463 93.9808C82.0189 93.9808 81.3483 93.3111 81.3483 92.4852C81.3483 91.659 82.0189 90.9897 82.8463 90.9897C83.6736 90.9897 84.3442 91.659 84.3442 92.4852Z" fill="white"/>
<path d="M78.4303 92.5608C79.2577 92.5608 79.9283 91.8912 79.9283 91.0653C79.9283 90.2394 79.2577 89.5698 78.4303 89.5698C77.603 89.5698 76.9324 90.2394 76.9324 91.0653C76.9324 91.8912 77.603 92.5608 78.4303 92.5608Z" fill="white"/>
<path d="M78.7698 88.0312C78.7698 88.8571 78.0992 89.5268 77.2717 89.5268C76.4445 89.5268 75.7738 88.8571 75.7738 88.0312C75.7738 87.2051 76.4445 86.5357 77.2717 86.5357C78.0992 86.5357 78.7698 87.2051 78.7698 88.0312Z" fill="white"/>
<path d="M76.5144 86.3527C77.3416 86.3527 78.0123 85.683 78.0123 84.8571C78.0123 84.0312 77.3416 83.3616 76.5144 83.3616C75.6869 83.3616 75.0163 84.0312 75.0163 84.8571C75.0163 85.683 75.6869 86.3527 76.5144 86.3527Z" fill="white"/>
<path d="M81.6573 86.5656C81.6573 87.3915 80.9866 88.0611 80.1594 88.0611C79.3319 88.0611 78.6613 87.3915 78.6613 86.5656C78.6613 85.7397 79.3319 85.07 80.1594 85.07C80.9866 85.07 81.6573 85.7397 81.6573 86.5656Z" fill="white"/>
<path d="M83.029 86.4626C83.8563 86.4626 84.5269 85.793 84.5269 84.9671C84.5269 84.1412 83.8563 83.4715 83.029 83.4715C82.2016 83.4715 81.531 84.1412 81.531 84.9671C81.531 85.793 82.2016 86.4626 83.029 86.4626Z" fill="white"/>
<path d="M88.2388 86.3064C88.2388 87.1323 87.5681 87.8019 86.7407 87.8019C85.9134 87.8019 85.2428 87.1323 85.2428 86.3064C85.2428 85.4802 85.9134 84.8108 86.7407 84.8108C87.5681 84.8108 88.2388 85.4802 88.2388 86.3064Z" fill="white"/>
<path d="M85.8898 84.6311C86.717 84.6311 87.3877 83.9615 87.3877 83.1356C87.3877 82.3094 86.717 81.6401 85.8898 81.6401C85.0625 81.6401 84.3917 82.3094 84.3917 83.1356C84.3917 83.9615 85.0625 84.6311 85.8898 84.6311Z" fill="white"/>
<path d="M84.068 81.7606C84.068 82.5865 83.3973 83.2561 82.57 83.2561C81.7428 83.2561 81.072 82.5865 81.072 81.7606C81.072 80.9347 81.7428 80.2651 82.57 80.2651C83.3973 80.2651 84.068 80.9347 84.068 81.7606Z" fill="white"/>
<path d="M79.5131 84.8811C80.3405 84.8811 81.0111 84.2115 81.0111 83.3856C81.0111 82.5597 80.3405 81.8901 79.5131 81.8901C78.6858 81.8901 78.0152 82.5597 78.0152 83.3856C78.0152 84.2115 78.6858 84.8811 79.5131 84.8811Z" fill="white"/>
<path d="M80.8864 80.1267C80.8864 80.9526 80.2158 81.6222 79.3885 81.6222C78.5612 81.6222 77.8904 80.9526 77.8904 80.1267C77.8904 79.3008 78.5612 78.6311 79.3885 78.6311C80.2158 78.6311 80.8864 79.3008 80.8864 80.1267Z" fill="white"/>
<path d="M82.7171 79.9866C83.5444 79.9866 84.215 79.317 84.215 78.4911C84.215 77.6652 83.5444 76.9955 82.7171 76.9955C81.8897 76.9955 81.219 77.6652 81.219 78.4911C81.219 79.317 81.8897 79.9866 82.7171 79.9866Z" fill="white"/>
<path d="M87.2629 79.8973C87.2629 80.7232 86.5923 81.3929 85.765 81.3929C84.9376 81.3929 84.2669 80.7232 84.2669 79.8973C84.2669 79.0711 84.9376 78.4018 85.765 78.4018C86.5923 78.4018 87.2629 79.0711 87.2629 79.8973Z" fill="white"/>
<path d="M86.3486 78.183C87.176 78.183 87.8466 77.5134 87.8466 76.6875C87.8466 75.8613 87.176 75.192 86.3486 75.192C85.5213 75.192 84.8507 75.8613 84.8507 76.6875C84.8507 77.5134 85.5213 78.183 86.3486 78.183Z" fill="white"/>
<path d="M84.9592 75.3228C84.9592 76.1487 84.2885 76.8184 83.4612 76.8184C82.6338 76.8184 81.9632 76.1487 81.9632 75.3228C81.9632 74.4969 82.6338 73.8273 83.4612 73.8273C84.2885 73.8273 84.9592 74.4969 84.9592 75.3228Z" fill="white"/>
<path d="M79.7715 78.3915C80.599 78.3915 81.2696 77.7221 81.2696 76.8959C81.2696 76.07 80.599 75.4004 79.7715 75.4004C78.9443 75.4004 78.2736 76.07 78.2736 76.8959C78.2736 77.7221 78.9443 78.3915 79.7715 78.3915Z" fill="white"/>
<path d="M78.391 75.137C78.391 75.9629 77.7204 76.6325 76.8931 76.6325C76.0657 76.6325 75.3951 75.9629 75.3951 75.137C75.3951 74.3111 76.0657 73.6415 76.8931 73.6415C77.7204 73.6415 78.391 74.3111 78.391 75.137Z" fill="white"/>
<path d="M77.8911 73.531C78.7185 73.531 79.3892 72.8613 79.3892 72.0354C79.3892 71.2095 78.7185 70.5399 77.8911 70.5399C77.0638 70.5399 76.3932 71.2095 76.3932 72.0354C76.3932 72.8613 77.0638 73.531 77.8911 73.531Z" fill="white"/>
<path d="M82.1341 73.7455C82.1341 74.5714 81.4634 75.2411 80.6361 75.2411C79.8087 75.2411 79.1381 74.5714 79.1381 73.7455C79.1381 72.9194 79.8087 72.25 80.6361 72.25C81.4634 72.25 82.1341 72.9194 82.1341 73.7455Z" fill="white"/>
<path d="M84.749 73.8482C85.5763 73.8482 86.2469 73.1786 86.2469 72.3527C86.2469 71.5268 85.5763 70.8571 84.749 70.8571C83.9217 70.8571 83.251 71.5268 83.251 72.3527C83.251 73.1786 83.9217 73.8482 84.749 73.8482Z" fill="white"/>
<path d="M89.1344 73.7098C89.1344 74.5357 88.4638 75.2054 87.6365 75.2054C86.8091 75.2054 86.1385 74.5357 86.1385 73.7098C86.1385 72.8839 86.8091 72.2143 87.6365 72.2143C88.4638 72.2143 89.1344 72.8839 89.1344 73.7098Z" fill="white"/>
<path d="M82.0086 72.2799C82.8359 72.2799 83.5065 71.6102 83.5065 70.7843C83.5065 69.9584 82.8359 69.2888 82.0086 69.2888C81.1812 69.2888 80.5105 69.9584 80.5105 70.7843C80.5105 71.6102 81.1812 72.2799 82.0086 72.2799Z" fill="white"/>
<path d="M77.6959 81.5999C77.6959 82.4258 77.0253 83.0954 76.1978 83.0954C75.3706 83.0954 74.6999 82.4258 74.6999 81.5999C74.6999 80.774 75.3706 80.1044 76.1978 80.1044C77.0253 80.1044 77.6959 80.774 77.6959 81.5999Z" fill="white"/>
<path d="M106.044 99.2679C106.871 99.2679 107.542 98.5982 107.542 97.7723C107.542 96.9464 106.871 96.2768 106.044 96.2768C105.217 96.2768 104.546 96.9464 104.546 97.7723C104.546 98.5982 105.217 99.2679 106.044 99.2679Z" fill="white"/>
<path d="M107.208 101.174C107.208 102 106.537 102.67 105.71 102.67C104.883 102.67 104.212 102 104.212 101.174C104.212 100.348 104.883 99.6786 105.71 99.6786C106.537 99.6786 107.208 100.348 107.208 101.174Z" fill="white"/>
<path d="M110.38 108C111.207 108 111.878 107.33 111.878 106.504C111.878 105.679 111.207 105.009 110.38 105.009C109.552 105.009 108.882 105.679 108.882 106.504C108.882 107.33 109.552 108 110.38 108Z" fill="white"/>
<path d="M107.021 104.473C107.021 105.299 106.35 105.969 105.523 105.969C104.696 105.969 104.025 105.299 104.025 104.473C104.025 103.647 104.696 102.978 105.523 102.978C106.35 102.978 107.021 103.647 107.021 104.473Z" fill="white"/>
<path d="M102.506 103.239C103.333 103.239 104.004 102.57 104.004 101.744C104.004 100.918 103.333 100.248 102.506 100.248C101.679 100.248 101.008 100.918 101.008 101.744C101.008 102.57 101.679 103.239 102.506 103.239Z" fill="white"/>
<path d="M104.383 98.4838C104.383 99.31 103.712 99.9794 102.885 99.9794C102.057 99.9794 101.387 99.31 101.387 98.4838C101.387 97.6579 102.057 96.9883 102.885 96.9883C103.712 96.9883 104.383 97.6579 104.383 98.4838Z" fill="white"/>
<path d="M99.2488 103.333C100.076 103.333 100.747 102.664 100.747 101.838C100.747 101.012 100.076 100.342 99.2488 100.342C98.4214 100.342 97.7508 101.012 97.7508 101.838C97.7508 102.664 98.4214 103.333 99.2488 103.333Z" fill="white"/>
<path d="M103.79 104.965C103.79 105.791 103.12 106.461 102.292 106.461C101.465 106.461 100.794 105.791 100.794 104.965C100.794 104.14 101.465 103.47 102.292 103.47C103.12 103.47 103.79 104.14 103.79 104.965Z" fill="white"/>
<path d="M99.0349 106.506C99.8622 106.506 100.533 105.836 100.533 105.01C100.533 104.184 99.8622 103.515 99.0349 103.515C98.2076 103.515 97.5369 104.184 97.5369 105.01C97.5369 105.836 98.2076 106.506 99.0349 106.506Z" fill="white"/>
<path d="M97.2844 104.615C97.2844 105.441 96.6138 106.11 95.7865 106.11C94.9592 106.11 94.2885 105.441 94.2885 104.615C94.2885 103.789 94.9592 103.119 95.7865 103.119C96.6138 103.119 97.2844 103.789 97.2844 104.615Z" fill="white"/>
<path d="M114.029 93.7991C114.857 93.7991 115.527 93.1295 115.527 92.3036C115.527 91.4777 114.857 90.808 114.029 90.808C113.202 90.808 112.531 91.4777 112.531 92.3036C112.531 93.1295 113.202 93.7991 114.029 93.7991Z" fill="white"/>
<path d="M117.372 89.5968C117.372 90.4227 116.701 91.0924 115.874 91.0924C115.047 91.0924 114.376 90.4227 114.376 89.5968C114.376 88.7709 115.047 88.1013 115.874 88.1013C116.701 88.1013 117.372 88.7709 117.372 89.5968Z" fill="white"/>
<path d="M118.418 93.0639C119.246 93.0639 119.916 92.3943 119.916 91.5684C119.916 90.7425 119.246 90.0728 118.418 90.0728C117.591 90.0728 116.92 90.7425 116.92 91.5684C116.92 92.3943 117.591 93.0639 118.418 93.0639Z" fill="white"/>
<path d="M124.047 90.4866C124.047 91.3125 123.376 91.9821 122.549 91.9821C121.722 91.9821 121.051 91.3125 121.051 90.4866C121.051 89.6607 121.722 88.9911 122.549 88.9911C123.376 88.9911 124.047 89.6607 124.047 90.4866Z" fill="white"/>
<path d="M121.048 94.8853C121.875 94.8853 122.545 94.2157 122.545 93.3898C122.545 92.5636 121.875 91.8943 121.048 91.8943C120.22 91.8943 119.549 92.5636 119.549 93.3898C119.549 94.2157 120.22 94.8853 121.048 94.8853Z" fill="white"/>
<path d="M120.652 96.067C120.652 96.8929 119.981 97.5625 119.154 97.5625C118.326 97.5625 117.656 96.8929 117.656 96.067C117.656 95.2411 118.326 94.5714 119.154 94.5714C119.981 94.5714 120.652 95.2411 120.652 96.067Z" fill="white"/>
<path d="M116.948 99.9794C117.775 99.9794 118.446 99.31 118.446 98.4838C118.446 97.6579 117.775 96.9883 116.948 96.9883C116.121 96.9883 115.45 97.6579 115.45 98.4838C115.45 99.31 116.121 99.9794 116.948 99.9794Z" fill="white"/>
<path d="M118.04 103.129C118.04 103.955 117.37 104.625 116.542 104.625C115.715 104.625 115.044 103.955 115.044 103.129C115.044 102.304 115.715 101.634 116.542 101.634C117.37 101.634 118.04 102.304 118.04 103.129Z" fill="white"/>
<path d="M114.292 98.0818C115.12 98.0818 115.79 97.4124 115.79 96.5862C115.79 95.7603 115.12 95.0907 114.292 95.0907C113.465 95.0907 112.794 95.7603 112.794 96.5862C112.794 97.4124 113.465 98.0818 114.292 98.0818Z" fill="white"/>
<path d="M113.174 98.5698C113.174 99.3956 112.504 100.065 111.677 100.065C110.849 100.065 110.179 99.3956 110.179 98.5698C110.179 97.7439 110.849 97.0742 111.677 97.0742C112.504 97.0742 113.174 97.7439 113.174 98.5698Z" fill="white"/>
<path d="M111.721 96.0968C112.548 96.0968 113.219 95.4272 113.219 94.6013C113.219 93.7754 112.548 93.1058 111.721 93.1058C110.894 93.1058 110.223 93.7754 110.223 94.6013C110.223 95.4272 110.894 96.0968 111.721 96.0968Z" fill="white"/>
<path d="M110.537 96.4523C110.537 97.2782 109.866 97.9478 109.039 97.9478C108.211 97.9478 107.541 97.2782 107.541 96.4523C107.541 95.6261 108.211 94.9568 109.039 94.9568C109.866 94.9568 110.537 95.6261 110.537 96.4523Z" fill="white"/>
<path d="M108.807 101.585C109.634 101.585 110.305 100.915 110.305 100.089C110.305 99.2634 109.634 98.5938 108.807 98.5938C107.98 98.5938 107.309 99.2634 107.309 100.089C107.309 100.915 107.98 101.585 108.807 101.585Z" fill="white"/>
<path d="M113.148 102.256C113.148 103.082 112.477 103.752 111.65 103.752C110.822 103.752 110.152 103.082 110.152 102.256C110.152 101.43 110.822 100.761 111.65 100.761C112.477 100.761 113.148 101.43 113.148 102.256Z" fill="white"/>
<path d="M116.533 95.726C117.361 95.726 118.032 95.0564 118.032 94.2305C118.032 93.4043 117.361 92.7349 116.533 92.7349C115.706 92.7349 115.036 93.4043 115.036 94.2305C115.036 95.0564 115.706 95.726 116.533 95.726Z" fill="white"/>
<path d="M117.929 73.3066C117.929 74.1325 117.258 74.8022 116.431 74.8022C115.604 74.8022 114.933 74.1325 114.933 73.3066C114.933 72.4807 115.604 71.8111 116.431 71.8111C117.258 71.8111 117.929 72.4807 117.929 73.3066Z" fill="white"/>
<path d="M114.257 77.8987C115.084 77.8987 115.755 77.2291 115.755 76.4032C115.755 75.5773 115.084 74.9076 114.257 74.9076C113.429 74.9076 112.759 75.5773 112.759 76.4032C112.759 77.2291 113.429 77.8987 114.257 77.8987Z" fill="white"/>
<path d="M119.047 76.375C119.047 77.2009 118.377 77.8705 117.55 77.8705C116.722 77.8705 116.052 77.2009 116.052 76.375C116.052 75.5491 116.722 74.8795 117.55 74.8795C118.377 74.8795 119.047 75.5491 119.047 76.375Z" fill="white"/>
<path d="M121.15 79.7919C121.977 79.7919 122.648 79.1222 122.648 78.2963C122.648 77.4704 121.977 76.8008 121.15 76.8008C120.323 76.8008 119.652 77.4704 119.652 78.2963C119.652 79.1222 120.323 79.7919 121.15 79.7919Z" fill="white"/>
<path d="M116.254 70.4894C116.254 71.3153 115.583 71.9849 114.756 71.9849C113.928 71.9849 113.258 71.3153 113.258 70.4894C113.258 69.6635 113.928 68.9939 114.756 68.9939C115.583 68.9939 116.254 69.6635 116.254 70.4894Z" fill="white"/>
<path d="M112.902 74.9406C113.729 74.9406 114.4 74.2709 114.4 73.445C114.4 72.6191 113.729 71.9495 112.902 71.9495C112.075 71.9495 111.404 72.6191 111.404 73.445C111.404 74.2709 112.075 74.9406 112.902 74.9406Z" fill="white"/>
<path d="M114.783 64.4375C114.783 65.2634 114.112 65.933 113.285 65.933C112.458 65.933 111.787 65.2634 111.787 64.4375C111.787 63.6116 112.458 62.942 113.285 62.942C114.112 62.942 114.783 63.6116 114.783 64.4375Z" fill="white"/>
<path d="M113.294 62.0865C114.121 62.0865 114.792 61.4169 114.792 60.591C114.792 59.7651 114.121 59.0954 113.294 59.0954C112.467 59.0954 111.796 59.7651 111.796 60.591C111.796 61.4169 112.467 62.0865 113.294 62.0865Z" fill="white"/>
<path d="M74.5455 78.0209C74.5455 78.8468 73.8749 79.5165 73.0476 79.5165C72.2202 79.5165 71.5495 78.8468 71.5495 78.0209C71.5495 77.195 72.2202 76.5254 73.0476 76.5254C73.8749 76.5254 74.5455 77.195 74.5455 78.0209Z" fill="white"/>
<path d="M94.4943 58.9972C95.3216 58.9972 95.9922 58.3276 95.9922 57.5017C95.9922 56.6758 95.3216 56.0061 94.4943 56.0061C93.6669 56.0061 92.9962 56.6758 92.9962 57.5017C92.9962 58.3276 93.6669 58.9972 94.4943 58.9972Z" fill="white"/>
<path d="M90.8905 89.9049C93.2724 92.3959 96.632 93.9464 100.354 93.9464C101.399 93.9464 102.414 93.8245 103.389 93.5924C99.1078 101.775 90.5283 107.36 80.6431 107.36C66.4802 107.36 55 95.8973 55 81.7589C55 67.6205 66.4802 56.1579 80.6431 56.1593C89.713 56.1593 97.6813 60.8588 102.241 67.9526C101.625 67.8633 100.995 67.817 100.354 67.817C96.213 67.817 92.5211 69.7383 90.1228 72.7352C87.738 70.2383 84.3724 68.6816 80.6431 68.6816C73.408 68.6816 67.5443 74.5374 67.5443 81.7589C67.5443 88.9821 73.4095 94.8362 80.6431 94.8362C84.7927 94.8362 88.4907 92.9107 90.8905 89.9049Z" fill="white"/>
<path d="M0 28L264 28" stroke="url(#paint0_linear)"/>
<path d="M0 132L264 132" stroke="url(#paint1_linear)"/>
<path d="M28 0L28 160" stroke="url(#paint2_linear)"/>
<path d="M236 0L236 160" stroke="url(#paint3_linear)"/>
<g filter="url(#filter0_d)">
<circle cx="236" cy="28" r="3" fill="#FFFF00"/>
</g>
<g filter="url(#filter1_df)">
<circle cx="28" cy="132" r="3" fill="#00D5FF"/>
</g>
<defs>
<filter id="filter0_d" x="229" y="21" width="14" height="14" filterUnits="userSpaceOnUse" color-interpolation-filters="sRGB">
<feFlood flood-opacity="0" result="BackgroundImageFix"/>
<feColorMatrix in="SourceAlpha" type="matrix" values="0 0 0 0 0 0 0 0 0 0 0 0 0 0 0 0 0 0 127 0" result="hardAlpha"/>
<feOffset/>
<feGaussianBlur stdDeviation="2"/>
<feComposite in2="hardAlpha" operator="out"/>
<feColorMatrix type="matrix" values="0 0 0 0 1 0 0 0 0 1 0 0 0 0 0 0 0 0 0.5 0"/>
<feBlend mode="normal" in2="BackgroundImageFix" result="effect1_dropShadow"/>
<feBlend mode="normal" in="SourceGraphic" in2="effect1_dropShadow" result="shape"/>
</filter>
<filter id="filter1_df" x="21" y="125" width="14" height="14" filterUnits="userSpaceOnUse" color-interpolation-filters="sRGB">
<feFlood flood-opacity="0" result="BackgroundImageFix"/>
<feColorMatrix in="SourceAlpha" type="matrix" values="0 0 0 0 0 0 0 0 0 0 0 0 0 0 0 0 0 0 127 0" result="hardAlpha"/>
<feOffset/>
<feGaussianBlur stdDeviation="2"/>
<feComposite in2="hardAlpha" operator="out"/>
<feColorMatrix type="matrix" values="0 0 0 0 0 0 0 0 0 0.833333 0 0 0 0 1 0 0 0 0.5 0"/>
<feBlend mode="normal" in2="BackgroundImageFix" result="effect1_dropShadow"/>
<feBlend mode="normal" in="SourceGraphic" in2="effect1_dropShadow" result="shape"/>
<feGaussianBlur stdDeviation="2" result="effect2_foregroundBlur"/>
</filter>
<linearGradient id="paint0_linear" x1="0" y1="27.5" x2="264" y2="27.5" gradientUnits="userSpaceOnUse">
<stop stop-color="#2B383B" stop-opacity="0"/>
<stop offset="0.119792" stop-color="#2B383B"/>
<stop offset="0.90625" stop-color="#2B383B"/>
<stop offset="1" stop-color="#2B383B" stop-opacity="0"/>
</linearGradient>
<linearGradient id="paint1_linear" x1="0" y1="131.5" x2="264" y2="131.5" gradientUnits="userSpaceOnUse">
<stop stop-color="#2B383B" stop-opacity="0"/>
<stop offset="0.119792" stop-color="#2B383B"/>
<stop offset="0.90625" stop-color="#2B383B"/>
<stop offset="1" stop-color="#2B383B" stop-opacity="0"/>
</linearGradient>
<linearGradient id="paint2_linear" x1="28.5" y1="-2.18557e-08" x2="28.5" y2="160" gradientUnits="userSpaceOnUse">
<stop stop-color="#2B383B" stop-opacity="0"/>
<stop offset="0.119792" stop-color="#2B383B"/>
<stop offset="0.90625" stop-color="#2B383B"/>
<stop offset="1" stop-color="#2B383B" stop-opacity="0"/>
</linearGradient>
<linearGradient id="paint3_linear" x1="236.5" y1="-2.18557e-08" x2="236.5" y2="160" gradientUnits="userSpaceOnUse">
<stop stop-color="#2B383B" stop-opacity="0"/>
<stop offset="0.119792" stop-color="#2B383B"/>
<stop offset="0.90625" stop-color="#2B383B"/>
<stop offset="1" stop-color="#2B383B" stop-opacity="0"/>
</linearGradient>
</defs>
</svg>
