<svg width="128" height="48" viewBox="0 0 128 48" fill="none" xmlns="http://www.w3.org/2000/svg">
<rect width="128" height="48" fill="white"/>
<path fill-rule="evenodd" clip-rule="evenodd" d="M0 24C0 14.0589 8.06774 6 18.0198 6H18.7356C28.6876 6 36.7554 14.0589 36.7554 24C36.7554 33.9411 28.6876 42 18.7356 42H18.0198C8.06773 42 0 33.9411 0 24ZM27.0733 16.441C27.4987 16.028 27.9822 15.918 28.4368 16.358C28.8622 16.771 28.7771 17.267 28.3516 17.653L18.0954 27.593L14.8848 24.481C14.4594 24.069 14.3452 23.6 14.7998 23.1589C15.2262 22.746 15.7378 22.829 16.1633 23.2419L18.0954 25.114L27.0733 16.441ZM21.1329 16.6928C22.2354 16.5336 23.3603 16.6552 24.4032 17.046L21.8755 19.4981C20.953 19.489 20.0645 19.8449 19.4038 20.488L18.0963 21.755L16.7889 20.488C15.3973 19.139 13.2099 19.084 11.9035 20.351C10.596 21.645 10.6541 23.7369 12.0456 25.087L18.0963 30.952L24.1479 25.059C24.8577 24.371 25.2271 23.489 25.2271 22.609L27.7269 20.186C28.6649 22.416 28.1534 25.142 26.1932 27.042L18.0963 34.89L9.99938 27.042C7.44262 24.564 7.32946 20.626 9.77214 18.2581C11.9886 16.11 15.5395 16.056 18.0963 17.9561C18.9859 17.2863 20.0304 16.8518 21.1329 16.6928Z" fill="#090E11"/>
<path fill-rule="evenodd" clip-rule="evenodd" d="M122.532 20.364C125.995 20.364 128 22.909 128 26.182C128 29.455 125.996 31.94 122.532 32C119.068 32 117.063 29.455 117.063 26.182C117.063 22.909 119.068 20.364 122.532 20.364ZM122.532 29.576C124.354 29.576 125.205 27.939 125.205 26.182C125.205 24.364 124.354 22.788 122.532 22.788C120.709 22.788 119.859 24.424 119.859 26.182C119.859 28 120.709 29.576 122.532 29.576Z" fill="#090E11"/>
<path fill-rule="evenodd" clip-rule="evenodd" d="M110.015 20.364C113.478 20.364 115.483 22.909 115.483 26.182C115.483 29.455 113.479 31.94 110.015 32C106.551 32 104.546 29.455 104.546 26.182C104.546 22.909 106.551 20.364 110.015 20.364ZM109.954 29.576C111.777 29.576 112.628 27.939 112.628 26.182C112.628 24.364 111.837 22.788 109.954 22.788C108.132 22.788 107.281 24.424 107.281 26.182C107.281 28 108.132 29.576 109.954 29.576Z" fill="#090E11"/>
<path fill-rule="evenodd" clip-rule="evenodd" d="M101.143 16C102.055 16 102.48 16.667 102.48 17.455L102.481 30.727C102.481 31.394 102.177 31.879 101.145 31.879H97.6807C93.9736 31.879 92.1516 29.576 92.1516 26.909C92.1516 23.575 94.6423 20.425 99.807 20.425V17.455C99.807 16.667 100.232 16 101.143 16ZM97.3764 29.455H99.807V22.849C97.3764 22.849 94.9467 24.424 94.9467 26.909C94.9467 28.303 95.8577 29.455 97.3764 29.455Z" fill="#090E11"/>
<path fill-rule="evenodd" clip-rule="evenodd" d="M86.2571 20.545C88.6277 20.545 90.0243 21.576 90.0243 24.303H90.0863V30.545C90.0863 31.455 89.7219 32 88.7499 32C88.0211 32 87.6557 31.576 87.5956 30.727C86.8658 31.576 85.6515 32 84.1318 32C81.8843 32 80.2435 30.606 80.2435 28.484C80.2435 25.273 83.8285 24.424 86.4413 24.424H87.3523C87.3523 23.273 87.048 22.97 86.4413 22.97H82.3699C81.6411 22.97 81.0334 22.606 81.0334 21.758C81.0334 20.909 81.6411 20.545 82.3699 20.545H86.2571ZM84.9207 29.818C86.1971 29.818 87.4735 29.091 87.4735 27.818L87.4725 26.363C84.3741 26.363 82.8554 27.273 82.8554 28.303C82.8554 29.212 83.5842 29.818 84.9207 29.818Z" fill="#090E11"/>
<path d="M68.2113 25.394C68.2113 22.788 70.0343 20.545 73.0116 20.545H76.9009C77.6297 20.545 78.2373 20.97 78.2373 21.818C78.2373 22.667 77.6297 23.091 76.9009 23.091H73.5582C71.9784 23.091 71.1275 24.182 71.1275 25.333C71.1275 28 73.3159 29.273 76.2932 29.273C78.1763 29.273 78.6017 29.515 78.6017 30.545C78.6017 31.455 78.0551 31.818 75.9288 31.818C70.5209 31.818 68.2113 28.424 68.2113 25.394Z" fill="#090E11"/>
<path fill-rule="evenodd" clip-rule="evenodd" d="M62.3789 20.545C64.7485 20.545 66.146 21.576 66.146 24.303H66.2071V30.545C66.2071 31.455 65.8417 32 64.8696 32C64.1408 32 63.7764 31.576 63.7164 30.727C62.9856 31.576 61.7712 32 60.2526 32C58.0041 32 56.3643 30.606 56.3643 28.484C56.3643 25.273 59.9482 24.424 62.5611 24.424H63.4721C63.4721 23.273 63.1688 22.97 62.5611 22.97H58.4896C57.7608 22.97 57.1532 22.606 57.1532 21.758C57.1532 20.909 57.7608 20.545 58.4896 20.545H62.3789ZM61.0414 29.818C62.3178 29.818 63.5942 29.091 63.5942 27.818V26.363C60.4948 26.363 58.9762 27.273 58.9762 28.303C58.9762 29.212 59.705 29.818 61.0414 29.818Z" fill="#090E11"/>
<path fill-rule="evenodd" clip-rule="evenodd" d="M52.9005 16C53.8115 16 54.236 16.667 54.236 17.455L54.237 30.727C54.237 31.394 53.9326 31.879 52.9005 31.879H49.4367C45.7296 31.879 43.9076 29.576 43.9076 26.909C43.9076 23.575 46.3983 20.425 51.563 20.425V17.455C51.563 16.667 51.9895 16 52.9005 16ZM49.1334 29.455H51.563V22.849C49.1334 22.849 46.7027 24.424 46.7027 26.909C46.7027 28.303 47.6137 29.455 49.1334 29.455Z" fill="#090E11"/>
</svg>
