<svg width="103" height="48" viewBox="0 0 103 48" fill="none" xmlns="http://www.w3.org/2000/svg">
<rect width="103" height="48" fill="white"/>
<path d="M81.6333 10.2766C79.0903 10.2766 76.7899 11.3266 75.1275 13.0246C74.8827 13.2745 74.4848 13.2756 74.2387 13.0271C73.9926 12.7785 73.9915 12.3743 74.2363 12.1244C76.125 10.1953 78.7423 9 81.6333 9C84.5244 9 87.1417 10.1953 89.0304 12.1244C89.2752 12.3743 89.2741 12.7785 89.028 13.0271C88.7819 13.2756 88.384 13.2745 88.1392 13.0246C86.4768 11.3266 84.1764 10.2766 81.6333 10.2766Z" fill="#090E11"/>
<path d="M81.6333 12.5745C79.6455 12.5745 77.8477 13.396 76.5491 14.7245C76.3046 14.9747 75.9067 14.9762 75.6604 14.7278C75.4141 14.4794 75.4126 14.0753 75.6572 13.8251C77.182 12.265 79.2971 11.2979 81.6333 11.2979C83.9696 11.2979 86.0846 12.265 87.6095 13.8251C87.854 14.0753 87.8526 14.4794 87.6063 14.7278C87.36 14.9762 86.9621 14.9747 86.7176 14.7245C85.419 13.396 83.6212 12.5745 81.6333 12.5745Z" fill="#090E11"/>
<path d="M77.9967 16.398C78.9294 15.4545 80.2138 14.8723 81.6334 14.8723C83.0529 14.8723 84.3373 15.4545 85.27 16.398C85.5159 16.6468 85.9138 16.646 86.1587 16.3963C86.4036 16.1465 86.4029 15.7424 86.157 15.4936C84.9984 14.3214 83.3987 13.5957 81.6334 13.5957C79.868 13.5957 78.2683 14.3214 77.1097 15.4936C76.8638 15.7424 76.8631 16.1465 77.108 16.3963C77.353 16.646 77.7508 16.6468 77.9967 16.398Z" fill="#090E11"/>
<path d="M41.4137 20.3617V38.4894H44.1788V23.9362C45.5865 22.5064 48.7873 22.4894 50.2117 22.6596V19.8511C46.6925 19.8511 44.5558 21.2128 43.9274 21.8936V20.3617H41.4137Z" fill="#090E11"/>
<path fill-rule="evenodd" clip-rule="evenodd" d="M23.8176 22.9149V20.4894C27.9652 19.5107 36.2605 19.3404 36.2605 24.5745V38.4894H33.7468V37.2128C33.1184 37.8085 31.0571 39 27.8395 39C23.8176 39 22.058 36.1915 22.058 33.1277C22.058 29.8085 24.1946 27.766 28.468 27.766H33.3697C33.3697 23.5532 32.2386 21.383 23.8176 22.9149ZM33.244 29.9362V35.2979C30.5208 36.4894 25.0744 37.7745 25.0744 33.383C25.0744 30.7021 26.457 29.9362 33.244 29.9362Z" fill="#090E11"/>
<path d="M51.9713 20.617L57.177 38.4893H60.7322L64.4143 24.7999L68.0964 38.4894H71.6515L76.8572 20.6171H73.81L69.62 35.1938L65.9379 20.6171L62.8907 20.617L59.2085 35.1937L55.0186 20.617H51.9713Z" fill="#090E11"/>
<path d="M80.1251 20.3617H82.8902V38.4894H80.1251V20.3617Z" fill="#090E11"/>
<path d="M88.169 38.4894V20.3617H90.6827V21.6383C91.5625 21.0426 94.0511 19.8511 96.967 19.8511C100.612 19.8511 103 21.8936 103 24.9574V38.4894H99.9835V25.3404C99.9835 23.6808 98.0228 20.9234 91.1855 23.6808V38.4894H88.169Z" fill="#090E11"/>
<path fill-rule="evenodd" clip-rule="evenodd" d="M0 38.4894V13.2128H8.04393C17.0933 13.2128 18.4759 21.383 18.4759 25.5957C18.4759 37.4681 11.4375 38.4894 8.04393 38.4894H0ZM4.08481 23.8085L6.59854 22.9149L4.58755 16.7872L1.94814 17.6808L4.08481 23.8085ZM8.23246 22.7872L9.69569 27.1277H11.8774L11.1232 24.7021L13.5113 23.2979L10.7462 23.8085L9.99207 21.383L8.23246 22.7872ZM10.3691 34.1489L7.8554 35.0425L5.71873 28.9149L8.35814 28.0213L10.3691 34.1489ZM3.45638 24.7021L4.71324 28.5319L9.23795 27.1277L7.8554 23.0426L3.45638 24.7021ZM15.8089 22.4625C15.5476 21.7113 15.0106 21.1397 14.3536 20.8231C14.2658 20.7807 14.2284 20.6742 14.27 20.585C14.3117 20.4958 14.4166 20.4578 14.5044 20.5001C15.2426 20.8558 15.847 21.4989 16.1407 22.3435C16.4345 23.188 16.362 24.074 16.0077 24.8218C15.9655 24.9107 15.8604 24.9481 15.7728 24.9053C15.6853 24.8625 15.6484 24.7557 15.6906 24.6668C16.0059 24.0012 16.0702 23.2138 15.8089 22.4625ZM14.0149 21.4142C14.5296 21.6617 14.9503 22.1091 15.1549 22.6973C15.3595 23.2854 15.3089 23.902 15.0615 24.4229C15.0193 24.5118 15.056 24.6187 15.1435 24.6615C15.2311 24.7044 15.3362 24.6671 15.3785 24.5782C15.6649 23.975 15.7238 23.2598 15.4867 22.5782C15.2496 21.8966 14.7615 21.3777 14.1655 21.0911C14.0777 21.0489 13.9727 21.0869 13.9312 21.1762C13.8896 21.2654 13.9271 21.3719 14.0149 21.4142ZM14.5008 22.932C14.3542 22.5107 14.0542 22.1896 13.6865 22.0103C13.5989 21.9675 13.562 21.8607 13.6041 21.7718C13.6461 21.6828 13.7512 21.6453 13.8388 21.688C14.287 21.9067 14.6538 22.2989 14.8326 22.8129C15.0114 23.3269 14.9686 23.8661 14.7551 24.3222C14.7134 24.4113 14.6084 24.4492 14.5206 24.4068C14.4329 24.3645 14.3956 24.2578 14.4373 24.1687C14.6124 23.7945 14.6473 23.3532 14.5008 22.932ZM3.2148 25.4804L4.1312 28.2087L3.38908 28.3458L2.49819 25.9136L3.2148 25.4804Z" fill="#090E11"/>
</svg>
