<svg width="99" height="48" viewBox="0 0 99 48" fill="none" xmlns="http://www.w3.org/2000/svg">
<rect width="99" height="48" fill="white"/>
<path fill-rule="evenodd" clip-rule="evenodd" d="M0.836913 14H8.92717C15.483 14 20.0164 18.313 20.0513 23.9131V23.9827C20.0513 29.6174 15.5179 33.9653 8.96205 33.9653H0V14.8C0 14.3479 0.383597 14 0.836913 14ZM8.92717 30C12.6584 30 15.2041 27.6001 15.2041 24.0522V23.9827C15.2041 20.4348 12.6933 17.9653 8.92717 17.9653H4.56822V30H8.92717Z" fill="#090E11"/>
<path d="M59.9434 30C60.3967 30 60.6757 30.3479 60.5362 30.8V30.8696L59.5946 34H44.3905V14.0347H48.9936V30H59.9434Z" fill="#090E11"/>
<path d="M58.7574 14.0347V18.0696H65.383V34H69.986V18.0696H75.3563C75.7748 18.0347 76.1932 17.7217 76.3676 17.3391L77.4137 14.0347H58.7574Z" fill="#090E11"/>
<path d="M28.0012 25.8608V30.1043H38.8463L40.0668 34H24.2002C23.7469 34 23.3633 33.6522 23.3633 33.2V14.8C23.3633 14.3826 23.7469 14.0347 24.2002 14.0347H39.8925L38.7068 17.9304H27.9315V22H37.4515L36.5099 25.1652C36.3704 25.513 35.9869 25.8261 35.5684 25.8608H28.0012Z" fill="#090E11"/>
<path d="M94.1877 33.9653H99L90.3169 14.5217C90.2123 14.2435 89.9333 14.0347 89.6195 14H85.6092C85.2605 14 84.9467 14.2087 84.8421 14.5217L76.1241 34H80.797L87.1087 19.2522H87.9456L94.1877 33.9653Z" fill="#090E11"/>
<path d="M88.5384 27.5305L91.3282 33.9653H83.5518L86.2718 27.5305C86.3415 27.4261 86.4461 27.3565 86.5507 27.3565H88.2943C88.3989 27.3565 88.5036 27.4261 88.5384 27.5305Z" fill="#090E11"/>
</svg>
