<svg width="146" height="48" viewBox="0 0 146 48" fill="none" xmlns="http://www.w3.org/2000/svg">
<rect width="146" height="48" fill="white"/>
<path fill-rule="evenodd" clip-rule="evenodd" d="M18.6456 25.1886C18.7144 26.9029 19.1272 28.2057 20.0217 28.96C20.8473 29.7828 22.1545 30.1943 23.8058 30.1943C25.2507 30.1943 26.6956 29.92 28.0028 29.44C28.1405 29.7828 28.278 30.1257 28.4157 30.5371C28.4405 30.6859 28.4654 30.8436 28.4903 31.0038L28.5528 31.4071C28.5758 31.5556 28.5989 31.7017 28.622 31.84C27.934 32.1143 27.1772 32.32 26.3516 32.4571C25.5259 32.5943 24.6315 32.6629 23.6683 32.6629C22.2234 32.6629 20.9849 32.4571 19.9529 32.0457C18.9208 31.6343 18.0952 31.0857 17.4072 30.3314C16.7192 29.5772 16.2375 28.7543 15.9623 27.7257C15.6183 26.6971 15.4807 25.6 15.4807 24.4343C15.4807 23.2686 15.6183 22.1714 15.9623 21.1429C16.2375 20.1143 16.7192 19.2228 17.3383 18.4686C17.9576 17.7143 18.7144 17.0971 19.6777 16.6857C20.6409 16.2743 21.7417 16 22.9802 16C24.0811 16 25.0443 16.2057 25.8699 16.5486C26.6955 16.8915 27.3836 17.44 27.934 18.0571C28.4845 18.6743 28.8973 19.4971 29.1725 20.3886C29.4477 21.28 29.5853 22.24 29.5853 23.3371V24.2286C29.5853 24.5714 29.5165 24.8457 29.5165 25.0514H18.6456V25.1886ZM26.558 22.9257C26.558 22.3772 26.4892 21.8286 26.3516 21.28C26.214 20.7318 25.939 20.3205 25.6641 19.9093L25.6636 19.9085C25.3883 19.4971 24.9755 19.2228 24.4939 18.9486C24.0123 18.7429 23.4618 18.6057 22.8426 18.6057C21.6042 18.6057 20.6409 19.0172 19.9529 19.7714C19.2648 20.5257 18.852 21.6228 18.7144 22.9257H26.558Z" fill="#090E11"/>
<path d="M45.8136 29.7629C45.9453 30.0168 46.1069 30.3288 46.1662 30.7429C46.3039 31.1543 46.3727 31.6342 46.3727 32.0456C45.1343 32.5257 43.7582 32.7314 42.1757 32.7314C39.5612 32.7314 37.5658 31.9771 36.1898 30.4686C34.8137 28.9599 34.1946 26.9714 34.1946 24.4342C34.1946 23.2686 34.3321 22.1714 34.6762 21.1429C35.0202 20.1143 35.5018 19.2914 36.1211 18.5371C36.7402 17.7828 37.5659 17.2342 38.5292 16.7543C39.4924 16.3429 40.5933 16.1371 41.9005 16.1371C42.7949 16.1371 43.5518 16.2057 44.171 16.2742C44.859 16.4114 45.4783 16.5485 46.0287 16.7543C46.0287 17.0472 45.9784 17.39 45.9209 17.7828L45.9052 17.8907L45.8911 17.9885C45.8223 18.4686 45.6846 18.88 45.4782 19.2228C44.4462 18.88 43.2765 18.6742 42.038 18.6742C40.4556 18.6742 39.286 19.2228 38.4603 20.2514C37.7035 21.28 37.2907 22.7199 37.2907 24.4342C37.2907 26.4228 37.7035 27.8628 38.5979 28.7543C39.4924 29.6456 40.7309 30.1257 42.2445 30.1257C42.8637 30.1257 43.4142 30.0571 43.9646 29.9885C44.7215 29.9885 45.2031 29.8514 45.7535 29.6456L45.7657 29.6698L45.801 29.7387L45.8114 29.7586L45.8136 29.7629Z" fill="#090E11"/>
<path d="M52.0839 16.48C51.9502 16.48 51.8165 16.48 51.6908 16.4878C51.6352 16.4913 51.5812 16.4963 51.5294 16.5035C51.457 16.5136 51.3889 16.528 51.327 16.5485H51.2583V25.3257C51.2583 26.9028 51.4647 28.2057 51.8775 29.1657C52.2215 30.1257 52.7719 30.88 53.4599 31.4286C54.0792 31.9771 54.9048 32.32 55.7992 32.5257C56.6937 32.7314 57.657 32.8 58.689 32.8C59.7211 32.8 60.7531 32.7314 61.7852 32.5257C62.8172 32.32 63.6428 32.1143 64.3996 31.9085V16.5485C64.3038 16.5485 64.1932 16.5338 64.0747 16.518L64.0689 16.5172L64.06 16.516L63.9789 16.5053C63.9491 16.5016 63.9189 16.498 63.8884 16.4947C63.8078 16.4861 63.7253 16.48 63.6428 16.48H62.1292C61.8539 16.48 61.5787 16.48 61.3723 16.5485V29.8514C60.6155 30.0571 59.7211 30.1943 58.689 30.1943C58.001 30.1943 57.3817 30.1257 56.8313 29.9885C56.2808 29.8514 55.7992 29.5771 55.4552 29.2342C55.1112 28.8914 54.8361 28.3429 54.6296 27.7257C54.4232 27.04 54.3544 26.2171 54.3544 25.2571V16.5485C54.2895 16.5485 54.2177 16.5417 54.1414 16.5325C54.1172 16.5296 54.0926 16.5264 54.0676 16.5231L54.0362 16.519L54.0294 16.518L53.9708 16.5102C53.9455 16.5068 53.9199 16.5036 53.8941 16.5005L53.8495 16.4955C53.7669 16.4864 53.6822 16.48 53.5976 16.48H52.0839Z" fill="#090E11"/>
<path d="M71.1679 16.4892C71.1804 16.4881 71.1929 16.4871 71.2054 16.4862L71.2387 16.4843C71.2557 16.4834 71.2726 16.4827 71.2896 16.4821L71.3206 16.4813C71.3755 16.48 71.4303 16.48 71.4853 16.48H72.7925C72.8957 16.48 72.9989 16.4971 73.1021 16.5143L73.1036 16.5145C73.2064 16.5315 73.3091 16.5485 73.4118 16.5485C73.4806 16.8914 73.5494 17.2342 73.6181 17.7828C73.6869 18.2628 73.6869 18.7429 73.6869 19.0857C74.0997 18.4 74.719 17.7828 75.407 17.2342C76.095 16.6857 77.0583 16.48 78.1591 16.48H78.6407C78.7519 16.48 78.8432 16.48 78.9252 16.4907C78.9954 16.4999 79.0589 16.5169 79.1224 16.5485C79.1624 16.6681 79.1791 16.7875 79.1861 16.907C79.1912 16.9932 79.1912 17.0795 79.1912 17.1657V17.7828C79.1912 17.9411 79.1912 18.0766 79.1779 18.2156C79.1683 18.3174 79.1515 18.4211 79.1224 18.5371C79.1224 18.8114 79.0536 19.0857 78.9847 19.2914C78.8472 19.2228 78.6407 19.2228 78.5032 19.2228H78.0903C77.5399 19.2228 76.9895 19.2914 76.5079 19.4286C76.0263 19.5657 75.5447 19.84 75.1319 20.2514C74.719 20.6628 74.375 21.2114 74.1685 21.8286C73.9622 22.5143 73.8245 23.4057 73.8245 24.4342V32.32C73.6181 32.3885 73.3429 32.3885 73.0678 32.3885H71.5541C71.4066 32.3885 71.2591 32.3688 71.1222 32.3505C71.0037 32.3347 70.8931 32.32 70.7972 32.32V16.5485H70.866C70.9666 16.5151 71.0673 16.498 71.1679 16.4892Z" fill="#090E11"/>
<path fill-rule="evenodd" clip-rule="evenodd" d="M86.6907 32.1143C87.5852 32.5258 88.686 32.7314 89.9245 32.7314C91.1629 32.7314 92.2638 32.5258 93.1582 32.1143C94.1215 31.7029 94.8783 31.1544 95.4975 30.4C96.1167 29.6457 96.5984 28.8229 96.8735 27.7943C97.2175 26.7658 97.3552 25.6686 97.3552 24.5029C97.3552 23.3372 97.1488 22.2401 96.8735 21.2115C96.5984 20.2515 96.1167 19.36 95.4975 18.6057C94.8783 17.8515 94.1215 17.2343 93.1582 16.8229C92.2638 16.4115 91.1629 16.2057 89.9245 16.2057C88.686 16.2057 87.654 16.4115 86.6907 16.8229C85.7275 17.3029 84.9706 17.8515 84.3514 18.6057C83.7322 19.36 83.2506 20.1829 82.9753 21.2115C82.6313 22.2401 82.4938 23.3372 82.4938 24.5029C82.4938 25.6686 82.7001 26.7658 82.9753 27.7943C83.2506 28.7544 83.7322 29.6457 84.3514 30.4C84.9706 31.0857 85.7275 31.7029 86.6907 32.1143ZM93.0894 28.6857C92.4013 29.7829 91.3694 30.2629 89.9245 30.2629C88.4796 30.2629 87.4475 29.7829 86.7595 28.6857C86.0715 27.6571 85.7275 26.1486 85.7275 24.3658C85.7275 22.5829 86.0715 21.1429 86.7595 20.1143C87.4475 19.0857 88.4796 18.6057 89.9245 18.6057C91.3694 18.6057 92.4013 19.0857 93.0894 20.1143C93.7774 21.0743 94.1214 22.5143 94.1214 24.3658C94.1214 26.2172 93.7774 27.6571 93.0894 28.6857Z" fill="#090E11"/>
<path d="M102.585 29.5085C103.135 29.7143 103.754 29.92 104.442 30.0571C105.13 30.1943 105.75 30.2628 106.438 30.2628C106.726 30.2628 107.014 30.2383 107.287 30.2039C107.397 30.1902 107.503 30.1748 107.607 30.1588C107.646 30.1528 107.684 30.1467 107.723 30.1405L107.814 30.1257L107.815 30.1254C108.227 29.9883 108.64 29.8512 108.915 29.6456C109.259 29.44 109.465 29.1657 109.671 28.8914C109.878 28.6171 109.947 28.2742 109.947 27.8628C109.947 27.4514 109.878 27.1085 109.74 26.8342C109.603 26.5599 109.396 26.3543 109.121 26.1485C108.846 25.9429 108.571 25.8057 108.227 25.6686C108.117 25.6247 108.007 25.5809 107.895 25.5371C107.842 25.5165 107.788 25.4958 107.734 25.4751C107.544 25.4025 107.344 25.3298 107.126 25.2571L106.025 24.8456C104.718 24.3657 103.754 23.8171 103.135 23.2C102.516 22.5828 102.241 21.7599 102.241 20.7314C102.241 19.3599 102.722 18.1943 103.754 17.3714C104.786 16.5485 106.231 16.1371 108.158 16.1371C108.983 16.1371 109.74 16.2057 110.497 16.3429C111.254 16.48 111.942 16.6857 112.492 16.8914L112.286 18.1257C112.217 18.3326 112.148 18.5395 112.078 18.7378C112.01 18.9336 111.942 19.121 111.873 19.2914C111.802 19.2713 111.732 19.2497 111.66 19.227C111.57 19.1982 111.478 19.1677 111.384 19.1364C111.047 19.0247 110.681 18.9028 110.222 18.8114C109.603 18.6742 108.915 18.6057 108.158 18.6057C107.401 18.6057 106.713 18.7429 106.094 19.0171C105.474 19.2914 105.199 19.7714 105.199 20.4571C105.199 20.8 105.268 21.0742 105.406 21.3485C105.543 21.6228 105.75 21.8286 106.025 21.9657C106.3 22.1714 106.575 22.3085 106.851 22.4456C107.195 22.5828 107.539 22.7199 107.883 22.7885L109.259 23.2686C109.74 23.4057 110.222 23.6114 110.635 23.8857C111.048 24.0914 111.46 24.3657 111.804 24.7085C112.148 25.0514 112.355 25.4628 112.561 25.9429C112.768 26.4228 112.836 27.04 112.836 27.6571C112.836 28.4114 112.699 29.0971 112.355 29.7143C112.08 30.3314 111.598 30.88 111.048 31.2914C110.497 31.7028 109.809 32.0456 108.983 32.32C108.158 32.5943 107.263 32.6628 106.3 32.6628C105.337 32.6628 104.442 32.5943 103.686 32.4571C102.929 32.32 102.241 32.1143 101.622 31.9085C101.69 31.4971 101.759 31.0857 101.897 30.6742C102.31 30.3314 102.447 29.92 102.585 29.5085Z" fill="#090E11"/>
<path d="M123.982 32.3885L123.019 35.3371C122.881 35.8172 122.744 36.2286 122.537 36.5028C122.4 36.8456 122.193 37.0514 121.987 37.1885C121.884 37.2905 121.765 37.3588 121.646 37.4102C121.524 37.4622 121.403 37.4968 121.299 37.5314C121.199 37.5643 121.084 37.5815 120.961 37.5904C120.94 37.592 120.918 37.5932 120.896 37.5943C120.836 37.5973 120.774 37.5987 120.711 37.5994L120.648 37.5998L120.542 37.6C120.198 37.6 119.854 37.5314 119.51 37.4628C119.166 37.3943 118.959 37.3257 118.753 37.2571C118.698 37.3931 118.644 37.5397 118.594 37.6886C118.517 37.9154 118.45 38.1474 118.409 38.3543C118.34 38.6971 118.271 39.1085 118.271 39.5885C118.435 39.6538 118.614 39.7035 118.809 39.7451C119.024 39.791 119.257 39.8269 119.51 39.8628C119.923 39.9314 120.404 40 120.886 40C121.574 40 122.124 39.9314 122.606 39.7943C123.088 39.6571 123.5 39.3828 123.913 39.04C124.257 38.6971 124.601 38.2172 124.945 37.6686C125.22 37.12 125.564 36.3657 125.84 35.5429L132.032 16.48C131.873 16.48 131.728 16.4653 131.592 16.4495C131.433 16.4312 131.285 16.4114 131.137 16.4114H130.381C130.204 16.4114 130.027 16.4114 129.855 16.4137C129.78 16.4147 129.706 16.4161 129.633 16.4181C129.592 16.4193 129.552 16.4206 129.511 16.4222C129.446 16.4247 129.382 16.4279 129.32 16.4318C129.293 16.4334 129.267 16.4352 129.241 16.4371C129.195 16.4405 129.151 16.4444 129.107 16.4487C129.023 16.4571 128.943 16.4674 128.867 16.48L124.326 31.2228L119.923 16.48C119.716 16.48 119.441 16.4114 119.097 16.4114H117.377C117.197 16.4114 117.017 16.4114 116.837 16.4307C116.82 16.4325 116.803 16.4344 116.786 16.4366L116.762 16.4397L116.738 16.4432C116.676 16.4525 116.614 16.4645 116.551 16.48L121.849 32.32C121.986 32.3885 122.193 32.3885 122.399 32.3885H123.982Z" fill="#090E11"/>
<path d="M4.12919 19.0171C4.74843 18.7429 5.36768 18.6057 6.19328 18.6057C6.88131 18.6057 7.56934 18.6742 8.18859 18.8114C8.80783 18.9485 9.3582 19.1543 9.83988 19.2914C9.91815 19.0963 9.99643 18.879 10.0748 18.6522C10.1336 18.4819 10.1924 18.3061 10.2512 18.1302L10.2527 18.1257C10.3902 17.7143 10.4591 17.3028 10.4591 16.8914C9.90866 16.6857 9.22063 16.48 8.46381 16.3429C7.70691 16.2057 6.88131 16.1371 6.12449 16.1371C5.71169 16.1371 5.36768 16.1371 5.02366 16.2057L4.12919 19.0171Z" fill="#090E11"/>
<path d="M9.90765 24.64C10.1829 24.9828 10.458 25.3943 10.6645 25.8743C10.802 26.3543 10.9397 26.9714 11.0773 27.7943C11.0773 28.5486 10.9397 29.2343 10.5957 29.8514C10.3205 30.4686 9.83887 31.0172 9.28841 31.4286C8.73795 31.84 8.04992 32.1828 7.22432 32.4571C6.39872 32.6629 5.50424 32.8 4.54098 32.8C3.50894 32.8 2.68334 32.7314 1.92652 32.5943C1.23849 32.4571 0.619244 32.32 0 32.1143L0.756817 29.6457C1.23849 29.8514 1.72008 29.9886 2.33932 30.1257C3.02735 30.2629 3.64659 30.3314 4.33462 30.3314C4.81621 30.3314 5.2978 30.2629 5.71069 30.1943C6.12349 30.0571 6.53629 29.92 6.81152 29.7143C7.08675 29.5085 7.36189 29.2343 7.56833 28.96C7.77478 28.6172 7.84356 28.2743 7.84356 27.9314C7.84356 27.52 7.77478 27.1772 7.63712 26.9029C7.49955 26.6286 7.2931 26.4228 7.01788 26.2172C6.74273 26.0114 6.4675 25.8743 6.12349 25.7371C5.77947 25.6 5.43546 25.4629 5.02266 25.3257L3.92174 24.9143L3.92023 24.9138C3.37036 24.7082 2.82049 24.5026 2.40811 24.2286L3.44015 21.1429C3.44015 21.1429 3.50894 21.2114 3.50894 21.28C3.57772 21.3485 3.63887 21.4171 3.70001 21.4856L3.70051 21.4861C3.82272 21.6232 3.94492 21.7602 4.12818 21.8971C4.33462 22.1029 4.60977 22.24 4.95378 22.3772C5.2978 22.4457 5.64181 22.5828 5.98583 22.72L7.36189 23.2C7.84356 23.4057 8.32515 23.6114 8.73795 23.8172C9.21962 24.0228 9.56364 24.2971 9.90765 24.64Z" fill="#090E11"/>
<path d="M143.042 23.2L141.665 22.7199L141.664 22.7194C141.321 22.5825 140.977 22.4456 140.633 22.3771C140.289 22.24 140.014 22.1028 139.808 21.8971C139.624 21.7599 139.502 21.6227 139.379 21.4855C139.318 21.417 139.257 21.3485 139.189 21.28C139.051 21.0057 138.982 20.7314 138.982 20.3885C138.982 19.7028 139.257 19.2228 139.877 18.9485C140.496 18.6742 141.115 18.5371 141.941 18.5371C142.629 18.5371 143.317 18.6057 143.936 18.7429C144.418 18.88 144.899 19.0171 145.243 19.1543L146 16.8228C145.45 16.6171 144.83 16.48 144.142 16.3429C143.386 16.2057 142.56 16.1371 141.803 16.1371C139.877 16.1371 138.363 16.5485 137.4 17.3714C136.368 18.1943 135.886 19.2914 135.886 20.7314C135.886 21.7599 136.161 22.5828 136.78 23.2C137.4 23.8171 138.363 24.3657 139.67 24.8456L140.771 25.2571C141.184 25.3943 141.528 25.5314 141.872 25.6686C142.216 25.8057 142.491 25.9429 142.766 26.1485L142.973 26.3543L143.867 23.5429C143.592 23.4742 143.317 23.3371 143.042 23.2Z" fill="#090E11"/>
<path d="M140.015 30.1943C140.496 30.1943 140.978 30.1943 141.391 30.0571C141.528 30.0571 141.666 29.9886 141.735 29.8514L140.84 32.5943C140.565 32.6628 140.359 32.6628 140.084 32.6628C139.051 32.6628 138.226 32.5943 137.469 32.4571C136.712 32.32 136.024 32.1143 135.405 31.9085C135.474 31.4971 135.543 31.0857 135.68 30.6742C135.749 30.4684 135.835 30.2626 135.921 30.0567C136.007 29.8511 136.093 29.6456 136.162 29.44C136.712 29.6457 137.331 29.8514 138.019 29.9885C138.707 30.1257 139.327 30.1943 140.015 30.1943Z" fill="#090E11"/>
</svg>
