<svg width="174" height="48" viewBox="0 0 174 48" fill="none" xmlns="http://www.w3.org/2000/svg">
<rect width="174" height="48" fill="white"/>
<path fill-rule="evenodd" clip-rule="evenodd" d="M123.585 16.7357C122.564 15.7393 121.115 15.2571 119.172 15.2571H109.162V32.8393H119.172C121.115 32.8393 122.597 32.3251 123.585 31.3608C124.606 30.3643 125.1 28.95 125.1 27.0536V21.0429C125.1 19.1464 124.573 17.7 123.585 16.7357ZM118.152 18.7607C119.699 18.7607 120.457 19.5 120.457 21.0107V27.0215C120.457 28.5322 119.699 29.2715 118.152 29.2715H113.805V18.7607H118.152Z" fill="#090E11"/>
<path d="M130.928 21.1393L130.665 19.5V19.5321H126.713V32.8072H131.192V23.9357C131.488 23.8072 131.817 23.6786 132.18 23.55C132.373 23.487 132.595 23.4377 132.836 23.3843C132.963 23.3559 133.096 23.3263 133.233 23.2929C133.661 23.1965 134.089 23.1643 134.518 23.1643H136.691V19.275H135.538C134.88 19.275 134.254 19.3714 133.694 19.5643C133.134 19.7572 132.641 19.9822 132.245 20.2072C131.751 20.4964 131.323 20.8179 130.928 21.1393Z" fill="#090E11"/>
<path d="M144.034 32.7751V20.0143H137.646V23.3893H139.556V32.7751H144.034Z" fill="#090E11"/>
<path d="M144.034 15H139.556V18.5036H144.034V15Z" fill="#090E11"/>
<path d="M160.301 19.5H155.559L152.629 28.5L149.665 19.5H144.923L150.06 32.7751H155.197L160.301 19.5Z" fill="#090E11"/>
<path fill-rule="evenodd" clip-rule="evenodd" d="M161.75 20.3357C161.026 21.0429 160.664 22.0072 160.664 23.2607H160.631V29.2072C160.631 30.3322 160.993 31.2322 161.684 31.9072C162.376 32.5822 163.331 32.9358 164.483 32.9358H167.513C168.567 32.9358 169.522 32.8715 170.411 32.7108C171.464 32.7108 172.485 32.6465 173.473 32.5179V29.3679C173.045 29.4161 172.609 29.4643 172.172 29.5125C171.736 29.5608 171.3 29.609 170.872 29.6572H166.031C165.801 29.6572 165.57 29.5929 165.405 29.4322C165.241 29.3036 165.142 29.0786 165.142 28.8536V27.9215H174V23.2929C174 22.0393 173.638 21.0429 172.913 20.3357C172.189 19.6286 171.201 19.275 169.917 19.275H164.78C163.495 19.275 162.475 19.6286 161.75 20.3357ZM165.175 23.3893C165.175 22.7143 165.504 22.3929 166.196 22.3929H168.501C169.192 22.3929 169.522 22.7143 169.522 23.3893V24.7715H165.175V23.3893Z" fill="#090E11"/>
<path d="M6.15782 22.2643C5.13701 22.2643 4.61013 21.75 4.61013 20.7535V20.2071C4.61013 19.2107 5.13701 18.6964 6.15782 18.6964H14.1268V15.1928H5.13701C3.32588 15.1928 2.04163 15.5785 1.21839 16.3821C0.395155 17.1857 0 18.4393 0 20.2071V20.9464C0 22.7143 0.395155 23.9678 1.21839 24.7714C2.04163 25.575 3.32588 25.9607 5.13701 25.9607H11.0314V28.0821C11.0314 28.4357 10.8997 28.725 10.6692 28.95C10.4387 29.175 10.1423 29.2714 9.74714 29.2714H0.230507V32.4857C1.4489 32.7107 2.70022 32.8071 3.95154 32.8071H10.768C12.4474 32.8071 13.6658 32.4536 14.4561 31.6821C15.2464 30.9429 15.6415 29.7536 15.6415 28.1464V26.925C15.6415 25.3178 15.2464 24.1285 14.4561 23.3893C13.6658 22.65 12.4474 22.2643 10.768 22.2643H6.15782Z" fill="#090E11"/>
<path d="M26.7058 31.5214L26.9693 32.775V32.7428H30.8879V19.4678H26.4095V28.8536C26.0802 28.95 25.718 29.0464 25.3557 29.1107C25.1855 29.1476 25.0044 29.174 24.8124 29.2019C24.6702 29.2225 24.522 29.2441 24.3678 29.2714C24.3375 29.2741 24.3074 29.2768 24.2775 29.2795C23.9504 29.3087 23.6487 29.3357 23.347 29.3357H22.4579C22.2274 29.3357 21.9969 29.2393 21.8323 29.0786C21.6676 28.9178 21.5688 28.725 21.5688 28.4678V19.4678H17.0904V29.2393C17.0904 30.3643 17.4526 31.2964 18.1442 31.9714C18.8357 32.6464 19.7906 33 20.9432 33H22.0957C22.6555 33 23.2153 32.9357 23.7751 32.775C24.302 32.6143 24.8289 32.4536 25.2569 32.2607C25.7838 32.0678 26.2778 31.8107 26.7058 31.5214Z" fill="#090E11"/>
<path d="M36.9799 20.7535L36.7164 19.5V19.5321H32.7978V32.8071H37.2762V23.4214C37.6055 23.325 37.9677 23.2286 38.33 23.1643C38.5002 23.1273 38.6813 23.101 38.8733 23.0731C39.0155 23.0524 39.1637 23.0309 39.3179 23.0036C39.3483 23.0009 39.3785 22.9981 39.4085 22.9955C39.7354 22.9662 40.037 22.9393 40.3387 22.9393H41.2278C41.4583 22.9393 41.6888 23.0357 41.8534 23.1964C42.0181 23.3571 42.1169 23.55 42.1169 23.8071V32.8071H46.5953V23.0357C46.5953 21.9107 46.2331 20.9786 45.5415 20.3035C44.85 19.6285 43.8951 19.275 42.7425 19.275H41.59C41.0302 19.275 40.4704 19.3393 39.9106 19.5C39.3838 19.6607 38.8568 19.8214 38.4288 20.0143C37.9019 20.2071 37.4079 20.4643 36.9799 20.7535Z" fill="#090E11"/>
<path d="M53.8068 32.775H58.384V18.7607H63.7845V15.2571H48.4064V18.7607H53.8068V32.775Z" fill="#090E11"/>
<path fill-rule="evenodd" clip-rule="evenodd" d="M64.2126 20.3357C63.4881 21.0428 63.1259 22.0071 63.1259 23.2607H63.093V29.2071C63.093 30.3321 63.4552 31.2321 64.1467 31.9071C64.8382 32.5821 65.7932 32.9357 66.9457 32.9357H69.9752C71.029 32.9357 71.9839 32.8714 72.873 32.7107C73.9268 32.7107 74.9476 32.6464 75.9355 32.5179V29.3678C75.5074 29.4161 75.0711 29.4643 74.6348 29.5125C74.1985 29.5607 73.7622 29.6089 73.334 29.6571H68.4934C68.2629 29.6571 68.0324 29.5928 67.8677 29.4321C67.7031 29.3036 67.6043 29.0786 67.6043 28.8536V27.9214H76.4624V23.2928C76.4624 22.0393 76.1001 21.0428 75.3757 20.3357C74.6512 19.6285 73.6633 19.275 72.3791 19.275H67.2421C65.9578 19.275 64.937 19.6285 64.2126 20.3357ZM67.6372 23.3893C67.6372 22.7143 67.9665 22.3928 68.6581 22.3928H70.9631C71.6546 22.3928 71.9839 22.7143 71.9839 23.3893V24.7714H67.6372V23.3893Z" fill="#090E11"/>
<path d="M79.9529 20.5607C79.2284 21.2678 78.8662 22.2321 78.8662 23.4857H78.8991V29.2071C78.8991 30.3321 79.2614 31.2321 79.9529 31.9071C80.6444 32.5821 81.5994 32.9357 82.7519 32.9357H85.5838C86.5717 32.9357 87.4937 32.8714 88.317 32.7107C89.3049 32.7107 90.2598 32.6464 91.2148 32.5179V29.2714C90.8032 29.3036 90.3915 29.3437 89.9799 29.3839C89.5683 29.4241 89.1567 29.4643 88.7451 29.4964C88.0206 29.5607 87.2632 29.5928 86.4729 29.5928H84.2667C84.0361 29.5928 83.8056 29.4964 83.641 29.3357C83.4763 29.175 83.3775 28.9821 83.3775 28.725V23.8714C83.3775 23.1964 83.7068 22.875 84.3984 22.875H91.1819V19.5H82.9824C81.6982 19.5 80.6773 19.8535 79.9529 20.5607Z" fill="#090E11"/>
<path d="M99.6118 22.6821H100.698V22.7143H101.62C101.851 22.7143 102.082 22.8107 102.246 22.9714C102.411 23.1321 102.51 23.325 102.51 23.5821V32.8071H106.988V23.0357C106.988 21.9107 106.626 20.9786 105.934 20.3035C105.243 19.6285 104.288 19.275 103.135 19.275H101.983C101.555 19.275 101.061 19.275 100.567 19.3393L100.565 19.3394C100.072 19.4037 99.5785 19.4679 99.1508 19.5321C98.624 19.5964 98.1302 19.6928 97.6363 19.7892L97.636 15.2571H93.1576V32.775H97.636V23.0357C97.9653 22.9714 98.2946 22.875 98.6238 22.7786C98.9202 22.7143 99.2496 22.6821 99.6118 22.6821Z" fill="#090E11"/>
</svg>
