<svg width="264" height="160" viewBox="0 0 264 160" fill="none" xmlns="http://www.w3.org/2000/svg">
<rect width="264" height="160" fill="#090E11"/>
<path fill-rule="evenodd" clip-rule="evenodd" d="M184.925 95.6347C184.925 95.8559 184.774 96 184.477 96H88.4482C88.2224 96 88 95.8525 88 95.6347V90.7182C88 90.497 88.1505 90.3529 88.4482 90.3529H184.552C184.778 90.3529 185 90.5004 185 90.7182V95.6347H184.925Z" fill="white"/>
<path fill-rule="evenodd" clip-rule="evenodd" d="M177.41 81.0567H163.447V77.3038H177.41C178.844 77.3038 178.919 78.8802 178.919 79.1787C178.844 79.4799 178.768 81.0567 177.41 81.0567ZM163.45 69.0518H176.355C177.789 69.0518 177.865 70.6279 177.865 70.926C177.865 71.2276 177.789 72.801 176.355 72.801H163.45V69.0518ZM181.711 74.3808C182.315 73.4038 182.694 72.2043 182.694 70.8541C182.694 67.3276 180.129 64.6275 176.807 64.6275H158.542C158.314 64.6275 158.09 64.7782 158.09 65.0007V84.9601C158.09 85.1863 158.242 85.3333 158.542 85.3333H177.861C181.181 85.3333 183.748 82.7082 183.748 79.1067C183.748 77.2318 182.994 75.5046 181.711 74.3808Z" fill="white"/>
<path fill-rule="evenodd" clip-rule="evenodd" d="M112.835 64.0035C111.485 64.0035 110.584 64.3089 110.211 64.7635C110.135 64.8398 110.135 64.9162 110.135 64.9925V76.8475C110.135 79.3566 108.336 81.3313 102.706 81.3313C97.0766 81.3313 95.2777 79.4329 95.2777 76.8475V64.9891C95.2777 64.9127 95.2777 64.8364 95.2023 64.76C94.8288 64.3054 93.9276 64 92.5775 64C91.2275 64 90.3263 64.3054 89.9528 64.7635C89.8774 64.8364 89.8774 64.9127 89.8774 64.9891V76.844C89.8774 82.0875 93.4033 85.9608 102.706 85.9608C112.01 85.9608 115.535 82.0843 115.535 76.844V64.9891C115.535 64.9127 115.535 64.8364 115.46 64.76C115.159 64.3054 114.185 64.0035 112.835 64.0035Z" fill="white"/>
<path fill-rule="evenodd" clip-rule="evenodd" d="M137.962 80.031L146.299 72.2667V84.3615C146.299 84.4365 146.299 84.5116 146.376 84.5862C146.753 85.0333 147.664 85.3333 149.028 85.3333C150.392 85.3333 151.303 85.0333 151.68 84.5862C151.832 84.5116 151.832 84.4365 151.832 84.3615V64.7241C151.832 64.5741 151.756 64.424 151.604 64.3524C149.938 63.6807 147.286 64.2774 146.147 65.4708L137.128 73.8318L128.105 65.3992C126.969 64.2058 124.313 63.6091 122.648 64.2808C122.496 64.3558 122.419 64.5059 122.419 64.6525V84.2862C122.419 84.3615 122.419 84.4365 122.496 84.5116C122.873 84.9582 123.784 85.2583 125.148 85.2583C126.512 85.2583 127.422 84.9582 127.8 84.5116C127.876 84.4365 127.876 84.3615 127.876 84.2862V72.1917L136.213 79.956C136.747 80.4777 137.505 80.4777 137.962 80.031Z" fill="white"/>
<path d="M0 28L264 28" stroke="url(#paint0_linear)"/>
<path d="M0 132L264 132" stroke="url(#paint1_linear)"/>
<path d="M28 0L28 160" stroke="url(#paint2_linear)"/>
<path d="M236 0L236 160" stroke="url(#paint3_linear)"/>
<g filter="url(#filter0_d)">
<circle cx="28" cy="132" r="3" fill="#FFFF00"/>
</g>
<g filter="url(#filter1_df)">
<circle cx="236" cy="28" r="3" fill="#00D5FF"/>
</g>
<defs>
<filter id="filter0_d" x="21" y="125" width="14" height="14" filterUnits="userSpaceOnUse" color-interpolation-filters="sRGB">
<feFlood flood-opacity="0" result="BackgroundImageFix"/>
<feColorMatrix in="SourceAlpha" type="matrix" values="0 0 0 0 0 0 0 0 0 0 0 0 0 0 0 0 0 0 127 0" result="hardAlpha"/>
<feOffset/>
<feGaussianBlur stdDeviation="2"/>
<feComposite in2="hardAlpha" operator="out"/>
<feColorMatrix type="matrix" values="0 0 0 0 1 0 0 0 0 1 0 0 0 0 0 0 0 0 0.5 0"/>
<feBlend mode="normal" in2="BackgroundImageFix" result="effect1_dropShadow"/>
<feBlend mode="normal" in="SourceGraphic" in2="effect1_dropShadow" result="shape"/>
</filter>
<filter id="filter1_df" x="229" y="21" width="14" height="14" filterUnits="userSpaceOnUse" color-interpolation-filters="sRGB">
<feFlood flood-opacity="0" result="BackgroundImageFix"/>
<feColorMatrix in="SourceAlpha" type="matrix" values="0 0 0 0 0 0 0 0 0 0 0 0 0 0 0 0 0 0 127 0" result="hardAlpha"/>
<feOffset/>
<feGaussianBlur stdDeviation="2"/>
<feComposite in2="hardAlpha" operator="out"/>
<feColorMatrix type="matrix" values="0 0 0 0 0 0 0 0 0 0.833333 0 0 0 0 1 0 0 0 0.5 0"/>
<feBlend mode="normal" in2="BackgroundImageFix" result="effect1_dropShadow"/>
<feBlend mode="normal" in="SourceGraphic" in2="effect1_dropShadow" result="shape"/>
<feGaussianBlur stdDeviation="2" result="effect2_foregroundBlur"/>
</filter>
<linearGradient id="paint0_linear" x1="0" y1="27.5" x2="264" y2="27.5" gradientUnits="userSpaceOnUse">
<stop stop-color="#2B383B" stop-opacity="0"/>
<stop offset="0.119792" stop-color="#2B383B"/>
<stop offset="0.90625" stop-color="#2B383B"/>
<stop offset="1" stop-color="#2B383B" stop-opacity="0"/>
</linearGradient>
<linearGradient id="paint1_linear" x1="0" y1="131.5" x2="264" y2="131.5" gradientUnits="userSpaceOnUse">
<stop stop-color="#2B383B" stop-opacity="0"/>
<stop offset="0.119792" stop-color="#2B383B"/>
<stop offset="0.90625" stop-color="#2B383B"/>
<stop offset="1" stop-color="#2B383B" stop-opacity="0"/>
</linearGradient>
<linearGradient id="paint2_linear" x1="28.5" y1="-2.18557e-08" x2="28.5" y2="160" gradientUnits="userSpaceOnUse">
<stop stop-color="#2B383B" stop-opacity="0"/>
<stop offset="0.119792" stop-color="#2B383B"/>
<stop offset="0.90625" stop-color="#2B383B"/>
<stop offset="1" stop-color="#2B383B" stop-opacity="0"/>
</linearGradient>
<linearGradient id="paint3_linear" x1="236.5" y1="-2.18557e-08" x2="236.5" y2="160" gradientUnits="userSpaceOnUse">
<stop stop-color="#2B383B" stop-opacity="0"/>
<stop offset="0.119792" stop-color="#2B383B"/>
<stop offset="0.90625" stop-color="#2B383B"/>
<stop offset="1" stop-color="#2B383B" stop-opacity="0"/>
</linearGradient>
</defs>
</svg>
