<svg width="151" height="48" viewBox="0 0 151 48" fill="none" xmlns="http://www.w3.org/2000/svg">
<rect width="151" height="48" fill="white"/>
<path d="M14.2208 29.4601C17.5692 21.7701 27.5089 11.8173 29.9917 10.5739C22.3573 2.67393 6.48993 5.86957 3.97939 13.608C1.60109 19.6431 7.73736 25.2051 14.2208 29.4601Z" fill="#090E11"/>
<path d="M37.207 9.53861C35.7186 11.0465 33.4541 13.3407 33.1221 14.3021C38.8605 22.8869 36.3394 37.8924 21.9706 41.5871C22.5913 27.9109 30.1815 13.1866 37.9834 8.74704C37.7698 8.9684 37.5038 9.23788 37.207 9.53861Z" fill="#090E11"/>
<path d="M85.8913 31.0229C86.9096 30.2362 87.4187 29.1398 87.4187 27.7338C87.4187 26.641 87.1023 25.7523 86.4695 25.0675C85.844 24.3827 84.6947 23.7416 83.0218 23.1443C82.0253 22.7873 81.2834 22.4631 80.796 22.1717C80.316 21.873 79.9741 21.5489 79.7704 21.1992C79.5668 20.8422 79.4649 20.3869 79.4649 19.8332C79.4649 19.0829 79.7413 18.4965 80.2941 18.0739C80.8469 17.6514 81.6143 17.4401 82.5963 17.4401C83.8401 17.4401 85.1202 17.717 86.4368 18.2706L87.0151 16.6534C85.684 16.0706 84.2256 15.7792 82.6399 15.7792C81.1197 15.7792 79.8977 16.1434 78.974 16.8719C78.0502 17.6004 77.5883 18.5802 77.5883 19.8114C77.5883 20.9843 77.9047 21.935 78.5375 22.6635C79.1776 23.3919 80.2396 24.0221 81.7234 24.5539C82.7854 24.9327 83.5746 25.2715 84.091 25.5701C84.6147 25.8688 84.9857 26.1967 85.2039 26.5536C85.4294 26.9033 85.5421 27.355 85.5421 27.9086C85.5421 28.7464 85.2294 29.402 84.6038 29.8755C83.9783 30.3418 83.0472 30.5749 81.8107 30.5749C81.0542 30.5749 80.2905 30.4948 79.5195 30.3345C78.7485 30.1742 78.0356 29.9557 77.381 29.6789V31.471C78.3993 31.959 79.8541 32.2031 81.7452 32.2031C83.4909 32.2031 84.8729 31.8097 85.8913 31.0229Z" fill="#090E11"/>
<path d="M91.2165 27.7775V20.0081H89.3835V27.843C89.3835 29.3656 89.7436 30.4729 90.4637 31.165C91.191 31.8571 92.2821 32.2031 93.7369 32.2031C94.5806 32.2031 95.3298 32.0465 95.9844 31.7332C96.6463 31.42 97.1628 30.9683 97.5337 30.3782H97.6319L97.8938 31.9845H99.3885V20.0081H97.5774V26.3023C97.5774 27.854 97.2864 28.9722 96.7045 29.657C96.1299 30.3418 95.2171 30.6842 93.966 30.6842C93.0204 30.6842 92.3258 30.4438 91.882 29.963C91.4384 29.4822 91.2165 28.7537 91.2165 27.7775Z" fill="#090E11"/>
<path d="M107.125 32.2031C105.394 32.2031 104.052 31.6713 103.099 30.6077C102.153 29.5368 101.681 28.0252 101.681 26.0728C101.681 24.0694 102.161 22.5214 103.121 21.4287C104.088 20.3359 105.463 19.7895 107.245 19.7895C107.82 19.7895 108.394 19.8515 108.969 19.9753C109.544 20.0991 109.995 20.2448 110.322 20.4124L109.765 21.9532C109.365 21.7929 108.929 21.6618 108.456 21.5598C107.983 21.4505 107.565 21.3959 107.201 21.3959C104.772 21.3959 103.557 22.9476 103.557 26.051C103.557 27.5225 103.852 28.6517 104.441 29.4385C105.037 30.2252 105.918 30.6186 107.081 30.6186C108.078 30.6186 109.1 30.4037 110.147 29.9739V31.5802C109.347 31.9955 108.34 32.2031 107.125 32.2031Z" fill="#090E11"/>
<path d="M112.854 30.6077C113.807 31.6713 115.149 32.2031 116.88 32.2031C118.095 32.2031 119.102 31.9955 119.902 31.5802V29.9739C118.855 30.4037 117.833 30.6186 116.836 30.6186C115.673 30.6186 114.792 30.2252 114.196 29.4385C113.607 28.6517 113.312 27.5225 113.312 26.051C113.312 22.9476 114.527 21.3959 116.956 21.3959C117.32 21.3959 117.738 21.4505 118.211 21.5598C118.684 21.6618 119.12 21.7929 119.52 21.9532L120.077 20.4124C119.749 20.2448 119.298 20.0991 118.724 19.9753C118.149 19.8515 117.575 19.7895 117 19.7895C115.218 19.7895 113.843 20.3359 112.876 21.4287C111.916 22.5214 111.436 24.0694 111.436 26.0728C111.436 28.0252 111.908 29.5368 112.854 30.6077Z" fill="#090E11"/>
<path fill-rule="evenodd" clip-rule="evenodd" d="M126.908 32.2031C125.14 32.2031 123.744 31.664 122.718 30.5858C121.7 29.5077 121.191 28.0106 121.191 26.0947C121.191 24.1642 121.663 22.6307 122.609 21.4942C123.562 20.3578 124.838 19.7895 126.439 19.7895C127.937 19.7895 129.123 20.2849 129.995 21.2757C130.868 22.2591 131.305 23.5595 131.305 25.1768V26.3241H123.067C123.104 27.7301 123.456 28.7974 124.125 29.5259C124.802 30.2544 125.751 30.6186 126.973 30.6186C128.261 30.6186 129.533 30.3491 130.792 29.81V31.4272C130.152 31.7041 129.544 31.9008 128.97 32.0173C128.402 32.1412 127.715 32.2031 126.908 32.2031ZM126.417 21.3085C125.457 21.3085 124.689 21.6217 124.115 22.2482C123.547 22.8747 123.213 23.7416 123.111 24.8489H129.363C129.363 23.7052 129.108 22.831 128.599 22.2264C128.09 21.6144 127.362 21.3085 126.417 21.3085Z" fill="#090E11"/>
<path d="M139.979 31.2961C140.809 30.6915 141.223 29.8318 141.223 28.7172C141.223 27.9232 140.972 27.2639 140.47 26.7394C139.976 26.2149 139.019 25.694 137.601 25.1768C136.568 24.7907 135.87 24.4956 135.506 24.2916C135.142 24.0877 134.877 23.8728 134.71 23.6469C134.55 23.4211 134.47 23.1479 134.47 22.8274C134.47 22.3538 134.688 21.9823 135.124 21.7128C135.561 21.4432 136.208 21.3085 137.066 21.3085C138.041 21.3085 139.128 21.5561 140.329 22.0515L140.972 20.5763C139.743 20.0518 138.485 19.7895 137.197 19.7895C135.815 19.7895 134.728 20.0737 133.935 20.6419C133.142 21.2028 132.746 21.9714 132.746 22.9476C132.746 23.4939 132.858 23.9638 133.084 24.3572C133.317 24.7506 133.666 25.1039 134.131 25.4172C134.604 25.7231 135.397 26.0837 136.51 26.499C137.681 26.9506 138.466 27.344 138.867 27.6791C139.274 28.007 139.478 28.404 139.478 28.8702C139.478 29.4894 139.223 29.952 138.714 30.258C138.205 30.5567 137.477 30.706 136.532 30.706C135.921 30.706 135.284 30.6223 134.622 30.4547C133.968 30.2871 133.353 30.0577 132.778 29.7663V31.4491C133.666 31.9518 134.902 32.2031 136.488 32.2031C137.986 32.2031 139.15 31.9008 139.979 31.2961Z" fill="#090E11"/>
<path d="M151 28.7172C151 29.8318 150.585 30.6915 149.756 31.2961C148.927 31.9008 147.763 32.2031 146.265 32.2031C144.679 32.2031 143.443 31.9518 142.555 31.4491V29.7663C143.13 30.0577 143.744 30.2871 144.399 30.4547C145.061 30.6223 145.697 30.706 146.308 30.706C147.254 30.706 147.981 30.5567 148.491 30.258C149 29.952 149.254 29.4894 149.254 28.8702C149.254 28.404 149.051 28.007 148.643 27.6791C148.243 27.344 147.458 26.9506 146.287 26.499C145.174 26.0837 144.381 25.7231 143.908 25.4172C143.443 25.1039 143.093 24.7506 142.861 24.3572C142.635 23.9638 142.522 23.4939 142.522 22.9476C142.522 21.9714 142.919 21.2028 143.712 20.6419C144.505 20.0737 145.592 19.7895 146.974 19.7895C148.261 19.7895 149.52 20.0518 150.749 20.5763L150.105 22.0515C148.905 21.5561 147.818 21.3085 146.843 21.3085C145.985 21.3085 145.337 21.4432 144.901 21.7128C144.465 21.9823 144.246 22.3538 144.246 22.8274C144.246 23.1479 144.326 23.4211 144.486 23.6469C144.654 23.8728 144.919 24.0877 145.283 24.2916C145.647 24.4956 146.345 24.7907 147.378 25.1768C148.796 25.694 149.753 26.2149 150.247 26.7394C150.749 27.2639 151 27.9232 151 28.7172Z" fill="#090E11"/>
<path d="M55.9822 15.8939H52.5672L49.545 25.4007C49.0795 27.0763 48.8067 28.2491 48.7267 28.9193C48.6831 28.6279 48.5703 28.1107 48.3885 27.3677C48.2139 26.6173 48.043 25.9617 47.8757 25.4007L44.8753 15.8939H41.4602L46.8719 31.8698H50.5597L55.9822 15.8939Z" fill="#090E11"/>
<path fill-rule="evenodd" clip-rule="evenodd" d="M57.7615 30.4601C58.8671 31.5456 60.4019 32.0883 62.3658 32.0883C63.3187 32.0883 64.1261 32.0154 64.788 31.8698C65.4499 31.7313 66.0718 31.5164 66.6537 31.225V28.6462C65.9408 28.9813 65.2571 29.2253 64.6025 29.3783C63.9478 29.5313 63.2532 29.6078 62.5186 29.6078C61.573 29.6078 60.8383 29.3419 60.3146 28.8101C59.7909 28.2783 59.5109 27.5388 59.4745 26.5918H67.341V24.9745C67.341 23.2407 66.861 21.8821 65.9008 20.8986C64.9407 19.9152 63.5987 19.4234 61.8748 19.4234C60.0709 19.4234 58.6562 19.9844 57.6306 21.1062C56.6123 22.2208 56.1031 23.8017 56.1031 25.8487C56.1031 27.8375 56.6559 29.3747 57.7615 30.4601ZM60.2382 22.4722C60.6383 22.0205 61.1911 21.7947 61.8967 21.7947C62.6022 21.7947 63.1623 22.0205 63.5769 22.4722C63.9915 22.9165 64.2061 23.5503 64.2206 24.3735H59.5509C59.6091 23.5503 59.8382 22.9165 60.2382 22.4722Z" fill="#090E11"/>
<path d="M74.292 29.4329C74.8739 29.4329 75.5721 29.3054 76.3868 29.0505V31.531C75.5576 31.9025 74.5393 32.0883 73.3318 32.0883C72.0007 32.0883 71.0297 31.7532 70.4187 31.083C69.815 30.4055 69.5131 29.3929 69.5131 28.0452V22.1553H67.9202V21.6187L69.7532 19.631L72.1448 17.0522H72.8409V19.6529H76.2559V22.1553H72.8409V28.0452C72.8409 28.5187 72.9718 28.8684 73.2336 29.0942C73.5028 29.32 73.8555 29.4329 74.292 29.4329Z" fill="#090E11"/>
<path d="M0.0201503 23.2738C0.620692 27.136 12.1035 36.9199 14.278 36.9199C20.1725 19.0546 31.9656 9.72983 38.1686 7.52992C30.7203 13.1247 20.1703 26.1479 17.0668 42C8.57142 42 -0.484262 34.0185 0.0201503 23.2738Z" fill="#090E11"/>
</svg>
