<svg width="64" height="64" viewBox="0 0 64 64" fill="none" xmlns="http://www.w3.org/2000/svg">
<path d="M18.0143 26.7586C18.0143 27.5488 18.0995 28.1896 18.2485 28.6594C18.4188 29.1293 18.6316 29.6418 18.9296 30.1971C19.036 30.368 19.0786 30.5388 19.0786 30.6883C19.0786 30.9019 18.9509 31.1155 18.6742 31.329L17.3332 32.226C17.1416 32.3542 16.9501 32.4182 16.7798 32.4182C16.5669 32.4182 16.3541 32.3115 16.1412 32.1192C15.8432 31.7989 15.5878 31.4572 15.375 31.1155C15.1621 30.7524 14.9492 30.3466 14.7151 29.8554C13.0548 31.8202 10.9689 32.8027 8.4572 32.8027C6.66923 32.8027 5.2431 32.2901 4.20012 31.265C3.15713 30.2398 2.625 28.873 2.625 27.1644C2.625 25.3491 3.26356 23.8754 4.56197 22.7649C5.86038 21.6543 7.5845 21.099 9.77689 21.099C10.5006 21.099 11.2456 21.1631 12.0331 21.2699C12.8207 21.3767 13.6296 21.5475 14.481 21.7397V20.1807C14.481 18.5575 14.1404 17.4256 13.4806 16.7635C12.7994 16.1015 11.65 15.7811 10.011 15.7811C9.26604 15.7811 8.49977 15.8666 7.71221 16.0588C6.92465 16.251 6.15838 16.4859 5.41339 16.7849C5.07282 16.9344 4.8174 17.0198 4.6684 17.0625C4.5194 17.1053 4.41297 17.1266 4.32783 17.1266C4.02984 17.1266 3.88084 16.913 3.88084 16.4645V15.4181C3.88084 15.0763 3.92341 14.8201 4.02984 14.6706C4.13626 14.5211 4.32783 14.3716 4.62583 14.2221C5.37082 13.8376 6.2648 13.5173 7.30779 13.261C8.35077 12.9834 9.45761 12.8552 10.6283 12.8552C13.1613 12.8552 15.0131 13.4319 16.2051 14.5851C17.3758 15.7384 17.9718 17.4897 17.9718 19.839V26.7586H18.0143ZM9.37247 30.0049C10.0749 30.0049 10.7986 29.8768 11.5649 29.6205C12.3311 29.3642 13.0123 28.8943 13.587 28.2536C13.9275 27.8478 14.183 27.3993 14.3107 26.8868C14.4384 26.3742 14.5235 25.7549 14.5235 25.0287V24.1317C13.9063 23.9822 13.2464 23.8541 12.5653 23.7686C11.8841 23.6832 11.2243 23.6405 10.5645 23.6405C9.13833 23.6405 8.09535 23.9181 7.39293 24.4948C6.69051 25.0714 6.34995 25.883 6.34995 26.9508C6.34995 27.9546 6.60537 28.7021 7.1375 29.2147C7.64835 29.7486 8.39334 30.0049 9.37247 30.0049ZM26.4646 32.3115C26.0815 32.3115 25.8261 32.2474 25.6558 32.0979C25.4855 31.9697 25.3365 31.6707 25.2088 31.265L20.2067 14.756C20.079 14.3288 20.0152 14.0512 20.0152 13.9017C20.0152 13.56 20.1855 13.3678 20.526 13.3678H22.612C23.0164 13.3678 23.2931 13.4319 23.4421 13.5814C23.6124 13.7095 23.7401 14.0085 23.8678 14.4143L27.4438 28.5526L30.7643 14.4143C30.8707 13.9871 30.9984 13.7095 31.1687 13.5814C31.339 13.4532 31.637 13.3678 32.0201 13.3678H33.723C34.1274 13.3678 34.4041 13.4319 34.5744 13.5814C34.7447 13.7095 34.8937 14.0085 34.9788 14.4143L38.3419 28.7235L42.0243 14.4143C42.152 13.9871 42.301 13.7095 42.45 13.5814C42.6203 13.4532 42.897 13.3678 43.2801 13.3678H45.2597C45.6002 13.3678 45.7918 13.5386 45.7918 13.9017C45.7918 14.0085 45.7705 14.1153 45.7492 14.2434C45.7279 14.3716 45.6854 14.5424 45.6002 14.7773L40.4704 31.2863C40.3427 31.7135 40.1937 31.9911 40.0234 32.1192C39.8532 32.2474 39.5765 32.3328 39.2146 32.3328H37.3841C36.9796 32.3328 36.7029 32.2687 36.5326 32.1192C36.3624 31.9697 36.2134 31.6921 36.1282 31.265L32.829 17.4897L29.551 31.2436C29.4446 31.6707 29.3169 31.9484 29.1466 32.0979C28.9763 32.2474 28.6783 32.3115 28.2952 32.3115H26.4646ZM53.8164 32.8881C52.7095 32.8881 51.6027 32.76 50.5384 32.5037C49.4742 32.2474 48.644 31.9697 48.0906 31.6494C47.75 31.4572 47.5159 31.2436 47.4308 31.0514C47.3456 30.8592 47.3031 30.6456 47.3031 30.4534V29.3642C47.3031 28.9157 47.4733 28.7021 47.7926 28.7021C47.9203 28.7021 48.048 28.7235 48.1758 28.7662C48.3035 28.8089 48.495 28.8943 48.7079 28.9798C49.4316 29.3001 50.2192 29.5564 51.0493 29.7273C51.9007 29.8981 52.7308 29.9835 53.5822 29.9835C54.9232 29.9835 55.9662 29.7486 56.6899 29.2788C57.4136 28.8089 57.7968 28.1255 57.7968 27.2498C57.7968 26.6518 57.6052 26.1606 57.222 25.7549C56.8389 25.3491 56.1152 24.986 55.0722 24.6443L51.9858 23.6832C50.432 23.192 49.2826 22.4659 48.5802 21.5048C47.8778 20.5651 47.5159 19.5186 47.5159 18.408C47.5159 17.511 47.7075 16.7208 48.0906 16.0374C48.4738 15.354 48.9846 14.756 49.6232 14.2861C50.2617 13.7949 50.9854 13.4319 51.8368 13.1756C52.6883 12.9193 53.5822 12.8125 54.5188 12.8125C54.9871 12.8125 55.4766 12.8339 55.9449 12.8979C56.4345 12.962 56.8815 13.0474 57.3285 13.1329C57.7542 13.2396 58.1586 13.3464 58.5417 13.4746C58.9249 13.6027 59.2229 13.7309 59.4357 13.859C59.7337 14.0298 59.9466 14.2007 60.0743 14.3929C60.202 14.5638 60.2659 14.7987 60.2659 15.0977V16.1015C60.2659 16.55 60.0956 16.7849 59.7763 16.7849C59.606 16.7849 59.3293 16.6995 58.9674 16.5286C57.7542 15.9733 56.3919 15.6957 54.8807 15.6957C53.6674 15.6957 52.7095 15.8879 52.0497 16.2937C51.3899 16.6995 51.0493 17.3188 51.0493 18.1945C51.0493 18.7925 51.2621 19.305 51.6878 19.7108C52.1136 20.1166 52.9011 20.5224 54.0292 20.8855L57.0518 21.8465C58.5843 22.3377 59.6912 23.0212 60.351 23.8968C61.0108 24.7724 61.3301 25.7762 61.3301 26.8868C61.3301 27.8051 61.1386 28.638 60.7767 29.3642C60.3936 30.0903 59.8827 30.731 59.2229 31.2436C58.563 31.7775 57.7755 32.162 56.8602 32.4396C55.9024 32.7386 54.9019 32.8881 53.8164 32.8881Z" fill="currentColor"/>
<path fill-rule="evenodd" clip-rule="evenodd" d="M57.8605 43.2446C50.8576 48.4344 40.6832 51.1895 31.9349 51.1895C19.6745 51.1895 8.6274 46.6404 0.283525 39.08C-0.376322 38.482 0.219669 37.6705 1.00723 38.1403C10.0322 43.3942 21.1645 46.5763 32.6799 46.5763C40.4491 46.5763 48.9845 44.9532 56.8388 41.6215C58.0095 41.0876 59.0099 42.3904 57.8605 43.2446Z" fill="currentColor"/>
<path fill-rule="evenodd" clip-rule="evenodd" d="M60.7724 39.9339C59.8784 38.7806 54.8551 39.3786 52.5776 39.6562C51.8964 39.7416 51.79 39.1436 52.4073 38.6951C56.4089 35.876 62.9861 36.6876 63.7524 37.6273C64.5187 38.5884 63.5395 45.1877 59.7933 48.3485C59.2186 48.8397 58.6652 48.5834 58.9206 47.9427C59.772 45.8284 61.6664 41.0658 60.7724 39.9339Z" fill="currentColor"/>
</svg>
