<svg width="64" height="64" viewBox="0 0 64 64" fill="none" xmlns="http://www.w3.org/2000/svg">
<path d="M29.608 53.2328C37.8305 51.8397 44.6218 50.6869 44.6998 50.6711L44.8416 50.6422L37.0788 41.7864C32.8092 36.9158 29.3159 32.9118 29.3159 32.8887C29.3159 32.845 37.3317 11.6746 37.3768 11.5993C37.3919 11.5741 42.8469 20.6066 50.6001 33.4946C57.8588 45.5606 63.8432 55.509 63.8989 55.6022L64 55.7717L39.329 55.7687L14.658 55.7657L29.608 53.2328ZM0 50.5322C0 50.5197 3.65783 44.4299 8.1285 36.9992L16.257 23.489L25.7298 15.8647C30.9399 11.6714 35.2167 8.23532 35.2338 8.22905C35.251 8.22279 35.1824 8.38823 35.0815 8.5967C34.9806 8.80517 30.3518 18.3271 24.7954 29.7565L14.6927 50.5372L7.34634 50.546C3.30586 50.5509 0 50.5447 0 50.5322Z" fill="currentColor"/>
</svg>
