<svg width="64" height="64" viewBox="0 0 64 64" fill="none" xmlns="http://www.w3.org/2000/svg">
<path d="M63.3767 26.3468C63.1986 26.1968 61.5957 24.9671 58.1525 24.9671C57.262 24.9671 56.3418 25.0571 55.4514 25.207C54.7983 20.618 51.0286 18.3985 50.8802 18.2785L49.96 17.7386L49.3664 18.6085C48.6243 19.7782 48.0603 21.0979 47.7338 22.4476C47.1105 25.0571 47.4964 27.5165 48.8024 29.6161C47.2292 30.5159 44.6765 30.7258 44.1422 30.7558H1.99262C0.894358 30.7558 0.00387411 31.6556 0.00387411 32.7654C-0.0554915 36.4846 0.567847 40.2038 1.84421 43.713C3.29867 47.5522 5.46551 50.4016 8.25569 52.1412C11.4021 54.0908 16.5372 55.2005 22.3253 55.2005C24.9374 55.2005 27.5495 54.9606 30.1319 54.4807C33.7235 53.8208 37.1667 52.5611 40.3428 50.7315C42.9549 49.2018 45.2998 47.2523 47.2886 44.9727C50.6427 41.1636 52.6315 36.9045 54.0859 33.1253C54.2937 33.1253 54.4718 33.1253 54.6796 33.1253C58.3306 33.1253 60.5865 31.6556 61.8332 30.3959C62.6643 29.6161 63.2876 28.6563 63.7329 27.5765L64 26.7967L63.3767 26.3468Z" fill="currentColor"/>
<path d="M5.92258 29.5258H11.5623C11.8295 29.5258 12.0669 29.3158 12.0669 29.0159V23.917C12.0669 23.647 11.8591 23.4071 11.5623 23.4071H5.92258C5.65543 23.4071 5.41797 23.6171 5.41797 23.917V29.0159C5.44765 29.3158 5.65543 29.5258 5.92258 29.5258Z" fill="currentColor"/>
<path d="M13.696 29.5258H19.3357C19.6029 29.5258 19.8404 29.3158 19.8404 29.0159V23.917C19.8404 23.647 19.6326 23.4071 19.3357 23.4071H13.696C13.4289 23.4071 13.1914 23.6171 13.1914 23.917V29.0159C13.2211 29.3158 13.4289 29.5258 13.696 29.5258Z" fill="currentColor"/>
<path d="M21.6062 29.5258H27.2459C27.513 29.5258 27.7505 29.3158 27.7505 29.0159V23.917C27.7505 23.647 27.5427 23.4071 27.2459 23.4071H21.6062C21.339 23.4071 21.1016 23.6171 21.1016 23.917V29.0159C21.1016 29.3158 21.3093 29.5258 21.6062 29.5258Z" fill="currentColor"/>
<path d="M29.4226 29.5258H35.0623C35.3295 29.5258 35.5669 29.3158 35.5669 29.0159V23.917C35.5669 23.647 35.3591 23.4071 35.0623 23.4071H29.4226C29.1554 23.4071 28.918 23.6171 28.918 23.917V29.0159C28.918 29.3158 29.1554 29.5258 29.4226 29.5258Z" fill="currentColor"/>
<path d="M13.696 22.2365H19.3357C19.6029 22.2365 19.8404 21.9965 19.8404 21.7266V16.6277C19.8404 16.3577 19.6326 16.1178 19.3357 16.1178H13.696C13.4289 16.1178 13.1914 16.3278 13.1914 16.6277V21.7266C13.2211 21.9965 13.4289 22.2365 13.696 22.2365Z" fill="currentColor"/>
<path d="M21.6062 22.2365H27.2459C27.513 22.2365 27.7505 21.9965 27.7505 21.7266V16.6277C27.7505 16.3577 27.5427 16.1178 27.2459 16.1178H21.6062C21.339 16.1178 21.1016 16.3278 21.1016 16.6277V21.7266C21.1016 21.9965 21.3093 22.2365 21.6062 22.2365Z" fill="currentColor"/>
<path d="M29.4226 22.2365H35.0623C35.3295 22.2365 35.5669 21.9965 35.5669 21.7266V16.6277C35.5669 16.3577 35.3295 16.1178 35.0623 16.1178H29.4226C29.1554 16.1178 28.918 16.3278 28.918 16.6277V21.7266C28.918 21.9965 29.1554 22.2365 29.4226 22.2365Z" fill="currentColor"/>
<path d="M29.4226 14.9185H35.0623C35.3295 14.9185 35.5669 14.7085 35.5669 14.4086V9.3097C35.5669 9.03976 35.3295 8.7998 35.0623 8.7998H29.4226C29.1554 8.7998 28.918 9.00976 28.918 9.3097V14.4086C28.918 14.6785 29.1554 14.9185 29.4226 14.9185Z" fill="currentColor"/>
<path d="M37.282 29.5258H42.9217C43.1888 29.5258 43.4263 29.3158 43.4263 29.0159V23.917C43.4263 23.647 43.2185 23.4071 42.9217 23.4071H37.282C37.0148 23.4071 36.7773 23.6171 36.7773 23.917V29.0159C36.807 29.3158 37.0148 29.5258 37.282 29.5258Z" fill="currentColor"/>
</svg>
