<svg width="64" height="64" viewBox="0 0 64 64" fill="none" xmlns="http://www.w3.org/2000/svg">
<path d="M39.9644 21.5752H41.7696L46.9151 16.5647L47.1674 14.4366C37.5906 6.20458 22.975 7.09388 14.5211 16.4194C12.1722 19.0077 10.4701 22.0908 9.53906 25.4265C10.1112 25.1981 10.7473 25.1601 11.3443 25.3227L21.6353 23.6687C21.6353 23.6687 22.1576 22.8244 22.4313 22.8763C27.0082 17.98 34.7123 17.409 39.9999 21.5752H39.9644Z" fill="currentColor"/>
<path d="M54.2478 25.427C53.0645 21.1847 50.6374 17.3715 47.2616 14.4579L40.0408 21.4892C43.0897 23.9149 44.8274 27.5724 44.7528 31.4064V32.6556C48.3027 32.6556 51.1811 35.4584 51.1811 38.9152C51.1811 42.3721 48.3027 45.1749 44.7528 45.1749H31.8961L30.6133 46.4414V53.9502L31.8961 55.1994H44.7528C53.9848 55.2686 61.529 48.0366 61.6 39.0467C61.6427 33.5864 58.8816 28.479 54.2478 25.427Z" fill="currentColor"/>
<path d="M19.0217 55.1188H31.8784V45.0977H19.0217C18.1049 45.0977 17.2023 44.9039 16.3672 44.5337L14.562 45.0804L9.38099 50.0909L8.92969 51.8488C11.8329 53.9872 15.3793 55.1361 19.0217 55.1188Z" fill="currentColor"/>
<path d="M19.0186 22.6126C9.78295 22.6645 2.34542 29.9968 2.39872 38.9901C2.4307 44.011 4.83644 48.7378 8.92655 51.7967L16.3819 44.537C13.1481 43.1148 11.709 39.4054 13.1695 36.2565C14.63 33.1076 18.4393 31.7062 21.6731 33.1284C23.098 33.7547 24.2387 34.8689 24.8854 36.2565L32.3407 28.9968C29.171 24.9552 24.2387 22.5918 19.0186 22.6126Z" fill="currentColor"/>
</svg>
