<svg width="64" height="64" viewBox="0 0 64 64" fill="none" xmlns="http://www.w3.org/2000/svg">
<path d="M61.4784 35.9036L58.1623 25.7375L51.6004 5.57305C51.5248 5.34809 51.3803 5.1525 51.1873 5.01392C50.9942 4.87534 50.7624 4.80078 50.5245 4.80078C50.2867 4.80078 50.0549 4.87534 49.8618 5.01392C49.6688 5.1525 49.5242 5.34809 49.4487 5.57305L42.8903 25.7252H21.086L14.5241 5.57305C14.4485 5.34809 14.304 5.1525 14.111 5.01392C13.9179 4.87534 13.6861 4.80078 13.4482 4.80078C13.2104 4.80078 12.9786 4.87534 12.7855 5.01392C12.5925 5.1525 12.448 5.34809 12.3724 5.57305L5.82273 25.7252L2.50493 35.9036C2.35789 36.3555 2.35773 36.8423 2.50448 37.2943C2.65123 37.7463 2.93739 38.1405 3.32211 38.4207L31.9864 59.2008L60.6507 38.4207C61.0371 38.1417 61.3251 37.7481 61.4738 37.296C61.6224 36.844 61.6241 36.3566 61.4784 35.9036Z" fill="currentColor"/>
<path d="M32.0136 59.1815L42.9105 25.7234H21.1133L32.0136 59.1815Z" fill="currentColor"/>
<path d="M32.0121 59.1837L21.1118 25.7239H5.85547L32.0121 59.1837Z" fill="currentColor"/>
<path d="M5.81883 25.7352L2.50102 35.9014C2.35398 36.3533 2.35382 36.84 2.50057 37.292C2.64732 37.7441 2.93348 38.1383 3.3182 38.4184L31.9825 59.2003L5.81883 25.7352Z" fill="currentColor"/>
<path d="M5.82422 25.735H21.0998L14.5256 5.58282C14.45 5.35786 14.3055 5.16227 14.1125 5.02369C13.9194 4.88511 13.6876 4.81055 13.4497 4.81055C13.2119 4.81055 12.9801 4.88511 12.787 5.02369C12.5939 5.16227 12.4494 5.35786 12.3739 5.58282L5.82422 25.735Z" fill="currentColor"/>
<path d="M32.0039 59.1835L42.9008 25.7236H58.1746L32.0039 59.1835Z" fill="currentColor"/>
<path d="M58.1676 25.7352L61.4871 35.9014C61.6342 36.3533 61.6343 36.84 61.4876 37.292C61.3408 37.7441 61.0547 38.1383 60.6699 38.4184L32.0039 59.1811L58.1676 25.7352Z" fill="currentColor"/>
<path d="M58.168 25.7347H42.8906L49.4526 5.58258C49.5281 5.35761 49.6726 5.16202 49.8657 5.02344C50.0587 4.88486 50.2906 4.8103 50.5284 4.8103C50.7663 4.8103 50.9981 4.88486 51.1911 5.02344C51.3842 5.16202 51.5287 5.35761 51.6042 5.58258L58.1662 25.7347H58.168Z" fill="currentColor"/>
</svg>
