<svg width="98" height="38" viewBox="0 0 98 38" fill="none" xmlns="http://www.w3.org/2000/svg">
<path d="M7.39213 11.8148C7.20258 11.8148 7.15519 11.719 7.24997 11.5753L8.24513 10.2819C8.33991 10.1382 8.57685 10.0424 8.76641 10.0424H25.6842C25.8738 10.0424 25.9211 10.1861 25.8264 10.3298L25.0208 11.5753C24.926 11.719 24.689 11.8627 24.5469 11.8627L7.39213 11.8148ZM0.23643 16.2218C0.046875 16.2218 -0.000513773 16.126 0.0942638 15.9823L1.08943 14.6889C1.18421 14.5452 1.42115 14.4494 1.6107 14.4494H23.22C23.4095 14.4494 23.5043 14.5931 23.4569 14.7368L23.0778 15.8865C23.0304 16.0781 22.8409 16.1739 22.6513 16.1739L0.23643 16.2218ZM11.7045 20.6288C11.515 20.6288 11.4676 20.4851 11.5623 20.3414L12.2258 19.1438C12.3206 19.0001 12.5101 18.8564 12.6997 18.8564H22.1774C22.367 18.8564 22.4618 19.0001 22.4618 19.1917L22.367 20.3414C22.367 20.533 22.1774 20.6767 22.0353 20.6767L11.7045 20.6288ZM60.8941 10.9526C57.9086 11.719 55.8708 12.2938 52.9327 13.0602C52.2219 13.2519 52.1745 13.2998 51.5585 12.5812C50.8476 11.7669 50.3264 11.24 49.3312 10.7609C46.3457 9.27598 43.455 9.7071 40.7538 11.4795C37.5314 13.5872 35.8728 16.7008 35.9202 20.5809C35.9676 24.413 38.5739 27.5746 42.3177 28.1015C45.5401 28.5326 48.2413 27.383 50.3737 24.94C50.8002 24.413 51.1794 23.8382 51.6532 23.1676H42.5072C41.5121 23.1676 41.2751 22.5449 41.6068 21.7305C42.2229 20.2456 43.3602 17.7547 44.0237 16.5092C44.1658 16.2218 44.4975 15.7428 45.2084 15.7428H62.4579C62.3631 17.0361 62.3631 18.3295 62.1736 19.6228C61.6523 23.0718 60.3728 26.2333 58.2877 29.0116C54.8757 33.5623 50.4211 36.3886 44.7819 37.155C40.1378 37.7777 35.8254 36.8676 32.0343 33.9935C28.5275 31.3109 26.5372 27.7662 26.0159 23.3592C25.3999 18.1379 26.9163 13.4435 30.044 9.32388C33.4086 4.86898 37.8631 2.04276 43.3128 1.03682C47.7674 0.222481 52.0324 0.749404 55.8708 3.38402C58.3825 5.06059 60.1832 7.35989 61.3679 10.1382C61.6523 10.5693 61.4627 10.8088 60.8941 10.9526Z" fill="currentColor"/>
<path d="M76.5797 37.4422C72.2673 37.3464 68.334 36.1009 65.0168 33.2268C62.2209 30.7838 60.4675 27.6702 59.8988 23.9817C59.0458 18.5688 60.5149 13.7786 63.7373 9.51528C67.1967 4.91668 71.3669 2.52157 77.0062 1.51563C81.8398 0.653394 86.3891 1.13241 90.512 3.95864C94.2557 6.54535 96.5777 10.0422 97.1938 14.6408C97.9994 21.1076 96.1512 26.3768 91.7441 30.8796C88.6164 34.0891 84.7779 36.1009 80.3708 37.0111C79.0913 37.2506 77.8118 37.2985 76.5797 37.4422ZM87.8582 18.0898C87.8108 17.467 87.8108 16.988 87.716 16.509C86.863 11.7667 82.5507 9.08416 78.0487 10.138C73.6416 11.144 70.7982 13.9702 69.7557 18.473C68.9027 22.2093 70.7035 25.9936 74.1155 27.5265C76.7218 28.6761 79.3282 28.5324 81.8398 27.2391C85.5835 25.2751 87.6213 22.2093 87.8582 18.0898Z" fill="currentColor"/>
</svg>
