<svg width="64" height="82" viewBox="0 0 64 82" fill="none" xmlns="http://www.w3.org/2000/svg">
<path d="M20.6128 63.4158C20.6128 63.4158 17.2967 65.238 22.9728 65.8547C29.8493 66.596 33.3637 66.4896 40.9416 65.1344C40.9416 65.1344 42.9339 66.3148 45.7163 67.3372C28.7287 74.217 7.26994 66.9387 20.6128 63.4158Z" fill="currentColor"/>
<path d="M18.5259 54.4363C18.5259 54.4363 14.8066 57.0378 20.4869 57.593C27.8325 58.3091 33.6335 58.3677 43.6715 56.5412C43.6715 56.5412 45.0599 57.8713 47.2431 58.5987C26.704 64.2739 3.82715 59.0462 18.5259 54.4363Z" fill="currentColor"/>
<path d="M36.0345 39.2083C40.2203 43.7621 34.9348 47.8599 34.9348 47.8599C34.9348 47.8599 45.5631 42.6753 40.682 36.1831C36.1232 30.1286 32.6272 27.1204 51.5531 16.7484C51.5531 16.7484 21.8457 23.7594 36.0345 39.2083Z" fill="currentColor"/>
<path d="M58.5034 70.0558C58.5034 70.0558 60.9574 71.9665 55.8007 73.4446C45.9952 76.2515 14.9892 77.0991 6.37587 73.5565C3.27959 72.2837 9.08598 70.5173 10.9125 70.1467C12.8173 69.7564 13.9058 69.8291 13.9058 69.8291C10.4624 67.5369 -8.35074 74.3298 4.34965 76.2752C38.9855 81.5828 67.4874 73.8851 58.5034 70.0558Z" fill="currentColor"/>
<path d="M22.2065 45.1349C22.2065 45.1349 6.43481 48.6747 16.6213 49.9601C20.9224 50.5042 29.4964 50.3811 37.4829 49.7488C44.01 49.2286 50.5639 48.1224 50.5639 48.1224C50.5639 48.1224 48.2624 49.0537 46.5973 50.1281C30.5815 54.1083 -0.358141 52.2567 8.54897 48.1854C16.0817 44.7446 22.2065 45.1349 22.2065 45.1349Z" fill="currentColor"/>
<path d="M50.503 60.0784C66.7838 52.0841 59.2562 44.4016 54.002 45.4366C52.7142 45.6899 52.14 45.9094 52.14 45.9094C52.14 45.9094 52.6181 45.2017 53.5312 44.8954C63.9256 41.4423 71.9196 55.0799 50.1758 60.4813C50.1758 60.4815 50.4277 60.2687 50.503 60.0784Z" fill="currentColor"/>
<path d="M40.6766 0C40.6766 0 49.6932 8.52296 32.1248 21.6289C18.0367 32.1421 28.9122 38.1364 32.1189 44.9852C23.8955 37.9742 17.8606 31.8024 21.9093 26.0582C27.8518 17.6263 44.3146 13.5382 40.6766 0Z" fill="currentColor"/>
<path d="M23.8035 81.7423C39.4311 82.6876 63.429 81.2178 63.9973 74.2305C63.9973 74.2305 62.9048 76.8793 51.082 78.9829C37.7436 81.3549 21.2925 81.0779 11.5352 79.5578C11.5354 79.5576 13.5326 81.1199 23.8035 81.7423Z" fill="currentColor"/>
</svg>
