<svg width="64" height="64" viewBox="0 0 64 64" fill="none" xmlns="http://www.w3.org/2000/svg">
<path opacity="0.95" d="M60.7464 38.8607C60.6549 38.8607 60.5634 38.8607 60.5634 38.7705C60.5634 38.6802 60.3803 38.6802 60.1973 38.6802C59.8312 38.59 59.4651 38.59 59.0991 38.59C58.916 38.59 58.733 38.59 58.5499 38.4998H58.4584C57.4517 38.4095 56.3535 38.2291 55.3468 37.9584C55.0722 37.8681 54.7976 37.5974 54.7061 37.3267C54.7976 37.3267 54.7061 37.3267 54.7061 37.3267L53.974 37.1462C54.34 34.5294 54.157 31.8223 53.6079 29.2055C52.9673 26.5886 51.869 24.062 50.4047 21.8061L50.9538 21.2647V21.1745C50.9538 20.9037 51.0453 20.5428 51.2284 20.3623C52.0521 19.6404 52.8757 19.099 53.7909 18.5576C53.974 18.4674 54.157 18.3771 54.34 18.2869C54.7061 18.1064 54.9807 17.926 55.3468 17.7455C55.4383 17.6552 55.5298 17.6552 55.6213 17.565C55.7128 17.4748 55.6213 17.4748 55.6213 17.3845C56.445 16.7529 56.628 15.6701 55.9874 14.8579C55.7128 14.497 55.1637 14.2263 54.7061 14.2263C54.2485 14.2263 53.7909 14.4068 53.4249 14.6775L53.3333 14.7677C53.2418 14.8579 53.1503 14.9482 53.0588 14.9482C52.7842 15.2189 52.5097 15.4896 52.3266 15.7603C52.2351 15.9408 52.0521 16.031 51.9605 16.1212C51.3199 16.8431 50.4962 17.565 49.6726 18.1064C49.4895 18.1967 49.3065 18.2869 49.1234 18.2869C49.0319 18.2869 48.8489 18.2869 48.7574 18.1967H48.6658L47.9337 18.6478C47.2015 17.926 46.3779 17.2041 45.6457 16.4822C42.2595 13.8653 38.0496 12.2411 33.7482 11.7899L33.6567 11.068V11.1583C33.3821 10.9778 33.2906 10.7071 33.1991 10.4364C33.1991 9.44377 33.1991 8.45117 33.3821 7.36834V7.27811C33.3821 7.09763 33.4736 6.91716 33.4736 6.73669C33.5652 6.37575 33.5652 6.0148 33.6567 5.65386V5.11244C33.7482 4.21008 33.016 3.30772 32.1009 3.21748C31.5517 3.12725 31.0026 3.39796 30.545 3.84914C30.1789 4.21008 29.9959 4.66126 29.9959 5.11244V5.56362C29.9959 5.92457 30.0874 6.28551 30.1789 6.64645C30.2705 6.82693 30.2705 7.0074 30.2705 7.18787V7.27811C30.4535 8.2707 30.4535 9.2633 30.4535 10.3461C30.362 10.6168 30.2705 10.8875 29.9959 11.068V11.2485L29.9044 11.9704C28.8977 12.0606 27.891 12.2411 26.7927 12.4216C22.4913 13.3239 18.556 15.5798 15.5359 18.7381L14.9867 18.3771H14.8952C14.8037 18.3771 14.7122 18.4674 14.5291 18.4674C14.3461 18.4674 14.1631 18.3771 13.98 18.2869C13.1564 17.6552 12.3327 16.9334 11.692 16.2115C11.6005 16.031 11.4175 15.9408 11.326 15.8505C11.0514 15.5798 10.8684 15.3091 10.5938 15.0384C10.5023 14.9482 10.4108 14.9482 10.3193 14.8579C10.2277 14.7677 10.2277 14.7677 10.2277 14.7677C9.86166 14.497 9.40406 14.3165 8.94646 14.3165C8.39735 14.3165 7.93975 14.497 7.66519 14.9482C7.11608 15.7603 7.29911 16.8431 8.03127 17.4748C8.12279 17.4748 8.12279 17.565 8.12279 17.565C8.12279 17.565 8.30583 17.7455 8.39735 17.7455C8.6719 17.926 9.03798 18.1064 9.40406 18.2869C9.5871 18.3771 9.77014 18.4674 9.95317 18.5576C10.8684 19.099 11.7836 19.6404 12.5157 20.3623C12.6988 20.5428 12.8818 20.9037 12.7903 21.1745V21.0842L13.3394 21.6256C13.2479 21.8061 13.1564 21.8963 13.0648 22.0768C10.2277 26.4984 9.03798 31.7321 9.86166 36.8755L9.1295 37.056C9.1295 37.1462 9.03798 37.1462 9.03798 37.1462C8.94646 37.4169 8.6719 37.5974 8.39735 37.7779C7.39063 38.0486 6.38392 38.2291 5.28569 38.3193C5.10265 38.3193 4.91961 38.3193 4.73657 38.4095C4.3705 38.4095 4.00442 38.4998 3.63834 38.4998C3.54682 38.4998 3.4553 38.59 3.27226 38.59C3.18074 38.59 3.18074 38.59 3.08922 38.6802C2.08251 38.8607 1.44188 39.7631 1.62492 40.7557C1.80795 41.5678 2.63163 42.1092 3.4553 42.019C3.63834 42.019 3.72986 42.019 3.9129 41.9287C4.00442 41.9287 4.00442 41.9287 4.00442 41.8385C4.00442 41.7483 4.27898 41.8385 4.37049 41.8385C4.73657 41.7483 5.10265 41.5678 5.37721 41.4776C5.56025 41.3873 5.74329 41.2971 5.92632 41.2971H6.01784C7.02456 40.9361 7.93975 40.6654 9.03798 40.485H9.1295C9.40406 40.485 9.67862 40.5752 9.86166 40.7557C9.95317 40.7557 9.95317 40.8459 9.95317 40.8459L10.7768 40.7557C12.1496 44.9065 14.7122 48.6062 18.2814 51.3133C19.1051 51.9449 19.8373 52.4864 20.7525 52.9375L20.2949 53.5692C20.2949 53.6594 20.3864 53.6594 20.3864 53.6594C20.5694 53.9301 20.5694 54.2911 20.4779 54.5618C20.1118 55.4641 19.5627 56.3665 19.0136 57.1786V57.2689C18.9221 57.4493 18.8305 57.5396 18.6475 57.72C18.4645 57.9005 18.2814 58.2615 18.0069 58.6224C17.9154 58.7126 17.9154 58.8029 17.8238 58.8931C17.8238 58.8931 17.8238 58.9833 17.7323 58.9833C17.2747 59.8857 17.6408 60.9685 18.4645 61.4197C18.6475 61.5099 18.9221 61.6002 19.1051 61.6002C19.8373 61.6002 20.4779 61.149 20.844 60.5174C20.844 60.5174 20.844 60.4271 20.9355 60.4271C20.9355 60.3369 21.027 60.2466 21.1185 60.1564C21.2101 59.7955 21.3931 59.5248 21.4846 59.1638L21.6676 58.6224C21.9422 57.6298 22.3998 56.7274 22.8574 55.8251C23.0404 55.5544 23.315 55.3739 23.5896 55.2837C23.6811 55.2837 23.6811 55.2837 23.6811 55.1934L24.0472 54.4715C26.6097 55.4641 29.2638 55.9153 32.0093 55.9153C33.6567 55.9153 35.304 55.7348 36.9514 55.2837C37.9581 55.1032 38.9648 54.7422 39.88 54.4715L40.2461 55.1032C40.3376 55.1032 40.3376 55.1032 40.3376 55.1934C40.6121 55.2837 40.8867 55.4641 41.0697 55.7348C41.5273 56.6372 41.9849 57.5396 42.2595 58.5322V58.6224L42.4425 59.1638C42.5341 59.5248 42.6256 59.8857 42.8086 60.1564C42.9001 60.2466 42.9001 60.3369 42.9917 60.4271C42.9917 60.4271 42.9916 60.5174 43.0832 60.5174C43.4492 61.149 44.0899 61.6002 44.822 61.6002C45.0966 61.6002 45.2796 61.5099 45.5542 61.4197C45.9203 61.2392 46.2863 60.8783 46.3779 60.4271C46.4694 59.9759 46.4694 59.5248 46.2863 59.0736C46.2863 58.9833 46.1948 58.9833 46.1948 58.9833C46.1948 58.8931 46.1033 58.8029 46.0118 58.7126C45.8288 58.3517 45.6457 58.081 45.3712 57.8103C45.2796 57.6298 45.1881 57.5396 45.0051 57.3591V57.1786C44.3644 56.3665 43.9068 55.4641 43.5408 54.5618C43.4492 54.2911 43.4492 53.9301 43.6323 53.6594C43.6323 53.5692 43.7238 53.5692 43.7238 53.5692L43.4492 52.8473C48.1167 50.05 51.686 45.7186 53.3333 40.5752L54.0655 40.6654C54.157 40.6654 54.157 40.5752 54.157 40.5752C54.34 40.3947 54.6146 40.3045 54.8892 40.3045H54.9807C55.9874 40.485 56.9941 40.7557 57.9093 41.1166H58.0008C58.1839 41.2068 58.3669 41.2971 58.5499 41.2971C58.916 41.4776 59.1906 41.658 59.5567 41.7483C59.6482 41.7483 59.7397 41.8385 59.9227 41.8385C60.0142 41.8385 60.0142 41.8385 60.1058 41.9287C60.2888 42.019 60.3803 42.019 60.5634 42.019C61.387 42.019 62.1192 41.4776 62.3938 40.7557C62.3022 39.7631 61.5701 39.0412 60.7464 38.8607ZM34.2973 36.0634L31.8263 37.2365L29.3553 36.0634L28.7146 33.4466L30.4535 31.2809H33.1991L34.938 33.4466L34.2973 36.0634ZM49.215 30.1981C49.6726 32.093 49.7641 33.988 49.581 35.8829L40.8867 33.4466C40.063 33.2661 39.6054 32.454 39.7885 31.6418C39.88 31.3711 39.9715 31.1906 40.1546 31.0102L47.0185 24.8741C48.0252 26.4984 48.7574 28.3031 49.215 30.1981ZM44.2729 21.5354L36.7683 26.7691C36.1277 27.13 35.2125 27.0398 34.7549 26.4081C34.5719 26.2277 34.4804 26.0472 34.4804 25.7765L33.9312 16.6627C37.9581 17.1138 41.5273 18.8283 44.2729 21.5354ZM27.7079 16.9334L29.5383 16.5724L29.0807 25.596C29.0807 26.4081 28.3486 27.0398 27.5249 27.0398C27.2503 27.0398 27.0673 26.9496 26.7927 26.8593L19.1966 21.5354C21.5761 19.2795 24.5047 17.6552 27.7079 16.9334ZM16.5426 24.8741L23.315 30.8297C23.9556 31.3711 24.0471 32.2735 23.498 32.9051C23.315 33.1758 23.132 33.2661 22.7659 33.3563L13.8885 35.8829C13.6139 32.093 14.5291 28.2129 16.5426 24.8741ZM14.9867 40.124L24.0472 38.59C24.7793 38.59 25.5115 39.0412 25.603 39.7631C25.6945 40.0338 25.6945 40.3947 25.5115 40.6654L22.0337 48.9671C18.8305 46.8917 16.268 43.7335 14.9867 40.124ZM35.7616 51.3133C34.4804 51.584 33.1991 51.7645 31.8263 51.7645C29.9044 51.7645 27.891 51.4035 26.0606 50.8621L30.545 42.8311C31.0026 42.2897 31.7348 42.1092 32.3754 42.4701C32.65 42.6506 32.833 42.8311 33.1076 43.1018L37.5005 50.9523C36.9514 51.0426 36.4023 51.1328 35.7616 51.3133ZM46.927 43.4627C45.5542 45.6284 43.6323 47.5234 41.4358 48.8769L37.8666 40.3947C37.6835 39.6728 38.0496 38.9509 38.6902 38.6802C38.9648 38.59 39.2394 38.4998 39.5139 38.4998L48.6658 40.0338C48.2083 41.2971 47.6591 42.4701 46.927 43.4627Z" fill="currentColor"/>
</svg>
