<svg width="64" height="64" viewBox="0 0 64 64" fill="none" xmlns="http://www.w3.org/2000/svg">
<path d="M45.8964 25.4692C42.5161 10.5951 35.4708 6.63542 33.6736 3.83634C32.9326 2.60328 32.2761 1.32157 31.7086 0C31.6137 1.32136 31.4393 2.15381 30.3133 3.15584C28.0524 5.16651 18.4504 12.9713 17.6424 29.8715C16.8895 45.6287 29.2557 55.3451 30.8895 56.3493C32.1458 56.9659 33.6759 56.3625 34.4221 55.7965C40.3833 51.7157 48.5281 40.8366 45.903 25.4692" fill="currentColor"/>
<path d="M32.2192 47.9583C31.9079 51.8585 31.6849 54.1246 30.8945 56.3533C30.8945 56.3533 31.4134 60.0663 31.7777 63.9995H33.0671C33.3746 61.2298 33.8442 58.4803 34.4735 55.7653C32.8043 54.946 32.2833 51.3806 32.2192 47.9583Z" fill="currentColor"/>
<path d="M34.4752 55.768C32.7884 54.9906 32.3004 51.3503 32.2254 47.9588C32.6425 42.3643 32.7641 36.7518 32.5897 31.1445C32.5014 28.2023 32.6316 3.8937 31.8633 0.334839C32.3889 1.54019 32.9944 2.70925 33.6759 3.83423C35.4731 6.63551 42.5206 10.5952 45.8986 25.4693C48.5304 40.8102 40.4298 51.6608 34.4752 55.768Z" fill="currentColor"/>
</svg>
