<svg width="64" height="64" viewBox="0 0 64 64" fill="none" xmlns="http://www.w3.org/2000/svg">
<path d="M31.6214 4.00049C29.3159 4.01103 27.1145 4.20725 25.1776 4.5495C19.4711 5.55568 18.435 7.66088 18.435 11.5441V16.6723H31.9202V18.3816H13.3738C9.45481 18.3816 6.02267 20.7322 4.94937 25.2036C3.7111 30.3288 3.65628 33.527 4.94937 38.8786C5.908 42.8622 8.19743 45.7005 12.1164 45.7005H16.7531V39.5531C16.7531 35.1118 20.6043 31.1945 25.1776 31.1945H38.6472C42.3967 31.1945 45.3897 28.1142 45.3897 24.357V11.5436C45.3897 7.89725 42.3066 5.15772 38.6472 4.549C36.3301 4.16459 33.9269 3.98945 31.6214 4.00049ZM24.3286 8.12458C25.7218 8.12458 26.859 9.2783 26.859 10.6965C26.859 12.1097 25.7213 13.2528 24.3286 13.2528C22.9309 13.2528 21.7983 12.1102 21.7983 10.6965C21.7983 9.2783 22.9309 8.12458 24.3286 8.12458Z" fill="currentColor"/>
<path d="M47.184 18.2977V24.2272C47.184 28.8245 43.2559 32.6937 38.7767 32.6937H25.3344C21.6522 32.6937 18.6055 35.8203 18.6055 39.4793V52.1944C18.6055 55.8135 21.7767 57.9421 25.3344 58.98C29.5943 60.2231 33.6795 60.4477 38.7767 58.98C42.1647 58.0069 45.5056 56.0476 45.5056 52.1944V47.1056H32.0633V45.4093H52.2345C56.1461 45.4093 57.6032 42.702 58.9634 38.6391C60.3688 34.4567 60.3091 30.4336 58.9634 25.0679C57.9967 21.2047 56.1506 18.2977 52.2345 18.2977H47.184ZM39.6234 50.4981C41.0183 50.4981 42.1486 51.6321 42.1486 53.0351C42.1486 54.4425 41.0183 55.5874 39.6234 55.5874C38.2331 55.5874 37.0982 54.4425 37.0982 53.0351C37.0982 51.6326 38.2336 50.4981 39.6234 50.4981Z" fill="currentColor"/>
</svg>
