<svg width="390" height="346" viewBox="0 0 390 346" fill="none" xmlns="http://www.w3.org/2000/svg">
<g clip-path="url(#clip0)">
<path d="M195.005 -22L0 173.005L195.005 368L390 173.005L195.005 -22ZM370.995 155.337L354.026 172.306L337.056 155.337L354.026 138.368L370.995 155.337ZM195.674 155.337L212.643 138.368L229.612 155.337L212.643 172.306L195.674 155.337ZM211.994 173.005L195.025 189.974L178.056 173.005L195.025 156.036L211.994 173.005ZM195.025 154.658L178.056 137.689L195.025 120.72L211.994 137.689L195.025 154.658ZM194.346 155.337L177.377 172.306L160.408 155.337L177.377 138.368L194.346 155.337ZM176.678 173.005L159.709 189.974L142.74 173.005L159.709 156.036L176.678 173.005ZM177.357 173.674L194.326 190.643L177.357 207.612L160.388 190.643L177.357 173.674ZM195.025 191.342L211.994 208.311L195.025 225.28L178.056 208.311L195.025 191.342ZM195.694 190.673L212.663 173.704L229.632 190.673L212.663 207.642L195.694 190.673ZM213.362 173.005L230.331 156.036L247.3 173.005L230.331 189.974L213.362 173.005ZM231.029 155.337L247.999 138.368L264.968 155.337L247.999 172.306L231.029 155.337ZM230.351 154.658L213.382 137.689L230.351 120.72L247.32 137.689L230.351 154.658ZM212.683 137.001L195.714 120.031L212.683 103.062L229.652 120.031L212.683 137.001ZM195.025 119.333L178.056 102.364L195.025 85.3945L211.994 102.364L195.025 119.333ZM194.346 120.001L177.377 136.971L160.408 120.001L177.377 103.032L194.346 120.001ZM176.678 137.709L159.709 154.678L142.74 137.709L159.709 120.74L176.678 137.709ZM159.021 155.377L142.051 172.346L125.082 155.377L142.051 138.408L159.021 155.377ZM141.353 173.045L124.384 190.014L107.414 173.045L124.384 156.076L141.353 173.045ZM142.021 173.714L158.991 190.683L142.021 207.652L125.052 190.683L142.021 173.714ZM159.689 191.382L176.658 208.351L159.689 225.32L142.72 208.351L159.689 191.382ZM177.357 209.049L194.326 226.018L177.357 242.988L160.388 226.018L177.357 209.049ZM195.025 226.717L211.994 243.686L195.025 260.655L178.056 243.686L195.025 226.717ZM195.694 226.038L212.663 209.069L229.632 226.038L212.663 243.008L195.694 226.038ZM213.362 208.371L230.331 191.402L247.3 208.371L230.331 225.34L213.362 208.371ZM231.029 190.703L247.999 173.734L264.968 190.703L247.999 207.672L231.029 190.703ZM248.697 173.045L265.666 156.076L282.635 173.045L265.666 190.014L248.697 173.045ZM266.355 155.377L283.324 138.408L300.293 155.377L283.324 172.346L266.355 155.377ZM265.686 154.698L248.717 137.729L265.686 120.76L282.655 137.729L265.686 154.698ZM248.018 137.04L231.049 120.071L248.018 103.102L264.988 120.071L248.018 137.04ZM230.351 119.373L213.382 102.404L230.351 85.4344L247.32 102.404L230.351 119.373ZM212.683 101.705L195.714 84.7357L212.683 67.7666L229.652 84.7357L212.683 101.705ZM195.025 84.037L178.056 67.0679L195.025 50.0987L211.994 67.0679L195.025 84.037ZM194.346 84.7157L177.377 101.685L160.408 84.7157L177.377 67.7466L194.346 84.7157ZM176.678 102.334L159.709 119.303L142.74 102.334L159.709 85.3645L176.678 102.334ZM159.021 120.001L142.051 136.971L125.082 120.001L142.051 103.032L159.021 120.001ZM141.333 137.709L124.364 154.678L107.394 137.709L124.364 120.74L141.333 137.709ZM123.665 155.377L106.696 172.346L89.7267 155.377L106.696 138.408L123.665 155.377ZM105.997 173.045L89.0279 190.014L72.0588 173.045L89.0279 156.076L105.997 173.045ZM106.666 173.714L123.635 190.683L106.666 207.652L89.6967 190.683L106.666 173.714ZM124.334 191.382L141.303 208.351L124.334 225.32L107.365 208.351L124.334 191.382ZM142.001 209.049L158.971 226.018L142.001 242.988L125.032 226.018L142.001 209.049ZM159.669 226.717L176.638 243.686L159.669 260.655L142.7 243.686L159.669 226.717ZM177.337 244.375L194.306 261.344L177.337 278.313L160.368 261.344L177.337 244.375ZM195.005 262.043L211.974 279.012L195.005 295.981L178.036 279.012L195.005 262.043ZM195.674 261.374L212.643 244.405L229.612 261.374L212.643 278.343L195.674 261.374ZM213.342 243.706L230.311 226.737L247.28 243.706L230.311 260.675L213.342 243.706ZM231.009 226.038L247.979 209.069L264.948 226.038L247.979 243.008L231.009 226.038ZM248.677 208.371L265.646 191.402L282.616 208.371L265.646 225.34L248.677 208.371ZM266.335 190.713L283.304 173.744L300.273 190.713L283.304 207.682L266.335 190.713ZM284.003 173.045L300.972 156.076L317.941 173.045L300.972 190.014L284.003 173.045ZM301.671 155.377L318.64 138.408L335.609 155.377L318.64 172.346L301.671 155.377ZM301.002 154.698L284.033 137.729L301.002 120.76L317.971 137.729L301.002 154.698ZM283.334 137.04L266.365 120.071L283.334 103.102L300.303 120.071L283.334 137.04ZM265.666 119.373L248.697 102.404L265.666 85.4344L282.635 102.404L265.666 119.373ZM247.999 101.705L231.029 84.7357L247.999 67.7666L264.968 84.7357L247.999 101.705ZM230.331 84.037L213.362 67.0679L230.331 50.0987L247.3 67.0679L230.331 84.037ZM212.673 66.3691L195.704 49.4L212.673 32.4309L229.642 49.4L212.673 66.3691ZM195.005 48.7013L178.036 31.7322L195.005 14.7631L211.974 31.7322L195.005 48.7013ZM194.326 49.3801L177.357 66.3492L160.388 49.3801L177.357 32.4109L194.326 49.3801ZM176.678 67.008L159.709 83.9771L142.74 67.008L159.709 50.0389L176.678 67.008ZM159.021 84.6658L142.051 101.635L125.082 84.6658L142.051 67.6967L159.021 84.6658ZM141.353 102.334L124.384 119.303L107.414 102.334L124.384 85.3645L141.353 102.334ZM123.685 120.001L106.716 136.971L89.7466 120.001L106.716 103.032L123.685 120.001ZM105.997 137.709L89.0279 154.678L72.0588 137.709L89.0279 120.74L105.997 137.709ZM88.3292 155.377L71.3601 172.346L54.391 155.377L71.3601 138.408L88.3292 155.377ZM70.6614 173.045L53.6923 190.014L36.7231 173.045L53.6923 156.076L70.6614 173.045ZM71.3401 173.714L88.3092 190.683L71.3401 207.652L54.371 190.683L71.3401 173.714ZM89.008 191.382L105.977 208.351L89.008 225.32L72.0389 208.351L89.008 191.382ZM106.666 209.049L123.635 226.018L106.666 242.988L89.6967 226.018L106.666 209.049ZM124.334 226.717L141.303 243.686L124.334 260.655L107.365 243.686L124.334 226.717ZM142.001 244.375L158.971 261.344L142.001 278.313L125.032 261.344L142.001 244.375ZM159.669 262.043L176.638 279.012L159.669 295.981L142.7 279.012L159.669 262.043ZM177.337 279.711L194.306 296.68L177.337 313.649L160.368 296.68L177.337 279.711ZM195.005 297.379L211.974 314.348L195.005 331.317L178.036 314.348L195.005 297.379ZM195.674 296.71L212.643 279.741L229.612 296.71L212.643 313.679L195.674 296.71ZM213.342 279.042L230.311 262.073L247.28 279.042L230.311 296.011L213.342 279.042ZM231.009 261.374L247.979 244.405L264.948 261.374L247.979 278.343L231.009 261.374ZM248.677 243.706L265.646 226.737L282.616 243.706L265.646 260.675L248.677 243.706ZM266.335 226.038L283.304 209.069L300.273 226.038L283.304 243.008L266.335 226.038ZM284.003 208.371L300.972 191.402L317.941 208.371L300.972 225.34L284.003 208.371ZM301.671 190.713L318.64 173.744L335.609 190.713L318.64 207.682L301.671 190.713ZM319.339 173.045L336.308 156.076L353.277 173.045L336.308 190.014L319.339 173.045ZM353.357 137.709L336.388 154.678L319.419 137.709L336.388 120.74L353.357 137.709ZM335.689 120.041L318.72 137.011L301.751 120.041L318.72 103.072L335.689 120.041ZM318.021 102.374L301.052 119.343L284.083 102.374L301.052 85.4045L318.021 102.374ZM300.353 84.7057L283.384 101.675L266.415 84.7057L283.384 67.7366L300.353 84.7057ZM282.685 67.0479L265.716 84.017L248.747 67.0479L265.716 50.0788L282.685 67.0479ZM265.028 49.3801L248.058 66.3492L231.089 49.3801L248.058 32.4109L265.028 49.3801ZM247.36 31.7122L230.391 48.6813L213.421 31.7122L230.391 14.7431L247.36 31.7122ZM229.692 14.0444L212.723 31.0135L195.754 14.0444L212.723 -2.92472L229.692 14.0444ZM195.005 -20.6525L211.974 -3.68334L195.005 13.2858L178.036 -3.68334L195.005 -20.6525ZM177.337 -2.98462L194.306 13.9845L177.337 30.9536L160.368 13.9845L177.337 -2.98462ZM159.709 14.6832L176.678 31.6523L159.709 48.6214L142.74 31.6523L159.709 14.6832ZM142.041 32.3411L159.011 49.3102L142.041 66.2793L125.072 49.3102L142.041 32.3411ZM124.374 50.0089L141.343 66.978L124.374 83.9471L107.404 66.978L124.374 50.0089ZM106.706 67.6767L123.675 84.6459L106.706 101.615L89.7366 84.6459L106.706 67.6767ZM89.0479 85.3446L106.017 102.314L89.0479 119.283L72.0788 102.314L89.0479 85.3446ZM71.3801 103.012L88.3492 119.982L71.3801 136.951L54.4109 119.982L71.3801 103.012ZM53.7122 120.68L70.6813 137.649L53.7122 154.618L36.7431 137.649L53.7122 120.68ZM36.0444 138.338L53.0135 155.307L36.0444 172.276L19.0753 155.307L36.0444 138.338ZM1.34755 173.005L18.3167 156.036L35.2858 173.005L18.3167 189.974L1.34755 173.005ZM19.0154 190.673L35.9845 173.704L52.9536 190.673L35.9845 207.642L19.0154 190.673ZM36.6832 208.331L53.6523 191.362L70.6214 208.331L53.6523 225.3L36.6832 208.331ZM54.3411 225.999L71.3102 209.029L88.2793 225.999L71.3102 242.968L54.3411 225.999ZM72.0089 243.666L88.978 226.697L105.947 243.666L88.978 260.635L72.0089 243.666ZM89.6767 261.334L106.646 244.365L123.615 261.334L106.646 278.303L89.6767 261.334ZM107.345 279.002L124.314 262.033L141.283 279.002L124.314 295.971L107.345 279.002ZM125.012 296.67L141.982 279.701L158.951 296.67L141.982 313.639L125.012 296.67ZM142.68 314.328L159.649 297.359L176.618 314.328L159.649 331.297L142.68 314.328ZM160.338 331.996L177.307 315.026L194.276 331.996L177.307 348.965L160.338 331.996ZM195.005 366.652L178.036 349.683L195.005 332.714L211.974 349.683L195.005 366.652ZM212.663 348.995L195.694 332.026L212.663 315.056L229.632 332.026L212.663 348.995ZM230.331 331.327L213.362 314.358L230.331 297.389L247.3 314.358L230.331 331.327ZM247.999 313.659L231.029 296.69L247.999 279.721L264.968 296.69L247.999 313.659ZM265.666 295.991L248.697 279.022L265.666 262.053L282.635 279.022L265.666 295.991ZM283.334 278.323L266.365 261.354L283.334 244.385L300.303 261.354L283.334 278.323ZM301.002 260.655L284.033 243.686L301.002 226.717L317.971 243.686L301.002 260.655ZM318.67 242.998L301.701 226.028L318.67 209.059L335.639 226.028L318.67 242.998ZM336.328 225.33L319.359 208.361L336.328 191.392L353.297 208.361L336.328 225.33ZM353.996 207.662L337.026 190.693L353.996 173.724L370.965 190.693L353.996 207.662ZM354.674 173.005L371.643 156.036L388.613 173.005L371.643 189.974L354.674 173.005Z" fill="url(#paint0_radial)"/>
<g filter="url(#filter0_d)">
<circle cx="123" cy="120" r="3" fill="#00D5FF"/>
</g>
<g filter="url(#filter1_d)">
<circle cx="248" cy="244" r="2" fill="white"/>
</g>
<g filter="url(#filter2_df)">
<circle cx="248" cy="138" r="3" fill="#00D5FF"/>
</g>
<g filter="url(#filter3_d)">
<circle cx="160" cy="191" r="3" fill="#FFFF00"/>
</g>
<g filter="url(#filter4_df)">
<circle cx="195" cy="85" r="2" fill="#FFFF00"/>
</g>
<path d="M178.006 180.222C181.992 180.222 185.223 176.991 185.223 173.005C185.223 169.019 181.992 165.788 178.006 165.788C174.02 165.788 170.789 169.019 170.789 173.005C170.789 176.991 174.02 180.222 178.006 180.222Z" fill="url(#paint1_radial)"/>
<path d="M159.097 226.989C159.487 227.38 160.12 227.381 160.511 226.992C160.903 226.602 160.904 225.969 160.514 225.577L159.097 226.989ZM124.328 190.664L123.622 189.957C123.231 190.347 123.23 190.979 123.62 191.37L124.328 190.664ZM177.402 137.691L178.109 136.984C177.719 136.593 177.086 136.593 176.695 136.983L177.402 137.691ZM230.364 190.648L229.657 191.355C230.047 191.745 230.68 191.745 231.071 191.355L230.364 190.648ZM283.93 138.54C284.321 138.15 284.321 137.516 283.931 137.126C283.541 136.735 282.907 136.735 282.517 137.125L283.93 138.54ZM160.511 225.574C160.121 225.183 159.488 225.181 159.097 225.571C158.705 225.961 158.704 226.594 159.094 226.985L160.511 225.574ZM150.231 218.088C150.621 218.479 151.254 218.48 151.645 218.09C152.037 217.701 152.038 217.067 151.648 216.676L150.231 218.088ZM151.641 216.669C151.252 216.278 150.619 216.277 150.227 216.667C149.836 217.056 149.835 217.689 150.224 218.081L151.641 216.669ZM141.362 209.183C141.752 209.574 142.385 209.575 142.776 209.186C143.167 208.796 143.169 208.163 142.779 207.771L141.362 209.183ZM142.772 207.765C142.382 207.373 141.749 207.372 141.358 207.762C140.967 208.152 140.965 208.785 141.355 209.176L142.772 207.765ZM132.492 200.278C132.882 200.67 133.515 200.671 133.907 200.281C134.298 199.891 134.299 199.258 133.909 198.867L132.492 200.278ZM133.903 198.86C133.513 198.469 132.88 198.467 132.488 198.857C132.097 199.247 132.096 199.88 132.486 200.271L133.903 198.86ZM123.623 191.374C124.013 191.765 124.646 191.766 125.037 191.376C125.429 190.987 125.43 190.353 125.04 189.962L123.623 191.374ZM125.038 191.369C125.429 190.979 125.429 190.345 125.039 189.955C124.649 189.564 124.016 189.563 123.625 189.953L125.038 191.369ZM132.464 181.131C132.073 181.521 132.072 182.154 132.463 182.545C132.853 182.936 133.486 182.937 133.877 182.547L132.464 181.131ZM133.884 182.54C134.274 182.15 134.275 181.517 133.885 181.126C133.495 180.735 132.862 180.734 132.471 181.124L133.884 182.54ZM141.31 172.302C140.919 172.692 140.918 173.325 141.308 173.716C141.698 174.107 142.332 174.108 142.722 173.718L141.31 172.302ZM142.729 173.711C143.12 173.321 143.121 172.688 142.731 172.297C142.34 171.906 141.707 171.905 141.316 172.295L142.729 173.711ZM150.155 163.473C149.764 163.863 149.764 164.496 150.154 164.887C150.544 165.278 151.177 165.279 151.568 164.889L150.155 163.473ZM151.575 164.882C151.966 164.492 151.966 163.859 151.576 163.468C151.186 163.077 150.553 163.076 150.162 163.466L151.575 164.882ZM159.001 154.644C158.61 155.034 158.609 155.668 158.999 156.058C159.39 156.449 160.023 156.45 160.414 156.06L159.001 154.644ZM160.42 156.053C160.811 155.663 160.812 155.03 160.422 154.639C160.032 154.248 159.398 154.247 159.008 154.637L160.42 156.053ZM167.846 145.815C167.455 146.205 167.455 146.839 167.845 147.229C168.235 147.62 168.868 147.621 169.259 147.231L167.846 145.815ZM169.266 147.224C169.657 146.834 169.658 146.201 169.267 145.81C168.877 145.419 168.244 145.418 167.853 145.808L169.266 147.224ZM176.692 136.986C176.301 137.376 176.3 138.01 176.691 138.401C177.081 138.791 177.714 138.792 178.105 138.402L176.692 136.986ZM176.698 138.401C177.089 138.792 177.722 138.792 178.112 138.401C178.503 138.011 178.503 137.377 178.112 136.987L176.698 138.401ZM186.932 145.806C186.542 145.416 185.909 145.416 185.518 145.806C185.128 146.197 185.128 146.83 185.518 147.221L186.932 145.806ZM185.525 147.227C185.916 147.618 186.549 147.618 186.939 147.227C187.33 146.837 187.33 146.204 186.939 145.813L185.525 147.227ZM195.759 154.632C195.369 154.242 194.736 154.242 194.345 154.633C193.955 155.023 193.955 155.656 194.345 156.047L195.759 154.632ZM194.352 156.054C194.743 156.444 195.376 156.444 195.766 156.053C196.157 155.663 196.157 155.03 195.766 154.639L194.352 156.054ZM204.586 163.459C204.196 163.068 203.563 163.068 203.172 163.459C202.782 163.849 202.782 164.482 203.172 164.873L204.586 163.459ZM203.179 164.88C203.57 165.27 204.203 165.27 204.593 164.88C204.984 164.489 204.984 163.856 204.593 163.465L203.179 164.88ZM213.413 172.285C213.023 171.894 212.39 171.894 211.999 172.285C211.609 172.675 211.609 173.309 211.999 173.699L213.413 172.285ZM212.006 173.706C212.397 174.096 213.03 174.096 213.42 173.706C213.811 173.315 213.811 172.682 213.42 172.292L212.006 173.706ZM222.24 181.111C221.85 180.721 221.217 180.721 220.826 181.111C220.436 181.502 220.436 182.135 220.826 182.525L222.24 181.111ZM220.833 182.532C221.224 182.923 221.857 182.923 222.247 182.532C222.638 182.141 222.638 181.508 222.247 181.118L220.833 182.532ZM231.067 189.937C230.677 189.547 230.044 189.547 229.653 189.937C229.263 190.328 229.263 190.961 229.653 191.351L231.067 189.937ZM231.074 191.352C231.465 190.961 231.465 190.328 231.075 189.938C230.684 189.547 230.051 189.547 229.66 189.937L231.074 191.352ZM238.464 181.141C238.073 181.532 238.073 182.165 238.463 182.555C238.853 182.946 239.486 182.946 239.877 182.556L238.464 181.141ZM239.884 182.549C240.275 182.159 240.275 181.526 239.884 181.135C239.494 180.744 238.861 180.744 238.47 181.134L239.884 182.549ZM247.273 172.339C246.883 172.729 246.883 173.362 247.273 173.753C247.663 174.144 248.296 174.144 248.687 173.753L247.273 172.339ZM248.694 173.747C249.085 173.356 249.085 172.723 248.694 172.332C248.304 171.942 247.671 171.942 247.28 172.332L248.694 173.747ZM256.083 163.536C255.693 163.926 255.692 164.56 256.083 164.95C256.473 165.341 257.106 165.341 257.497 164.951L256.083 163.536ZM257.504 164.944C257.895 164.554 257.895 163.921 257.504 163.53C257.114 163.139 256.481 163.139 256.09 163.529L257.504 164.944ZM264.893 154.734C264.503 155.124 264.502 155.757 264.893 156.148C265.283 156.538 265.916 156.539 266.307 156.148L264.893 154.734ZM266.314 156.142C266.704 155.751 266.705 155.118 266.314 154.727C265.924 154.337 265.291 154.336 264.9 154.727L266.314 156.142ZM273.703 145.931C273.313 146.321 273.312 146.955 273.703 147.345C274.093 147.736 274.726 147.736 275.117 147.346L273.703 145.931ZM275.124 147.339C275.514 146.949 275.515 146.316 275.124 145.925C274.734 145.534 274.101 145.534 273.71 145.924L275.124 147.339ZM282.513 137.129C282.123 137.519 282.122 138.152 282.513 138.543C282.903 138.933 283.536 138.934 283.927 138.543L282.513 137.129ZM160.514 225.577L160.511 225.574L159.094 226.985L159.097 226.989L160.514 225.577ZM151.648 216.676L151.641 216.669L150.224 218.081L150.231 218.088L151.648 216.676ZM142.779 207.771L142.772 207.765L141.355 209.176L141.362 209.183L142.779 207.771ZM133.909 198.867L133.903 198.86L132.486 200.271L132.492 200.278L133.909 198.867ZM125.04 189.962L125.037 189.959L123.62 191.37L123.623 191.374L125.04 189.962ZM125.035 191.372L125.038 191.369L123.625 189.953L123.622 189.957L125.035 191.372ZM133.877 182.547L133.884 182.54L132.471 181.124L132.464 181.131L133.877 182.547ZM142.722 173.718L142.729 173.711L141.316 172.295L141.31 172.302L142.722 173.718ZM151.568 164.889L151.575 164.882L150.162 163.466L150.155 163.473L151.568 164.889ZM160.414 156.06L160.42 156.053L159.008 154.637L159.001 154.644L160.414 156.06ZM169.259 147.231L169.266 147.224L167.853 145.808L167.846 145.815L169.259 147.231ZM178.105 138.402L178.108 138.398L176.695 136.983L176.692 136.986L178.105 138.402ZM176.695 138.398L176.698 138.401L178.112 136.987L178.109 136.984L176.695 138.398ZM185.518 147.221L185.525 147.227L186.939 145.813L186.932 145.806L185.518 147.221ZM194.345 156.047L194.352 156.054L195.766 154.639L195.759 154.632L194.345 156.047ZM203.172 164.873L203.179 164.88L204.593 163.465L204.586 163.459L203.172 164.873ZM211.999 173.699L212.006 173.706L213.42 172.292L213.413 172.285L211.999 173.699ZM220.826 182.525L220.833 182.532L222.247 181.118L222.24 181.111L220.826 182.525ZM229.653 191.351L229.657 191.355L231.071 189.941L231.067 189.937L229.653 191.351ZM231.071 191.355L231.074 191.352L229.66 189.937L229.657 189.94L231.071 191.355ZM239.877 182.556L239.884 182.549L238.47 181.134L238.464 181.141L239.877 182.556ZM248.687 173.753L248.694 173.747L247.28 172.332L247.273 172.339L248.687 173.753ZM257.497 164.951L257.504 164.944L256.09 163.529L256.083 163.536L257.497 164.951ZM266.307 156.148L266.314 156.142L264.9 154.727L264.893 154.734L266.307 156.148ZM275.117 147.346L275.124 147.339L273.71 145.924L273.703 145.931L275.117 147.346ZM283.927 138.543L283.93 138.54L282.517 137.125L282.513 137.129L283.927 138.543Z" fill="#477085"/>
</g>
<defs>
<filter id="filter0_d" x="116" y="113" width="14" height="14" filterUnits="userSpaceOnUse" color-interpolation-filters="sRGB">
<feFlood flood-opacity="0" result="BackgroundImageFix"/>
<feColorMatrix in="SourceAlpha" type="matrix" values="0 0 0 0 0 0 0 0 0 0 0 0 0 0 0 0 0 0 127 0" result="hardAlpha"/>
<feOffset/>
<feGaussianBlur stdDeviation="2"/>
<feComposite in2="hardAlpha" operator="out"/>
<feColorMatrix type="matrix" values="0 0 0 0 0 0 0 0 0 0.833333 0 0 0 0 1 0 0 0 0.5 0"/>
<feBlend mode="normal" in2="BackgroundImageFix" result="effect1_dropShadow"/>
<feBlend mode="normal" in="SourceGraphic" in2="effect1_dropShadow" result="shape"/>
</filter>
<filter id="filter1_d" x="242" y="238" width="12" height="12" filterUnits="userSpaceOnUse" color-interpolation-filters="sRGB">
<feFlood flood-opacity="0" result="BackgroundImageFix"/>
<feColorMatrix in="SourceAlpha" type="matrix" values="0 0 0 0 0 0 0 0 0 0 0 0 0 0 0 0 0 0 127 0" result="hardAlpha"/>
<feOffset/>
<feGaussianBlur stdDeviation="2"/>
<feComposite in2="hardAlpha" operator="out"/>
<feColorMatrix type="matrix" values="0 0 0 0 1 0 0 0 0 1 0 0 0 0 1 0 0 0 0.5 0"/>
<feBlend mode="normal" in2="BackgroundImageFix" result="effect1_dropShadow"/>
<feBlend mode="normal" in="SourceGraphic" in2="effect1_dropShadow" result="shape"/>
</filter>
<filter id="filter2_df" x="241" y="131" width="14" height="14" filterUnits="userSpaceOnUse" color-interpolation-filters="sRGB">
<feFlood flood-opacity="0" result="BackgroundImageFix"/>
<feColorMatrix in="SourceAlpha" type="matrix" values="0 0 0 0 0 0 0 0 0 0 0 0 0 0 0 0 0 0 127 0" result="hardAlpha"/>
<feOffset/>
<feGaussianBlur stdDeviation="2"/>
<feComposite in2="hardAlpha" operator="out"/>
<feColorMatrix type="matrix" values="0 0 0 0 0 0 0 0 0 0.833333 0 0 0 0 1 0 0 0 0.5 0"/>
<feBlend mode="normal" in2="BackgroundImageFix" result="effect1_dropShadow"/>
<feBlend mode="normal" in="SourceGraphic" in2="effect1_dropShadow" result="shape"/>
<feGaussianBlur stdDeviation="2" result="effect2_foregroundBlur"/>
</filter>
<filter id="filter3_d" x="153" y="184" width="14" height="14" filterUnits="userSpaceOnUse" color-interpolation-filters="sRGB">
<feFlood flood-opacity="0" result="BackgroundImageFix"/>
<feColorMatrix in="SourceAlpha" type="matrix" values="0 0 0 0 0 0 0 0 0 0 0 0 0 0 0 0 0 0 127 0" result="hardAlpha"/>
<feOffset/>
<feGaussianBlur stdDeviation="2"/>
<feComposite in2="hardAlpha" operator="out"/>
<feColorMatrix type="matrix" values="0 0 0 0 1 0 0 0 0 1 0 0 0 0 0 0 0 0 0.5 0"/>
<feBlend mode="normal" in2="BackgroundImageFix" result="effect1_dropShadow"/>
<feBlend mode="normal" in="SourceGraphic" in2="effect1_dropShadow" result="shape"/>
</filter>
<filter id="filter4_df" x="189" y="79" width="12" height="12" filterUnits="userSpaceOnUse" color-interpolation-filters="sRGB">
<feFlood flood-opacity="0" result="BackgroundImageFix"/>
<feColorMatrix in="SourceAlpha" type="matrix" values="0 0 0 0 0 0 0 0 0 0 0 0 0 0 0 0 0 0 127 0" result="hardAlpha"/>
<feOffset/>
<feGaussianBlur stdDeviation="2"/>
<feComposite in2="hardAlpha" operator="out"/>
<feColorMatrix type="matrix" values="0 0 0 0 1 0 0 0 0 1 0 0 0 0 0 0 0 0 0.5 0"/>
<feBlend mode="normal" in2="BackgroundImageFix" result="effect1_dropShadow"/>
<feBlend mode="normal" in="SourceGraphic" in2="effect1_dropShadow" result="shape"/>
<feGaussianBlur stdDeviation="1" result="effect2_foregroundBlur"/>
</filter>
<radialGradient id="paint0_radial" cx="0" cy="0" r="1" gradientUnits="userSpaceOnUse" gradientTransform="translate(195.005 173.005) scale(136.332)">
<stop stop-color="#67D1FA" stop-opacity="0.2"/>
<stop offset="1" stop-color="#67D1FA" stop-opacity="0"/>
</radialGradient>
<radialGradient id="paint1_radial" cx="0" cy="0" r="1" gradientUnits="userSpaceOnUse" gradientTransform="translate(2744.75 2985.56) scale(104.356 104.356)">
<stop offset="0.28" stop-color="#00D4FF" stop-opacity="0.2"/>
<stop offset="0.62" stop-color="#00D4FF" stop-opacity="0.06"/>
<stop offset="0.82" stop-color="#00D4FF" stop-opacity="0"/>
</radialGradient>
<clipPath id="clip0">
<rect width="390" height="346" fill="white"/>
</clipPath>
</defs>
</svg>
