<svg width="390" height="346" viewBox="0 0 390 346" fill="none" xmlns="http://www.w3.org/2000/svg">
<g clip-path="url(#clip0)">
<path d="M195.005 -22L0 173.005L195.005 368L390 173.005L195.005 -22ZM370.995 155.337L354.026 172.306L337.056 155.337L354.026 138.368L370.995 155.337ZM195.674 155.337L212.643 138.368L229.612 155.337L212.643 172.306L195.674 155.337ZM211.994 173.005L195.025 189.974L178.056 173.005L195.025 156.036L211.994 173.005ZM195.025 154.658L178.056 137.689L195.025 120.72L211.994 137.689L195.025 154.658ZM194.346 155.337L177.377 172.306L160.408 155.337L177.377 138.368L194.346 155.337ZM176.678 173.005L159.709 189.974L142.74 173.005L159.709 156.036L176.678 173.005ZM177.357 173.674L194.326 190.643L177.357 207.612L160.388 190.643L177.357 173.674ZM195.025 191.342L211.994 208.311L195.025 225.28L178.056 208.311L195.025 191.342ZM195.694 190.673L212.663 173.704L229.632 190.673L212.663 207.642L195.694 190.673ZM213.362 173.005L230.331 156.036L247.3 173.005L230.331 189.974L213.362 173.005ZM231.029 155.337L247.999 138.368L264.968 155.337L247.999 172.306L231.029 155.337ZM230.351 154.658L213.382 137.689L230.351 120.72L247.32 137.689L230.351 154.658ZM212.683 137.001L195.714 120.031L212.683 103.062L229.652 120.031L212.683 137.001ZM195.025 119.333L178.056 102.364L195.025 85.3945L211.994 102.364L195.025 119.333ZM194.346 120.001L177.377 136.971L160.408 120.001L177.377 103.032L194.346 120.001ZM176.678 137.709L159.709 154.678L142.74 137.709L159.709 120.74L176.678 137.709ZM159.021 155.377L142.051 172.346L125.082 155.377L142.051 138.408L159.021 155.377ZM141.353 173.045L124.384 190.014L107.414 173.045L124.384 156.076L141.353 173.045ZM142.021 173.714L158.991 190.683L142.021 207.652L125.052 190.683L142.021 173.714ZM159.689 191.382L176.658 208.351L159.689 225.32L142.72 208.351L159.689 191.382ZM177.357 209.049L194.326 226.018L177.357 242.988L160.388 226.018L177.357 209.049ZM195.025 226.717L211.994 243.686L195.025 260.655L178.056 243.686L195.025 226.717ZM195.694 226.038L212.663 209.069L229.632 226.038L212.663 243.008L195.694 226.038ZM213.362 208.371L230.331 191.402L247.3 208.371L230.331 225.34L213.362 208.371ZM231.029 190.703L247.999 173.734L264.968 190.703L247.999 207.672L231.029 190.703ZM248.697 173.045L265.666 156.076L282.635 173.045L265.666 190.014L248.697 173.045ZM266.355 155.377L283.324 138.408L300.293 155.377L283.324 172.346L266.355 155.377ZM265.686 154.698L248.717 137.729L265.686 120.76L282.655 137.729L265.686 154.698ZM248.018 137.04L231.049 120.071L248.018 103.102L264.988 120.071L248.018 137.04ZM230.351 119.373L213.382 102.404L230.351 85.4344L247.32 102.404L230.351 119.373ZM212.683 101.705L195.714 84.7357L212.683 67.7666L229.652 84.7357L212.683 101.705ZM195.025 84.037L178.056 67.0679L195.025 50.0987L211.994 67.0679L195.025 84.037ZM194.346 84.7157L177.377 101.685L160.408 84.7157L177.377 67.7466L194.346 84.7157ZM176.678 102.334L159.709 119.303L142.74 102.334L159.709 85.3645L176.678 102.334ZM159.021 120.001L142.051 136.971L125.082 120.001L142.051 103.032L159.021 120.001ZM141.333 137.709L124.364 154.678L107.394 137.709L124.364 120.74L141.333 137.709ZM123.665 155.377L106.696 172.346L89.7267 155.377L106.696 138.408L123.665 155.377ZM105.997 173.045L89.0279 190.014L72.0588 173.045L89.0279 156.076L105.997 173.045ZM106.666 173.714L123.635 190.683L106.666 207.652L89.6967 190.683L106.666 173.714ZM124.334 191.382L141.303 208.351L124.334 225.32L107.365 208.351L124.334 191.382ZM142.001 209.049L158.971 226.018L142.001 242.988L125.032 226.018L142.001 209.049ZM159.669 226.717L176.638 243.686L159.669 260.655L142.7 243.686L159.669 226.717ZM177.337 244.375L194.306 261.344L177.337 278.313L160.368 261.344L177.337 244.375ZM195.005 262.043L211.974 279.012L195.005 295.981L178.036 279.012L195.005 262.043ZM195.674 261.374L212.643 244.405L229.612 261.374L212.643 278.343L195.674 261.374ZM213.342 243.706L230.311 226.737L247.28 243.706L230.311 260.675L213.342 243.706ZM231.009 226.038L247.979 209.069L264.948 226.038L247.979 243.008L231.009 226.038ZM248.677 208.371L265.646 191.402L282.616 208.371L265.646 225.34L248.677 208.371ZM266.335 190.713L283.304 173.744L300.273 190.713L283.304 207.682L266.335 190.713ZM284.003 173.045L300.972 156.076L317.941 173.045L300.972 190.014L284.003 173.045ZM301.671 155.377L318.64 138.408L335.609 155.377L318.64 172.346L301.671 155.377ZM301.002 154.698L284.033 137.729L301.002 120.76L317.971 137.729L301.002 154.698ZM283.334 137.04L266.365 120.071L283.334 103.102L300.303 120.071L283.334 137.04ZM265.666 119.373L248.697 102.404L265.666 85.4344L282.635 102.404L265.666 119.373ZM247.999 101.705L231.029 84.7357L247.999 67.7666L264.968 84.7357L247.999 101.705ZM230.331 84.037L213.362 67.0679L230.331 50.0987L247.3 67.0679L230.331 84.037ZM212.673 66.3691L195.704 49.4L212.673 32.4309L229.642 49.4L212.673 66.3691ZM195.005 48.7013L178.036 31.7322L195.005 14.7631L211.974 31.7322L195.005 48.7013ZM194.326 49.3801L177.357 66.3492L160.388 49.3801L177.357 32.4109L194.326 49.3801ZM176.678 67.008L159.709 83.9771L142.74 67.008L159.709 50.0389L176.678 67.008ZM159.021 84.6658L142.051 101.635L125.082 84.6658L142.051 67.6967L159.021 84.6658ZM141.353 102.334L124.384 119.303L107.414 102.334L124.384 85.3645L141.353 102.334ZM123.685 120.001L106.716 136.971L89.7466 120.001L106.716 103.032L123.685 120.001ZM105.997 137.709L89.0279 154.678L72.0588 137.709L89.0279 120.74L105.997 137.709ZM88.3292 155.377L71.3601 172.346L54.391 155.377L71.3601 138.408L88.3292 155.377ZM70.6614 173.045L53.6923 190.014L36.7231 173.045L53.6923 156.076L70.6614 173.045ZM71.3401 173.714L88.3092 190.683L71.3401 207.652L54.371 190.683L71.3401 173.714ZM89.008 191.382L105.977 208.351L89.008 225.32L72.0389 208.351L89.008 191.382ZM106.666 209.049L123.635 226.018L106.666 242.988L89.6967 226.018L106.666 209.049ZM124.334 226.717L141.303 243.686L124.334 260.655L107.365 243.686L124.334 226.717ZM142.001 244.375L158.971 261.344L142.001 278.313L125.032 261.344L142.001 244.375ZM159.669 262.043L176.638 279.012L159.669 295.981L142.7 279.012L159.669 262.043ZM177.337 279.711L194.306 296.68L177.337 313.649L160.368 296.68L177.337 279.711ZM195.005 297.379L211.974 314.348L195.005 331.317L178.036 314.348L195.005 297.379ZM195.674 296.71L212.643 279.741L229.612 296.71L212.643 313.679L195.674 296.71ZM213.342 279.042L230.311 262.073L247.28 279.042L230.311 296.011L213.342 279.042ZM231.009 261.374L247.979 244.405L264.948 261.374L247.979 278.343L231.009 261.374ZM248.677 243.706L265.646 226.737L282.616 243.706L265.646 260.675L248.677 243.706ZM266.335 226.038L283.304 209.069L300.273 226.038L283.304 243.008L266.335 226.038ZM284.003 208.371L300.972 191.402L317.941 208.371L300.972 225.34L284.003 208.371ZM301.671 190.713L318.64 173.744L335.609 190.713L318.64 207.682L301.671 190.713ZM319.339 173.045L336.308 156.076L353.277 173.045L336.308 190.014L319.339 173.045ZM353.357 137.709L336.388 154.678L319.419 137.709L336.388 120.74L353.357 137.709ZM335.689 120.041L318.72 137.011L301.751 120.041L318.72 103.072L335.689 120.041ZM318.021 102.374L301.052 119.343L284.083 102.374L301.052 85.4045L318.021 102.374ZM300.353 84.7057L283.384 101.675L266.415 84.7057L283.384 67.7366L300.353 84.7057ZM282.685 67.0479L265.716 84.017L248.747 67.0479L265.716 50.0788L282.685 67.0479ZM265.028 49.3801L248.058 66.3492L231.089 49.3801L248.058 32.4109L265.028 49.3801ZM247.36 31.7122L230.391 48.6813L213.421 31.7122L230.391 14.7431L247.36 31.7122ZM229.692 14.0444L212.723 31.0135L195.754 14.0444L212.723 -2.92472L229.692 14.0444ZM195.005 -20.6525L211.974 -3.68334L195.005 13.2858L178.036 -3.68334L195.005 -20.6525ZM177.337 -2.98462L194.306 13.9845L177.337 30.9536L160.368 13.9845L177.337 -2.98462ZM159.709 14.6832L176.678 31.6523L159.709 48.6214L142.74 31.6523L159.709 14.6832ZM142.041 32.3411L159.011 49.3102L142.041 66.2793L125.072 49.3102L142.041 32.3411ZM124.374 50.0089L141.343 66.978L124.374 83.9471L107.404 66.978L124.374 50.0089ZM106.706 67.6767L123.675 84.6459L106.706 101.615L89.7366 84.6459L106.706 67.6767ZM89.0479 85.3446L106.017 102.314L89.0479 119.283L72.0788 102.314L89.0479 85.3446ZM71.3801 103.012L88.3492 119.982L71.3801 136.951L54.4109 119.982L71.3801 103.012ZM53.7122 120.68L70.6813 137.649L53.7122 154.618L36.7431 137.649L53.7122 120.68ZM36.0444 138.338L53.0135 155.307L36.0444 172.276L19.0753 155.307L36.0444 138.338ZM1.34755 173.005L18.3167 156.036L35.2858 173.005L18.3167 189.974L1.34755 173.005ZM19.0154 190.673L35.9845 173.704L52.9536 190.673L35.9845 207.642L19.0154 190.673ZM36.6832 208.331L53.6523 191.362L70.6214 208.331L53.6523 225.3L36.6832 208.331ZM54.3411 225.999L71.3102 209.029L88.2793 225.999L71.3102 242.968L54.3411 225.999ZM72.0089 243.666L88.978 226.697L105.947 243.666L88.978 260.635L72.0089 243.666ZM89.6767 261.334L106.646 244.365L123.615 261.334L106.646 278.303L89.6767 261.334ZM107.345 279.002L124.314 262.033L141.283 279.002L124.314 295.971L107.345 279.002ZM125.012 296.67L141.982 279.701L158.951 296.67L141.982 313.639L125.012 296.67ZM142.68 314.328L159.649 297.359L176.618 314.328L159.649 331.297L142.68 314.328ZM160.338 331.996L177.307 315.026L194.276 331.996L177.307 348.965L160.338 331.996ZM195.005 366.652L178.036 349.683L195.005 332.714L211.974 349.683L195.005 366.652ZM212.663 348.995L195.694 332.026L212.663 315.056L229.632 332.026L212.663 348.995ZM230.331 331.327L213.362 314.358L230.331 297.389L247.3 314.358L230.331 331.327ZM247.999 313.659L231.029 296.69L247.999 279.721L264.968 296.69L247.999 313.659ZM265.666 295.991L248.697 279.022L265.666 262.053L282.635 279.022L265.666 295.991ZM283.334 278.323L266.365 261.354L283.334 244.385L300.303 261.354L283.334 278.323ZM301.002 260.655L284.033 243.686L301.002 226.717L317.971 243.686L301.002 260.655ZM318.67 242.998L301.701 226.028L318.67 209.059L335.639 226.028L318.67 242.998ZM336.328 225.33L319.359 208.361L336.328 191.392L353.297 208.361L336.328 225.33ZM353.996 207.662L337.026 190.693L353.996 173.724L370.965 190.693L353.996 207.662ZM354.674 173.005L371.643 156.036L388.613 173.005L371.643 189.974L354.674 173.005Z" fill="url(#paint0_radial)"/>
<g filter="url(#filter0_d)">
<circle cx="213" cy="244" r="2" fill="#FFFF00"/>
</g>
<g filter="url(#filter1_df)">
<circle cx="142" cy="208" r="3" fill="#00D5FF"/>
</g>
<g filter="url(#filter2_d)">
<circle cx="160" cy="85" r="2" fill="white"/>
</g>
<g filter="url(#filter3_d)">
<circle cx="266" cy="191" r="2" fill="#00D5FF"/>
</g>
<g filter="url(#filter4_df)">
<circle cx="230.184" cy="119.757" r="3" fill="#FFFF00"/>
</g>
<path d="M265.666 123.246C267.458 123.246 268.91 121.793 268.91 120.001C268.91 118.21 267.458 116.757 265.666 116.757C263.874 116.757 262.422 118.21 262.422 120.001C262.422 121.793 263.874 123.246 265.666 123.246Z" fill="url(#paint1_radial)"/>
<path d="M212.728 102.437L177.417 137.704L230.242 190.751L177.398 243.62" stroke="#477085" stroke-width="2" stroke-linecap="round" stroke-linejoin="round" stroke-dasharray="0.01 13"/>
</g>
<defs>
<filter id="filter0_d" x="207" y="238" width="12" height="12" filterUnits="userSpaceOnUse" color-interpolation-filters="sRGB">
<feFlood flood-opacity="0" result="BackgroundImageFix"/>
<feColorMatrix in="SourceAlpha" type="matrix" values="0 0 0 0 0 0 0 0 0 0 0 0 0 0 0 0 0 0 127 0" result="hardAlpha"/>
<feOffset/>
<feGaussianBlur stdDeviation="2"/>
<feComposite in2="hardAlpha" operator="out"/>
<feColorMatrix type="matrix" values="0 0 0 0 1 0 0 0 0 1 0 0 0 0 0 0 0 0 0.5 0"/>
<feBlend mode="normal" in2="BackgroundImageFix" result="effect1_dropShadow"/>
<feBlend mode="normal" in="SourceGraphic" in2="effect1_dropShadow" result="shape"/>
</filter>
<filter id="filter1_df" x="135" y="201" width="14" height="14" filterUnits="userSpaceOnUse" color-interpolation-filters="sRGB">
<feFlood flood-opacity="0" result="BackgroundImageFix"/>
<feColorMatrix in="SourceAlpha" type="matrix" values="0 0 0 0 0 0 0 0 0 0 0 0 0 0 0 0 0 0 127 0" result="hardAlpha"/>
<feOffset/>
<feGaussianBlur stdDeviation="2"/>
<feComposite in2="hardAlpha" operator="out"/>
<feColorMatrix type="matrix" values="0 0 0 0 0 0 0 0 0 0.833333 0 0 0 0 1 0 0 0 0.5 0"/>
<feBlend mode="normal" in2="BackgroundImageFix" result="effect1_dropShadow"/>
<feBlend mode="normal" in="SourceGraphic" in2="effect1_dropShadow" result="shape"/>
<feGaussianBlur stdDeviation="2" result="effect2_foregroundBlur"/>
</filter>
<filter id="filter2_d" x="154" y="79" width="12" height="12" filterUnits="userSpaceOnUse" color-interpolation-filters="sRGB">
<feFlood flood-opacity="0" result="BackgroundImageFix"/>
<feColorMatrix in="SourceAlpha" type="matrix" values="0 0 0 0 0 0 0 0 0 0 0 0 0 0 0 0 0 0 127 0" result="hardAlpha"/>
<feOffset/>
<feGaussianBlur stdDeviation="2"/>
<feComposite in2="hardAlpha" operator="out"/>
<feColorMatrix type="matrix" values="0 0 0 0 1 0 0 0 0 1 0 0 0 0 1 0 0 0 0.5 0"/>
<feBlend mode="normal" in2="BackgroundImageFix" result="effect1_dropShadow"/>
<feBlend mode="normal" in="SourceGraphic" in2="effect1_dropShadow" result="shape"/>
</filter>
<filter id="filter3_d" x="260" y="185" width="12" height="12" filterUnits="userSpaceOnUse" color-interpolation-filters="sRGB">
<feFlood flood-opacity="0" result="BackgroundImageFix"/>
<feColorMatrix in="SourceAlpha" type="matrix" values="0 0 0 0 0 0 0 0 0 0 0 0 0 0 0 0 0 0 127 0" result="hardAlpha"/>
<feOffset/>
<feGaussianBlur stdDeviation="2"/>
<feComposite in2="hardAlpha" operator="out"/>
<feColorMatrix type="matrix" values="0 0 0 0 0 0 0 0 0 0.833333 0 0 0 0 1 0 0 0 0.5 0"/>
<feBlend mode="normal" in2="BackgroundImageFix" result="effect1_dropShadow"/>
<feBlend mode="normal" in="SourceGraphic" in2="effect1_dropShadow" result="shape"/>
</filter>
<filter id="filter4_df" x="223.184" y="112.757" width="14" height="14" filterUnits="userSpaceOnUse" color-interpolation-filters="sRGB">
<feFlood flood-opacity="0" result="BackgroundImageFix"/>
<feColorMatrix in="SourceAlpha" type="matrix" values="0 0 0 0 0 0 0 0 0 0 0 0 0 0 0 0 0 0 127 0" result="hardAlpha"/>
<feOffset/>
<feGaussianBlur stdDeviation="2"/>
<feComposite in2="hardAlpha" operator="out"/>
<feColorMatrix type="matrix" values="0 0 0 0 1 0 0 0 0 1 0 0 0 0 0 0 0 0 0.5 0"/>
<feBlend mode="normal" in2="BackgroundImageFix" result="effect1_dropShadow"/>
<feBlend mode="normal" in="SourceGraphic" in2="effect1_dropShadow" result="shape"/>
<feGaussianBlur stdDeviation="2" result="effect2_foregroundBlur"/>
</filter>
<radialGradient id="paint0_radial" cx="0" cy="0" r="1" gradientUnits="userSpaceOnUse" gradientTransform="translate(195.005 173.005) scale(136.332)">
<stop stop-color="#67D1FA" stop-opacity="0.2"/>
<stop offset="1" stop-color="#67D1FA" stop-opacity="0"/>
</radialGradient>
<radialGradient id="paint1_radial" cx="0" cy="0" r="1" gradientUnits="userSpaceOnUse" gradientTransform="translate(1989.25 1039.77) scale(21.0866)">
<stop offset="0.28" stop-color="#00D4FF" stop-opacity="0.2"/>
<stop offset="0.62" stop-color="#00D4FF" stop-opacity="0.06"/>
<stop offset="0.82" stop-color="#00D4FF" stop-opacity="0"/>
</radialGradient>
<clipPath id="clip0">
<rect width="390" height="346" fill="white"/>
</clipPath>
</defs>
</svg>
